<?xml version="1.0" encoding="UTF-8" standalone="no"?>
<svg width="35.2778mm" height="35.2778mm"
 viewBox="0 0 100 100"
 xmlns="http://www.w3.org/2000/svg" xmlns:xlink="http://www.w3.org/1999/xlink"  version="1.2" baseProfile="tiny">
<title>Qt SVG Document</title>
<desc>Generated with Qt</desc>
<defs>
</defs>
<g fill="none" stroke="black" stroke-width="1" fill-rule="evenodd" stroke-linecap="square" stroke-linejoin="bevel" >

<g fill="#0ce4ed" fill-opacity="1" stroke="none" transform="matrix(0.0976563,0,0,0.0976563,0,0)"
font-family="SimSun" font-size="9" font-weight="400" font-style="normal" 
>
<path vector-effect="none" fill-rule="nonzero" d="M355.7,164.6 C353.3,169.5 350.3,174.2 348.5,179.3 C328.7,236.5 322.1,294.5 337.7,354 C340.1,363.3 338,373.9 338,385.5 C323.4,361.9 322.4,336.1 317.6,311 C304.6,331.1 299.7,353.9 291.8,377.7 C278.6,343.7 281.9,310.9 288.2,278.3 C294.5,245.6 304.8,214.2 324.5,186.5 L322.7,184.4 C306.1,195.4 289.3,205.9 273.1,217.4 C257,228.8 241.6,241 225.2,252.2 C250,195.3 291.3,154.6 349.4,127.9 C321.1,115.4 296,100.5 279.3,73.1 C289.8,76 299,79.1 308.5,80.9 C323.9,83.9 339.4,86.7 355,88.2 C372.9,89.9 389.9,87.7 407.1,79.8 C435.5,66.6 464.5,53.9 495.9,49.2 C548.4,41.2 599.6,43.6 646.3,72.4 C676.4,91 698.3,117.5 714.9,148.5 C718,154.2 721.3,159.9 724.9,166.2 L711.2,166.2 C711,166.9 710.8,167.5 710.6,168.2 C713.1,169.2 715.6,170.5 718.2,171.1 C735,174.9 740.3,187.9 730.8,202.7 C727.7,207.5 724.2,212.1 720.9,216.8 C721.9,217.7 722.9,218.6 723.8,219.5 C726.6,215.4 729.4,211.3 732.2,207.1 C732.8,207.4 733.4,207.8 734.1,208.1 C733,237.5 731.8,266.9 730.7,296.3 C729.9,296.6 729.1,296.9 728.3,297.3 C713.5,231.5 691.3,169.2 644.1,119 C652.8,131.7 662.1,144.1 670.2,157.2 C684.1,179.7 696.4,202.9 698.5,230.1 C699.2,239.7 699.3,240.7 694.8,244.1 C696.8,245.7 700.8,247.3 701,249.2 C705.2,303.9 699.7,357.6 684.4,410.3 C684.2,411.1 683.5,411.9 683.9,411.2 C666.9,368.6 649.6,325.1 632.2,281.4 C635.3,278.4 638.8,275.1 642.3,271.8 C641.8,270.7 641.3,269.7 640.9,268.6 C636.1,270 631.3,271.5 625.7,273.2 C613.6,252.5 601.1,231.2 587.8,208.4 C610.3,192 632.8,175.7 655.3,159.4 C654.8,158.7 654.3,158 653.8,157.2 C631.5,173.1 609.3,189.1 586.8,205.1 C571.2,181.5 555.4,157.8 539.7,134.1 C539.6,216.1 551.8,295.9 567.5,377.5 C561.3,374.1 557.1,371.6 552.7,369.4 C511.5,348 486.8,312.7 468.8,271.2 C451.8,232.2 442,191.6 437.4,148.9 C426.9,170.2 421.3,193.2 413.6,216.4 C400.9,208.2 388.7,200.4 376.5,192.6 C376.1,193.3 375.6,194 375.2,194.7 C384.6,201 393.9,207.6 403.5,213.6 C409.6,217.5 411.3,221.4 409.2,229 C391.3,292.5 380.7,357.2 379.9,423.3 C379.9,425.4 379.9,427.5 379,429.8 C353.9,390 336.4,347.8 335.2,300 C333.8,253.7 338.6,208.4 355.7,164.6 M206,368.8 C207.8,379.3 214.9,375.9 221.3,375.5 C221.1,379.5 221,383.1 220.8,387.4 L253.8,387.4 C251.4,403.8 249,418.6 247.2,433.4 C246.2,441.8 246.3,450.3 245.7,458.8 C245.4,463.5 247,465.6 252,465.8 C259.5,466.2 266.9,467.3 276.3,468.4 C271.9,477.3 268.1,485.7 263.7,493.7 C242.8,531 223.1,568.9 210.2,609.9 C198.1,648.4 191.3,687.7 191.1,728.5 C187.2,704.2 183.2,679.9 179.3,655.6 C167.8,685.5 166.1,717.5 163.6,749.1 C161,781.4 162.8,813.7 174.3,845.6 C118,817.8 85.5,774.3 74.8,714 C67.2,670.8 72.7,628.9 83.5,587.1 C84,585.3 84.4,583.5 84.9,581.4 C66.9,591 28.3,685.1 15.2,745.1 C15.2,729.6 13.7,713.9 15.5,698.5 C23.4,632.1 49,572.3 88.7,519 C120.4,476.4 154.5,435.6 187.4,393.9 C193.6,386.1 199.3,377.8 206,368.8 M809.2,714.3 C809.4,710.5 808.8,706.4 809.8,702.8 C818.2,673.9 828.5,645.4 835,616.1 C842.6,581.5 837.3,546.7 828.9,512.6 C822.5,486.5 814.8,460.6 807.3,433.1 C822.8,431.8 838.6,430 854.4,429.2 C861.8,428.8 864.6,426.2 863.6,418.9 C861,400.3 858.5,381.6 856,362.8 C856.2,362.6 856.7,362 857.2,361.9 C871.9,358.1 872.2,358 879.1,371.6 C912.6,437.4 946.1,503.2 969.5,573.6 C987.6,628 996.5,683.3 987.9,740.7 C984.4,764.3 970.4,811.8 961.5,826.5 C971.3,770.3 969.3,715 961,659.5 C959.9,665.5 958.1,671.4 957.9,677.4 C956.8,712.5 940.9,741.1 919.5,767.6 C891.6,802.3 863.8,837.1 835.9,871.8 C834.4,873.7 832.7,875.5 829.6,877.1 C826.5,806.2 834.2,736 842.3,665.8 C841.4,665.4 840.6,665.1 839.7,664.7 C837.4,668.4 834.8,672 833,675.9 C827.6,687.2 822.6,698.8 817.1,710.1 C815.7,712.9 815.1,718.5 809.5,714.5 C809.5,714.4 809.2,714.3 809.2,714.3 "/>
</g>

<g fill="#0ce4ed" fill-opacity="1" stroke="none" transform="matrix(0.0976563,0,0,0.0976563,0,0)"
font-family="SimSun" font-size="9" font-weight="400" font-style="normal" 
>
<path vector-effect="none" fill-rule="nonzero" d="M434.7,161 C440.4,210 455.9,255 478.4,298.1 C495.1,330 518.9,354.4 549.9,372.4 C552.1,373.7 554.2,374.9 556.4,376.3 C556.9,376.6 557.3,377.2 558.9,378.9 C555.6,380.1 553,381.5 550.2,381.9 C532.5,383.9 514.8,386.5 497,387.2 C487.5,387.6 487.2,393.2 486.3,399.3 C483,420.4 484.2,441.2 493.2,463.2 C479.5,461.6 467,461.2 455.1,458.5 C439.3,454.8 423.8,449.6 408.5,444.2 C399.9,441.2 394.8,434.5 392,425.1 C381.8,390.7 387.2,356.6 392.5,322.4 C393.4,316.9 394.5,311.4 395.6,305.2 C417.5,315.9 438.5,326.3 461.2,337.4 C443.7,348.8 427.5,359.4 411.2,369.9 C409.1,371.3 406.5,372.1 404.8,373.8 C403.1,375.5 402.4,378.1 401.2,380.3 C403.7,380.4 406.8,381.5 408.5,380.4 C422.9,371.5 437.2,362.3 451.4,353.1 C456.7,349.7 462,346.3 466.9,342.3 C469.1,340.6 471.3,337.6 471.4,335.1 C471.5,333.5 467.9,331.2 465.6,330.1 C443,319.2 420.3,308.4 396.6,297.1 C402.5,271.8 408.3,247.2 414.4,221.4 C426.9,228.7 437.9,235.1 448.9,241.6 L450.1,239.8 C438.9,232.7 427.7,225.7 416.4,218.6 C422.7,199 428.7,180 434.7,161 M566.6,495.5 C569.6,498 571.7,499.7 574.8,502.2 C579.2,491.2 583.3,481 587.4,470.7 C588.2,470.7 589.1,470.8 589.9,470.8 C592.9,491 595.9,511.2 598.9,531.5 C602.4,554.9 607.6,577.9 621.2,597.9 C625.8,604.7 624.7,609.7 619,615 C600.8,631.8 582.8,648.8 564.7,665.7 C557.4,672.5 550.5,672.5 543.6,665.1 C533.3,654.2 522.4,643.7 512.7,632.3 C507.4,626.1 503.1,624 495.2,627.4 C483.5,632.5 471.3,636.2 457.8,641.1 C457,632.4 456.5,625.6 455.7,618.8 C454.1,605.7 452.6,592.6 450.4,579.6 C449.3,573.1 450.3,568.9 457.2,566.4 C463.4,564.2 469.2,561 475.2,558.1 C479.8,555.9 484.9,555.2 486.5,548.3 C487.4,544.5 494.7,542.4 496.3,538.4 C501.7,525.1 505.7,511.2 510.6,497.6 C513,491.1 516.3,485 521.3,479.4 C522.2,485.8 523,492.1 523.9,499.1 C526.7,498.5 528.7,498.1 532.9,497.3 C532.1,505.9 533.4,515.1 530,521.7 C523.5,534.1 514.5,545.3 506,556.6 C501.8,562.3 500.9,567.5 503.9,574 C507.7,582.3 511,590.8 514.2,599.3 C516.5,605.2 520.4,606.5 525.2,603 C535.8,595.2 546.4,587.3 556.3,578.7 C562.5,573.3 563.8,566.1 562.7,557.3 C560.7,541.3 558.9,525 565.5,509.1 C566.9,505.6 566.2,501.1 566.6,495.5 M814.4,290.5 C820.6,336.8 826.4,380 832,422 C778.4,434.6 725.1,447.1 670.8,459.8 C675.6,453.6 674.3,444 684.3,441.4 C685.7,441 686.7,437.9 687.4,435.9 C696.4,410.5 707.7,385.5 713.5,359.3 C717.4,341.6 727.3,333.1 741.3,326.2 C765.3,314.3 789.6,302.6 814.4,290.5 "/>
</g>

<g fill="#0ce4ed" fill-opacity="1" stroke="none" transform="matrix(0.0976563,0,0,0.0976563,0,0)"
font-family="SimSun" font-size="9" font-weight="400" font-style="normal" 
>
<path vector-effect="none" fill-rule="nonzero" d="M571.4,383.3 C576,372.9 579.9,372.2 587.8,380.9 C600.7,395.1 609.2,411.7 613.9,430.3 C615.1,435 614.3,437.9 609.4,439.9 C575.9,453.3 541.6,462.7 505.2,462.4 C498.2,462.4 495.3,459.8 493,453.6 C486.3,435.2 487.7,416.5 490.9,397.8 C491.3,395.4 495.7,392.5 498.6,392 C518.6,388.8 538.7,386 558.8,383.3 C562.5,382.9 566.5,383.3 571.4,383.3 M381.6,472.5 C363.5,470.9 347,469.5 330.6,467.9 C313.1,466.2 295.7,464.3 278.2,462.6 C273.5,462.2 270.2,461.3 270.9,455.5 C274.5,427.7 277.9,399.9 283.6,372.3 C286,378.6 288.4,384.8 291.3,392.5 C305.7,381.5 309.7,365.6 318.2,352.9 C323.4,365.1 328,377.4 333.8,389.3 C340.5,403.1 341.4,403 352.1,388.8 C362.1,417 371.4,443.6 381.6,472.5 "/>
</g>

<g fill="#0ce4ed" fill-opacity="1" stroke="none" transform="matrix(0.0976563,0,0,0.0976563,0,0)"
font-family="SimSun" font-size="9" font-weight="400" font-style="normal" 
>
<path vector-effect="none" fill-rule="nonzero" d="M563.2,330.6 C587,339.4 609.3,347.7 631.7,356 C634.1,356.9 636.3,358.4 638.7,358.7 C641.1,359 643.6,358.1 646,357.7 C644.5,355.7 643.5,352.5 641.5,351.7 C627,345.8 612.3,340.2 597.6,334.7 C590,331.9 582.2,329.4 572.8,326.1 C591.1,311.9 608.3,298.6 626.6,284.4 C637.1,309.9 655,331.5 651.8,361.1 C650,377.6 651.1,394.4 650.7,411 C650.6,413.6 649.9,417.3 648.1,418.4 C638.8,424.6 629.2,430.2 621.6,434.8 C612.5,417 604.6,400.1 595.4,383.9 C590.2,374.8 583.4,365.9 569.9,373.7 C567.6,359.2 565.6,346 563.2,330.6 M543.2,144.7 C556.6,165.5 570,186.3 583.8,207.8 C574.9,215.4 566.4,222.6 557.9,229.9 C558.3,230.5 558.8,231.1 559.2,231.6 C567.6,225 576.1,218.3 585.5,211 C597.5,232.2 609.2,252.6 620.5,273.1 C621.4,274.6 620.9,278.4 619.6,279.4 C600.9,294.2 582.1,308.7 562.4,323.8 C549.8,264.1 544.9,204.8 543.2,144.7 M766.6,306 C766.6,298.1 765.9,291.1 766.7,284.3 C770,255.3 774.3,226.5 777.1,197.5 C777.9,189.1 776.4,180 773.9,171.8 C769.7,157.8 763.8,144.2 758.7,130.6 C772.2,119.4 778.9,121.7 783.6,137.5 C790.9,162.4 799.1,187.1 807.1,211.8 C814.4,234.5 822,257.2 829.6,280.2 C809.6,288.4 789.4,296.7 766.6,306 M535.5,738.2 L576.7,738.2 C572.7,776.5 568.7,815 564.4,853.6 C564.2,855.8 561.5,858.4 559.4,859.6 C549.5,865.2 539,865.5 528.5,861.5 C517.2,857.2 515.4,851.5 517.6,839.8 C523.4,809 528.5,778.1 533.8,747.2 C534.3,744.2 534.9,741.2 535.5,738.2 M408.5,659.4 C413.1,667.1 418.7,675.5 423.2,684.4 C424.3,686.5 422.8,692.1 420.8,693.2 C391.9,709 362.8,724.3 333.7,739.7 C327.9,742.8 322.6,741.6 318.5,736.8 C314.9,732.6 311.2,728.1 308.6,723.3 C297.4,702.6 298.7,700.2 320,692.6 C349.1,682 378,670.8 408.5,659.4 "/>
</g>

<g fill="#0ce4ed" fill-opacity="1" stroke="none" transform="matrix(0.0976563,0,0,0.0976563,0,0)"
font-family="SimSun" font-size="9" font-weight="400" font-style="normal" 
>
<path vector-effect="none" fill-rule="nonzero" d="M754.5,187.8 C747.9,188.2 744.3,188.4 741.1,188.6 C728.6,142.9 707.4,101.3 688,58.2 C693.9,56.1 698.8,54 703.9,52.7 C711.3,50.8 717.1,52.5 720.4,60.4 C736.5,98.2 752.8,135.9 769,173.6 C770.9,178 771.2,181.3 765.6,184.3 C762.9,185.8 761.6,191.4 761.3,195.3 C758.9,229.1 756.9,263 754.6,296.8 C754.1,303.6 753.7,303.6 747.1,304.2 C749.6,265.8 752,227.5 754.5,187.8 M519.2,603.2 C514.3,591 509.7,580.3 505.9,569.4 C505,567 505.8,563 507.3,560.8 C515.8,548.4 525.2,536.6 533.4,524 C539.1,515.1 547.1,518.9 554.3,518.9 C555.2,518.9 556.9,522.6 557.1,524.7 C558.1,536.9 559,549.1 559.6,561.3 C559.7,564.6 559.6,568.6 557.9,571.1 C548.2,585.1 534,593.5 519.2,603.2 M242.5,310.7 C248.7,285.3 254.1,259.5 261.7,234.5 C263.9,227.3 272.4,222.1 277.9,216.1 C288.3,249 284.7,280.3 279.1,311.4 C278.1,317.1 275.3,322.4 273.3,328.1 C262,321.7 251.5,315.8 242.5,310.7 M858.9,423.7 C851.2,424.3 845,424.8 837.6,425.4 C835.3,409.6 832.8,394.2 830.7,378.8 C827.2,352.7 824.2,326.5 820.5,300.4 C819.2,291.2 821.4,285.8 833.3,286 C841.1,331.4 857.3,375.5 858.9,423.7 M871.6,286 C867,295.5 862.3,305 857.7,314.5 C859,315 860.3,315.6 861.6,316.1 C863,310.9 864.5,305.7 866.1,299.7 C876.1,298.1 886.8,293.8 900.1,302.2 C890.2,306.9 882.6,310.4 872.9,315 C882.7,317.7 890.1,319.7 897.5,321.7 L897.5,325.5 C891.3,327.3 885.1,329.1 877.1,331.4 C884.2,335.3 890,338.4 895.8,341.6 C895.5,342.6 895.3,343.5 895,344.5 L876.9,344.5 C876.2,345.4 875.5,346.4 874.9,347.3 C878.8,349.3 882.8,351.4 886.7,353.4 C886,354.6 885.2,355.9 884.5,357.1 C881.7,357 879,357 876.3,356.7 C873.2,356.3 870.1,354.9 867.2,355.2 C849.3,357.5 853,356.4 849.1,341.8 C845.8,329.7 843.2,317.4 841.2,305 C840.7,302.1 842.8,297.1 845.3,295.5 C853.3,290.6 861.9,287 870.3,282.8 C870.8,284 871.2,285 871.6,286 M869.5,346.9 C874.8,338.4 875,319.1 869.5,314.6 L869.5,346.9 M227.4,353.7 L235.2,371.1 C235.7,370.9 236.3,370.8 236.8,370.6 C234.4,360.1 232.1,349.5 229.2,339 C228.8,337.6 225,337 222.8,336.2 C217.3,334.4 211.9,332.6 205.7,330.6 C213,322.4 224.7,321.7 237.9,331.3 C246.4,337.5 251.9,347.9 258.7,356.4 C259.5,355.7 260.3,355.1 261.1,354.4 C253.1,344.6 245.1,334.9 237.3,325 C235.8,323.1 234.3,319.5 235.1,317.8 C235.9,316.1 240.5,314.4 242,315.2 C251.9,321 261.4,327.4 270.9,333.9 C271.6,334.4 271.6,336.8 271.1,338.1 C266.6,352.1 262.1,366.2 257.3,380.1 C256.8,381.5 254.8,383.2 253.5,383.2 C243.8,383.5 234.1,383.3 221.9,383.3 C225.3,378 227.8,374.2 230.4,370.1 C224.1,371.1 217.7,372.1 211.2,373.1 L209.1,370.1 C212.9,366.3 216.5,362.4 220.4,358.7 C222.5,356.7 225.1,355.1 227.4,353.3 C227.6,353.5 227.4,353.7 227.4,353.7 M277.4,333.2 C281.1,350.2 279.8,365.1 276.9,380.4 C271.9,407.2 268.6,434.3 264.4,462.4 C260.5,462 255.9,461.5 250.4,460.9 C249.8,416.6 260.5,375.2 277.4,333.2 M637.3,464.8 C623.1,472.6 610.1,479.8 596.4,487.3 C595.5,484 594.4,480.9 593.8,477.6 C588.8,451.2 591.9,451.3 611.3,442.7 C617,440.2 622.6,437.6 629.1,434.6 C632,445 634.7,454.9 637.3,464.8 M519.4,668.5 C507.3,668.5 496.8,668.7 486.2,668.4 C478.5,668.2 469.8,660 469.7,653.3 C469.7,647.8 478.1,640.5 484.9,639.2 C496.9,636.8 507,641.8 517,646.8 C519,647.8 520.8,651.1 520.8,653.4 C520.9,658.6 519.9,663.8 519.4,668.5 M578,694.6 C578,705.8 578.6,715.5 577.7,725 C577.4,728 573.4,732.8 570.9,733 C559.3,733.9 547.6,733.4 534.9,733.4 C535.9,724.5 536.6,717.5 537.2,712.1 C550.7,706.3 563.1,701 578,694.6 M657.2,351.6 C662.1,367.1 667.3,382.5 671.9,398 C672.7,400.7 672,404.4 670.8,407.1 C665.4,419.3 659.5,431.4 653.8,443.5 L653.8,351.7 C655,351.7 656.1,351.6 657.2,351.6 M290.5,158.9 C294.7,141.4 298.4,126.3 302,111.3 C313.2,108.6 319.1,117.1 325.6,122.5 C327.3,123.9 325.3,133.5 322.3,136.1 C313,144.1 302.3,150.7 290.5,158.9 M526.7,655.7 C540.3,666.3 551,686.9 571.8,665.2 C572.3,674.9 570.1,680.4 562.1,682.9 C555.6,685 549.3,687.8 543,690.5 C532.3,695 523.6,689 524.5,677.5 C525.1,670.5 525.9,663.5 526.7,655.7 M427.8,646.4 C430.9,651.3 433.6,655.1 435.8,659.2 C438.9,665.3 442.3,668.4 449.6,664.3 C451.5,663.3 455.7,666.4 461.3,668.6 C449.5,676.2 440.5,682.1 430.6,688.5 C423.8,677.1 417.3,666.2 410.5,654.7 C416.6,651.8 421.9,649.2 427.8,646.4 "/>
</g>

<g fill="#0ce4ed" fill-opacity="1" stroke="none" transform="matrix(0.0976563,0,0,0.0976563,0,0)"
font-family="SimSun" font-size="9" font-weight="400" font-style="normal" 
>
<path vector-effect="none" fill-rule="nonzero" d="M590.9,452.5 C585.2,467.5 579.8,481.8 574.2,496.5 C567.4,491.4 560.8,486.6 554.2,481.6 C560.2,466 568.4,452.3 590.9,452.5 M470.6,477.4 C471.6,467.5 475.8,463.6 486.5,465.1 C497.5,466.6 508.8,465.4 521.1,465.4 C520,468.9 519.5,470.9 518.7,472.9 C513.1,486.2 512.9,486.3 498.8,483.7 C490.2,482.1 481.6,480.3 472.9,478.6 C472.1,478.4 471.3,477.8 470.6,477.4 M450.6,653.9 C459.4,652.1 465.5,654.7 469.8,663.1 C473.4,670.3 480,673.4 488.5,673.2 C497.2,673 506,673.6 514.7,674.3 C516.5,674.4 518.2,676.6 520,677.9 C518.3,679.2 516.6,681.5 514.8,681.6 C503.3,682.5 491.7,683.3 480.2,683.3 C476.8,683.3 472.4,681.2 470.1,678.5 C463.2,670.9 457.3,662.5 450.6,653.9 M562.8,501.5 C562.9,512 560.2,513.3 545.1,514.1 C535.8,514.6 535,509.5 535.1,502.5 C535.2,494.7 542.5,488 551.7,487.7 C559.4,487.5 562.8,491.7 562.8,501.5 M574.3,691.9 C555.3,699.9 536.9,717.3 514.4,691.8 C519.7,692.2 523.6,691.5 526.3,693 C533.5,697 539.9,697.9 547.4,693.3 C552.6,690.1 558.7,687.8 564.8,686.4 C567.9,685.7 571.6,687.8 575,688.7 C574.7,689.8 574.5,690.9 574.3,691.9 M653.6,454 C654.6,458.6 655.4,462.2 656.4,466.4 C651.5,468.2 647.3,469.7 643.1,471.2 C633,448.5 633.6,435.1 646.3,425.7 L646.3,462.3 C648.2,460.1 650.3,457.7 653.6,454 M384.1,446.3 L384.1,415.2 C385.1,415.2 386.2,415.1 387.2,415.1 C388.1,433.5 388.9,451.9 389.8,470.2 C388.6,470.5 387.5,470.8 386.3,471.1 L371.6,432.7 C372.4,432.3 373.3,431.8 374.1,431.4 C377,435.8 379.9,440.1 384.1,446.3 M617.1,683 C620.2,665.7 634.6,657.7 646.4,645.5 C645,662.7 629.9,681.2 617.1,683 M544.1,481.5 C537.9,486.3 532.6,490.5 526.3,495.4 C525.4,487.2 524.2,479.6 524.2,472.1 C524.2,469.7 527.1,466.2 529.6,465.2 C531.2,464.5 534.9,466.9 536.5,468.9 C539.4,472.8 541.6,477.3 544.1,481.5 M633.3,651.7 C628.3,656.9 624.7,660.7 619.8,665.9 C616.3,657.2 613.1,650 610.5,642.5 C610.1,641.2 611.5,638.3 612.9,637.6 C614.4,636.9 617.2,637.2 618.5,638.3 C623.3,642.2 627.8,646.6 633.3,651.7 M265.5,181.4 C266,177.4 266.6,173.4 267,169.4 C268.8,154 269.6,153.4 285.9,156.8 C286.5,170.4 272.6,172.9 267.7,182.2 C267,181.9 266.2,181.7 265.5,181.4 M809.2,714.3 L809.5,714.4 C809.7,717.5 810.9,721 809.8,723.5 C804.7,735.7 798.9,747.6 793.4,759.6 C792.5,759.3 791.6,759.1 790.7,758.8 C790.7,757.2 790.3,755.5 790.8,754.1 C795.1,742 799.5,730 804.2,718.1 C804.8,716.5 807.5,715.6 809.2,714.3 M407,463.9 C421.4,467.9 434.4,471.6 447.4,475.2 L446.5,479.4 C433.3,477.6 420.1,475.7 406,473.8 C406.4,470.4 406.6,467.9 407,463.9 M462.6,486.7 C458.1,485.2 454.4,484 450.7,482.8 C458,462.8 458,462.8 469.1,465.3 C467.1,472.2 465,479.1 462.6,486.7 M227.6,353.5 C219.1,356.3 210.8,356.6 201.8,352.1 C207.7,342.2 216.5,341 226.6,340.2 C226.9,345.2 227.2,349.4 227.4,353.7 L227.6,353.5 M561.4,459.2 C561,461 561,462.1 560.6,462.8 C557,469 553.4,475.2 548.9,482.9 C544.9,476.4 541.5,470.9 537.5,464.4 C546,462.5 553.4,460.9 561.4,459.2 M614.8,669.5 C608.1,670.2 601.3,670.1 594.9,671.8 C588.3,673.4 582.2,676.7 573.8,677.8 C576.3,674.9 578.3,670.8 581.5,669.3 C596.6,662.1 607.9,662.5 614.8,669.5 M439.5,625 C440.1,632.9 440.7,640.9 441.4,648.8 C442.3,648.9 443.1,649 444,649 C442,650.9 440.1,652.7 437.2,655.4 C434.4,649.7 429.4,644.1 429.8,638.9 C430.1,634.2 436.3,629.9 439.9,625.5 C439.9,625.6 439.5,625 439.5,625 M723.9,327 C722.2,318.3 720.6,309.5 718.7,299.9 C733.3,302.2 732.7,311.9 732.6,321.6 C724.8,316.7 725.2,323.1 723.9,327 M709.4,340.3 C704.5,327.8 706.5,320.9 716.3,315.3 C721.1,330.1 719.9,334.8 709.4,340.3 M657.3,619.9 C665.8,631 665.8,639.7 657.3,650.8 L657.3,619.9 M445,640.1 C447.8,638.7 449.9,637.6 452.8,636.2 C454.4,645.6 461,644 467.6,642.9 C466.2,650.6 460.8,648.9 456.2,649.3 C449.6,649.9 446.5,646.8 445,640.1 M428.9,572.3 C436.9,580.7 436.5,595.6 428.9,601.8 L428.9,572.3 M602.1,657.7 C593.9,660.2 587.2,662.3 580.5,664.4 C580.2,663.8 579.8,663.2 579.5,662.6 C585.3,658 591.1,653.4 597.9,648.1 C599.4,651.7 600.6,654.3 602.1,657.7 M304.9,201 C303.9,209.6 303.2,216.4 302.4,223.2 C295.4,211.6 295.9,206 304.9,201 "/>
</g>

<g fill="#0ce4ed" fill-opacity="1" stroke="none" transform="matrix(0.0976563,0,0,0.0976563,0,0)"
font-family="SimSun" font-size="9" font-weight="400" font-style="normal" 
>
<path vector-effect="none" fill-rule="nonzero" d="M439.5,625 L439.9,625.6 C440.9,618.7 441.9,611.9 442.9,605.5 C447.7,615.8 447,620.5 439.5,625 "/>
</g>

<g fill="none" stroke="#000000" stroke-opacity="1" stroke-width="1" stroke-linecap="square" stroke-linejoin="bevel" transform="matrix(1,0,0,1,0,0)"
font-family="SimSun" font-size="9" font-weight="400" font-style="normal" 
>
</g>
</g>
</svg>
