<?xml version="1.0" encoding="UTF-8" standalone="no"?>
<!-- Created with Inkscape (http://www.inkscape.org/) -->

<svg
   xmlns:dc="http://purl.org/dc/elements/1.1/"
   xmlns:cc="http://creativecommons.org/ns#"
   xmlns:rdf="http://www.w3.org/1999/02/22-rdf-syntax-ns#"
   xmlns:svg="http://www.w3.org/2000/svg"
   xmlns="http://www.w3.org/2000/svg"
   xmlns:sodipodi="http://sodipodi.sourceforge.net/DTD/sodipodi-0.dtd"
   xmlns:inkscape="http://www.inkscape.org/namespaces/inkscape"
   sodipodi:docname="pika.svg"
   viewBox="0 0 640 375"
   height="375"
   width="640"
   id="svg8530"
   version="1.1"
   inkscape:version="0.92.4 (5da689c313, 2019-01-14)">
  <metadata
     id="metadata8536">
    <rdf:RDF>
      <cc:Work
         rdf:about="">
        <dc:format>image/svg+xml</dc:format>
        <dc:type
           rdf:resource="http://purl.org/dc/dcmitype/StillImage" />
        <dc:title></dc:title>
      </cc:Work>
    </rdf:RDF>
  </metadata>
  <defs
     id="defs8534" />
  <sodipodi:namedview
     pagecolor="#ffffff"
     bordercolor="#666666"
     borderopacity="1"
     objecttolerance="10"
     gridtolerance="10"
     guidetolerance="10"
     inkscape:pageopacity="0"
     inkscape:pageshadow="2"
     inkscape:window-width="1366"
     inkscape:window-height="706"
     id="namedview8532"
     showgrid="false"
     inkscape:zoom="1.408"
     inkscape:cx="320"
     inkscape:cy="301.13636"
     inkscape:window-x="-8"
     inkscape:window-y="-8"
     inkscape:window-maximized="1"
     inkscape:current-layer="layer2" />
  <g
     inkscape:groupmode="layer"
     id="layer2"
     inkscape:label="Layer 1">
    <path
       style="fill:#000000"
       d="m 248.22927,321.06477 c -2.7503,-1.6019 -2.08287,-4.00503 2.37343,-8.54567 l 4.12344,-4.20147 -1.62344,-4.76452 c -2.62603,-7.70699 -2.18819,-27.11795 1.01723,-45.09695 3.72508,-20.89381 3.96508,-19.2687 -3.14066,-21.26618 -13.33607,-3.74888 -21.56732,-10.37388 -27.23949,-21.92396 -2.43814,-4.96472 -2.74572,-6.67217 -2.63385,-14.62115 0.20325,-14.44203 2.07268,-34.50916 3.81951,-41 1.91607,-7.11972 5.45318,-14.66347 10.14316,-21.63274 1.87587,-2.78753 3.41067,-5.29771 3.41067,-5.57818 0,-0.28047 -3.2625,-3.98425 -7.25,-8.23063 -13.45427,-14.32776 -20.86261,-34.24057 -21.04194,-56.55844 -0.10647,-13.25097 0.95324,-17.500002 4.36449,-17.500002 3.37269,0 17.70945,7.930882 25.43568,14.070632 11.30419,8.98302 22.58596,24.80705 27.48366,38.54908 l 2.18108,6.11972 6.7486,-2.34693 c 8.39578,-2.91977 24.25675,-4.76196 33.54819,-3.89651 9.93269,0.92518 22.67099,4.03491 28.38135,6.92856 l 4.86528,2.46542 1.25534,-4.19498 c 4.45106,-14.87414 21.66997,-36.7842 37.42982,-47.62725 5.6721,-3.90251 15.95799,-8.792105 20.33305,-9.665706 2.4586,-0.490927 3.38256,-0.260292 3.85135,0.961354 1.04874,2.732962 -1.42283,26.701252 -3.62322,35.136612 -2.57082,9.85541 -10.43247,26.60155 -16.44195,35.02308 -2.47235,3.46468 -6.76536,8.28532 -9.54004,10.71254 l -5.04487,4.41313 2.05517,2.61273 c 3.7443,4.76009 8.13145,15.52918 9.83188,24.13416 l 1.67708,8.48685 18,-9.55559 c 19.7867,-10.5041 31.19668,-15.63241 32.70563,-14.69982 1.0623,0.65653 0.0189,77.01132 -1.13001,82.69389 -0.54914,2.71609 -1.29315,3.36956 -5.10918,4.48752 -2.45654,0.71967 -12.11644,3.70325 -21.46644,6.63018 l -17,5.32168 v 14.36982 14.36982 h -10 -10 l 1.41874,8.83669 c 1.03427,6.44195 1.11624,9.02366 0.30248,9.52659 -0.61394,0.37944 -5.11646,1.76488 -10.00559,3.07877 l -8.88933,2.38889 -1.17673,4.39966 c -1.14719,4.28919 -1.08851,4.50732 2.33685,8.68752 1.93247,2.35833 3.51358,5.3129 3.51358,6.56571 0,2.47409 0.22509,2.47271 -11,0.0675 -2.475,-0.53032 -9.1713,-0.98382 -14.88067,-1.00777 -5.70937,-0.0239 -14.83495,-0.75171 -20.27906,-1.61724 -8.11089,-1.2895 -11.11208,-1.36361 -16.61933,-0.41039 -3.69652,0.63982 -11.67094,1.53042 -17.72094,1.97911 -6.05,0.4487 -14.375,1.53301 -18.5,2.40957 -8.71059,1.85102 -8.93877,1.86147 -11.25,0.5153 z m 5.5,-1.58218 c -0.6875,-0.27741 -1.8125,-0.27741 -2.5,0 -0.6875,0.27741 -0.125,0.50439 1.25,0.50439 1.375,0 1.9375,-0.22698 1.25,-0.50439 z m 7.11175,-5.06247 c -2.474,-1.80903 -3.87403,-1.59884 -6.94501,1.04271 l -2.69478,2.31795 5.6919,-1.0427 c 4.96983,-0.91042 5.47066,-1.20448 3.94789,-2.31796 z m 18.36922,2.03176 c -0.97297,-0.25354 -2.32297,-0.23687 -3,0.0371 -0.67703,0.27393 0.11903,0.48137 1.76903,0.46099 1.65,-0.0204 2.20394,-0.2445 1.23097,-0.49804 z m 42.51903,-0.96929 c -0.6875,-0.27741 -1.8125,-0.27741 -2.5,0 -0.6875,0.27741 -0.125,0.50439 1.25,0.50439 1.375,0 1.9375,-0.22698 1.25,-0.50439 z m 28.75,-1.33772 c -1.16851,-2.18339 -2.53051,-2.56866 -3.50523,-0.99154 -0.48359,0.78247 1.87306,2.39086 4.29041,2.92815 0.15685,0.0349 -0.19648,-0.83661 -0.78518,-1.93661 z m -63.5,-1.00983 c 9.39358,-2.08544 17.17722,-2.22359 27.51126,-0.48828 12.27467,2.06118 20.87533,1.61694 26.75353,-1.38189 8.65551,-4.41572 10.08894,-10.42342 6.7094,-28.12 -1.31292,-6.875 -3.09505,-16.775 -3.96028,-22 -2.43658,-14.71421 -3.73637,-19.99866 -4.92304,-20.01531 -0.59998,-0.008 -0.41587,-0.45153 0.40913,-0.98469 1.33333,-0.86167 1.33333,-0.97699 0,-1.03791 -0.825,-0.0377 2.22721,-1.17054 6.7827,-2.51742 16.78202,-4.96183 28.21801,-12.666 32.86106,-22.13779 3.13819,-6.40187 3.24656,-8.23038 1.99381,-33.64058 -0.78964,-16.01676 -2.57275,-23.82693 -7.65785,-33.54196 -9.23754,-17.64821 -28.25687,-32.66839 -48.30516,-38.14813 -11.30232,-3.08923 -31.96576,-3.116 -43.11797,-0.0559 -21.47404,5.89242 -40.26576,21.29689 -48.68065,39.90585 -4.11062,9.09037 -5.95831,17.08238 -6.97593,30.17379 -0.49165,6.325 -1.18031,14.13929 -1.53034,17.36509 -1.87878,17.31442 8.54611,30.99451 28.42652,37.30275 4.78709,1.51899 8.85101,2.84983 9.03092,2.95742 0.17991,0.1076 -1.14931,7.32343 -2.95383,16.03519 -2.917,14.08248 -3.28607,17.6772 -3.32712,32.40555 -0.0458,16.42508 -0.0228,16.60135 2.69957,20.72211 5.24387,7.93744 14.41353,10.2748 28.25427,7.20206 z M 268.9246,282.18596 c -2.27238,-0.9203 -8.44533,-7.55414 -8.44533,-9.07589 0,-1.78316 2.2107,-0.98739 5.65278,2.0348 4.09436,3.5949 7.34722,3.97318 7.34722,0.85443 0,-1.18006 -0.98665,-6.11842 -2.19255,-10.97412 -2.09045,-8.41741 -2.00285,-11.47571 0.26377,-9.20909 1.24879,1.24879 5.92878,17.88215 5.92878,21.07175 0,2.46088 -3.25002,6.29506 -5.25,6.19364 -0.6875,-0.0349 -2.1746,-0.43784 -3.30467,-0.89552 z m -1.44533,-3.41865 c 0,-0.20765 -0.7875,-0.99515 -1.75,-1.75 -1.58606,-1.24387 -1.62143,-1.2085 -0.37756,0.37756 1.30637,1.66575 2.12756,2.19548 2.12756,1.37244 z m 6.60417,-11.35161 c -0.3323,-0.33229 -0.56864,0.25834 -0.52522,1.3125 0.048,1.16495 0.28494,1.4019 0.60416,0.60417 0.28887,-0.72188 0.25335,-1.58438 -0.0789,-1.91667 z m 51.39305,12.22582 c -0.87839,-1.05839 -1.09044,-3.94419 -0.71645,-9.75 0.63034,-9.78556 2.44448,-16.7917 3.79538,-14.65767 0.76799,1.21318 0.89537,1.21239 0.90854,-0.006 0.008,-0.77916 0.26553,-1.16644 0.57135,-0.86062 0.30583,0.30582 -0.14417,3.25828 -1,6.56101 -0.85582,3.30273 -1.55604,8.09164 -1.55604,10.64201 0,5.52228 1.84334,6.77465 6.24946,4.24589 3.76364,-2.16004 5.75054,-2.12107 5.75054,0.11277 0,4.08458 -11.22423,7.06021 -14.00278,3.71226 z m 0.70851,-12.74665 c -0.23835,-1.2375 -0.43337,-0.225 -0.43337,2.25 0,2.475 0.19502,3.4875 0.43337,2.25 0.23836,-1.2375 0.23836,-3.2625 0,-4.5 z m 0.89844,-5.47917 c -0.33229,-0.33229 -0.56864,0.25834 -0.52522,1.3125 0.048,1.16495 0.28494,1.4019 0.60416,0.60417 0.28887,-0.72188 0.25335,-1.58438 -0.0789,-1.91667 z m 1,-4 c -0.33229,-0.33229 -0.56864,0.25834 -0.52522,1.3125 0.048,1.16495 0.28494,1.4019 0.60416,0.60417 0.28887,-0.72188 0.25335,-1.58438 -0.0789,-1.91667 z m -39.10417,-67.42013 c -2.51536,-1.48378 -3.4652,-2.8741 -3.48469,-5.1007 -0.0208,-2.38341 2.66553,-2.21486 3.98469,0.25 1.33513,2.49472 8.45035,2.87474 9.36163,0.5 0.31658,-0.825 1.20962,-1.5 1.98454,-1.5 0.77492,0 1.96914,0.675 2.65383,1.5 1.54697,1.86398 7.87589,1.987 8.57442,0.16667 0.2814,-0.73334 1.16728,-1.33334 1.96861,-1.33334 2.1024,0 1.79051,2.33313 -0.63631,4.75995 -1.73438,1.73438 -2.89166,1.99627 -6.75,1.5275 -5.64212,-0.68549 -5.55757,-0.68489 -11.15672,-0.078 -2.56672,0.27819 -5.35923,-0.0191 -6.5,-0.69204 z m 46.13486,-1.92328 c -3.57728,-2.81388 -3.74613,-9.53481 -0.32041,-12.75311 4.46407,-4.19377 11.90624,-1.99896 13.20033,3.89298 1.79878,8.18982 -6.48644,13.88924 -12.87992,8.86013 z m 8.32836,-3.38827 c 2.08486,-2.21923 2.18825,-2.75925 1.053,-5.5 -2.23417,-5.39376 -9.26622,-3.52624 -9.26622,2.46085 0,5.50872 4.37301,7.12687 8.21322,3.03915 z m -84.37433,1.38412 c -3.32167,-3.94758 -3.37185,-8.23122 -0.13434,-11.46872 3.05839,-3.0584 6.65449,-3.13178 10.02345,-0.20455 5.87029,5.10061 3.27857,14.75 -3.96169,14.75 -2.50034,0 -3.9885,-0.77245 -5.92742,-3.07673 z m 9.21111,-1.12327 c 2.85702,-2.85702 -0.0879,-9.8 -4.1567,-9.8 -2.92908,0 -4.6433,1.79838 -4.6433,4.87126 0,4.81482 5.71374,8.015 8.8,4.92874 z m 30.3875,128.51689 c -0.72188,-0.28887 -1.58438,-0.25335 -1.91667,0.0789 -0.33229,0.33229 0.25834,0.56864 1.3125,0.52522 1.16495,-0.048 1.4019,-0.28494 0.60417,-0.60416 z m 63.77317,-20.94421 c 6.54289,-1.47757 7.15198,-1.82266 6.61893,-3.75 -0.32289,-1.16747 -0.87643,-5.38518 -1.23007,-9.37268 l -0.643,-7.25 h 8.56495 c 4.71072,0 9.27675,-0.27314 10.14673,-0.60699 1.33248,-0.51132 1.58179,-2.69954 1.58179,-13.88337 0,-11.77192 0.19831,-13.33753 1.75,-13.81603 0.9625,-0.29681 6.025,-2.18381 11.25,-4.19333 9.54855,-3.67235 17.86562,-6.40714 25.75,-8.46701 l 4.25,-1.11036 0.062,-11.71145 c 0.0341,-6.4413 0.64563,-23.86146 1.35891,-38.71146 0.71329,-14.85 1.21892,-27.10395 1.12363,-27.231 -0.34287,-0.45716 -28.26748,14.08412 -38.40125,19.99682 l -10.35667,6.04276 0.73091,6.59571 c 0.40201,3.62764 0.78751,10.87071 0.85668,16.09571 0.10982,8.2965 -0.20256,10.19676 -2.46585,15 -2.77157,5.88192 -9.15898,12.74294 -14.58245,15.66366 -3.25239,1.75153 -3.32595,1.9375 -3.32595,8.40818 0,3.63937 -0.29392,11.42076 -0.65315,17.29198 -0.6261,10.23274 -0.75391,10.70024 -3.0853,11.28538 -2.29329,0.57558 -2.413,0.95854 -2.09685,6.70769 l 0.3353,6.09725 -3.85201,1.82883 c -3.17206,1.50601 -3.74816,2.21614 -3.26366,4.02293 0.3236,1.20676 0.59451,3.2066 0.60202,4.4441 0.0163,2.68572 -0.11942,2.67631 8.97432,0.62268 z m -7.36323,-19.14078 c -0.68697,-5.84502 0.29796,-8.2319 3.39682,-8.2319 1.54859,0 1.83257,-1.61485 2.47429,-14.06993 0.39871,-7.73846 0.55003,-14.24483 0.33627,-14.45859 -0.42845,-0.42844 -14.48283,3.8732 -15.28923,4.6796 -0.27701,0.27701 0.62453,7.44384 2.00342,15.92629 1.3789,8.48245 2.75728,17.05988 3.06307,19.06096 0.46866,3.0669 0.87815,3.55408 2.60723,3.10191 1.85836,-0.48597 1.99077,-1.05095 1.40813,-6.00834 z m 14.00673,1.03893 c -0.33229,-0.33229 -0.56864,0.25834 -0.52522,1.3125 0.048,1.16495 0.28494,1.4019 0.60416,0.60417 0.28887,-0.72188 0.25335,-1.58438 -0.0789,-1.91667 z m -12,-5 c -0.33229,-0.33229 -0.56864,0.25834 -0.52522,1.3125 0.048,1.16495 0.28494,1.4019 0.60416,0.60417 0.28887,-0.72188 0.25335,-1.58438 -0.0789,-1.91667 z m 32.11208,-17.02083 c -0.22912,-1.5125 -0.41659,-0.275 -0.41659,2.75 0,3.025 0.18747,4.2625 0.41659,2.75 0.22913,-1.5125 0.22913,-3.9875 0,-5.5 z m -26.06031,-2.51903 c -0.27393,-0.67703 -0.48137,0.11903 -0.46099,1.76903 0.0204,1.65 0.2445,2.20394 0.49804,1.23097 0.25354,-0.97297 0.23687,-2.32297 -0.0371,-3 z m 26.72562,-3.28291 c 0.34149,-0.88992 0.17385,-1.29132 -0.39301,-0.94098 -0.5437,0.33602 -0.98855,1.0344 -0.98855,1.55194 0,1.43843 0.71677,1.12146 1.38156,-0.61096 z M 237.47927,228.76731 c 0,-0.20765 -0.7875,-0.99515 -1.75,-1.75 -1.58606,-1.24387 -1.62143,-1.2085 -0.37756,0.37756 1.30637,1.66575 2.12756,2.19548 2.12756,1.37244 z M 433.185,203.89487 c -0.23835,-1.2375 -0.43337,-0.225 -0.43337,2.25 0,2.475 0.19502,3.4875 0.43337,2.25 0.23836,-1.2375 0.23836,-3.2625 0,-4.5 z m -50.0164,-24.5 c -0.25153,-0.9625 -0.45733,-0.175 -0.45733,1.75 0,1.925 0.2058,2.7125 0.45733,1.75 0.25152,-0.9625 0.25152,-2.5375 0,-3.5 z m 50.96661,0.48097 c -0.27393,-0.67703 -0.48137,0.11903 -0.46099,1.76903 0.0204,1.65 0.2445,2.20394 0.49804,1.23097 0.25354,-0.97297 0.23687,-2.32297 -0.0371,-3 z m 1,-28 c -0.27393,-0.67703 -0.48137,0.11903 -0.46099,1.76903 0.0204,1.65 0.2445,2.20394 0.49804,1.23097 0.25354,-0.97297 0.23687,-2.32297 -0.0371,-3 z m -69.65594,-20.0348 c 0,-0.16711 -1.6875,-1.85461 -3.75,-3.75 l -3.75,-3.44617 3.44617,3.75 c 3.20761,3.49042 4.05383,4.20979 4.05383,3.44617 z m 10.13572,-5.94617 c 7.46779,-7.21612 14.88672,-17.99939 18.49769,-26.88603 2.47853,-6.0997 2.48987,-6.25379 0.79333,-10.77608 -2.54439,-6.78227 -7.9722,-17.17715 -10.70605,-20.50333 l -2.39627,-2.91545 -8.17491,7.81027 c -12.64628,12.08219 -20.55736,23.71981 -24.66837,36.28847 l -1.69478,5.1815 3.27593,2.75651 c 1.80176,1.51609 4.88733,3.96173 6.85682,5.43476 1.96949,1.47304 5.15589,4.27013 7.08089,6.21576 1.925,1.94563 3.76274,3.56139 4.08388,3.59057 0.32113,0.0292 3.49446,-2.75945 7.05184,-6.19695 z m -139.63572,-0.75 c -2.14824,-2.2 -4.1309,-4 -4.4059,-4 -0.275,0 1.25766,1.8 3.4059,4 2.14824,2.2 4.1309,4 4.4059,4 0.275,0 -1.25766,-1.8 -3.4059,-4 z m 11,2 c 0.99549,-1.1 1.58498,-2 1.30998,-2 -0.275,0 -1.31449,0.9 -2.30998,2 -0.99549,1.1 -1.58498,2 -1.30998,2 0.275,0 1.31449,-0.9 2.30998,-2 z m 12.30646,-12.32255 c 5.11353,-3.06193 5.28428,-3.3047 4.69648,-6.67744 -0.89038,-5.109 -6.89052,-17.38778 -11.98615,-24.52868 -5.0949,-7.13986 -14.2912,-16.47132 -16.23275,-16.47132 -2.26491,0 -13.78655,12.34088 -16.22563,17.37934 -2.10306,4.34435 -2.20459,5.18963 -1.07604,8.95881 2.77494,9.26787 8.24133,18.11824 16.28735,26.37007 l 8.0035,8.20823 5.61339,-5.03078 c 3.08736,-2.76693 8.0013,-6.46063 10.91985,-8.20823 z m 37.38104,-10.36055 c -0.72188,-0.28887 -1.58438,-0.25335 -1.91667,0.0789 -0.33229,0.3323 0.25834,0.56864 1.3125,0.52522 1.16495,-0.048 1.4019,-0.28494 0.60417,-0.60416 z m 15.0625,0.0208 c -0.6875,-0.27741 -1.8125,-0.27741 -2.5,0 -0.6875,0.27741 -0.125,0.50439 1.25,0.50439 1.375,0 1.9375,-0.22698 1.25,-0.50439 z m 89.13741,-22.82901 c 0.89681,-3.5702 1.91789,-11.18728 2.26907,-16.92684 l 0.6385,-10.43556 -4.21686,0.94747 c -2.31928,0.52111 -6.86905,2.28629 -10.11061,3.92262 l -5.89374,2.97515 4.86022,6.42123 c 4.18545,5.52979 9.06601,15.55614 9.06601,18.62476 0,0.52937 0.39529,0.96249 0.87843,0.96249 0.48313,0 1.61217,-2.92108 2.50898,-6.49129 z M 227.33366,70.00026 c 4.13189,-3.78039 5.10422,-5.20033 4.25868,-6.21915 -0.60265,-0.72614 -0.76212,-1.68849 -0.35439,-2.13857 0.40772,-0.45007 0.22981,-0.52612 -0.39537,-0.169 -0.62518,0.35712 -1.71111,-0.0428 -2.41318,-0.88875 -0.70206,-0.84593 -3.64957,-2.70005 -6.55002,-4.12026 -5.77823,-2.82933 -8.95715,-2.55779 -8.10718,0.6925 0.28591,1.09332 0.17765,1.98785 -0.24056,1.98785 -1.24571,0 -1.24034,14.25674 0.008,21.4256 l 1.15933,6.6574 3.64012,-6.16436 c 2.00207,-3.39041 6.0496,-8.36887 8.99451,-11.06326 z"
       id="path8540"
       inkscape:connector-curvature="0" />
  </g>
</svg>
