<?xml version="1.0" standalone="no"?>
<!DOCTYPE svg PUBLIC "-//W3C//DTD SVG 20010904//EN"
 "http://www.w3.org/TR/2001/REC-SVG-20010904/DTD/svg10.dtd">
<svg version="1.0" xmlns="http://www.w3.org/2000/svg"
 width="1236.000000pt" height="804.000000pt" viewBox="0 0 1236.000000 804.000000"
 preserveAspectRatio="xMidYMid meet">
<metadata>
Created by potrace 1.16, written by Peter Selinger 2001-2019
</metadata>
<g transform="translate(0.000000,804.000000) scale(0.100000,-0.100000)"
fill="#000000" stroke="none">
<path d="M8768 8033 c7 -3 16 -2 19 1 4 3 -2 6 -13 5 -11 0 -14 -3 -6 -6z
M9083 8033 c15 -2 37 -2 50 0 12 2 0 4 -28 4 -27 0 -38 -2 -22 -4z M9705 8030
c3 -5 12 -10 20 -10 8 0 17 5 20 10 4 6 -5 10 -20 10 -15 0 -24 -4 -20 -10z
M9798 8033 c23 -2 59 -2 80 0 20 2 1 4 -43 4 -44 0 -61 -2 -37 -4z M9995 8030
c11 -5 43 -9 70 -9 28 0 59 4 70 9 13 6 -11 9 -70 9 -59 0 -83 -3 -70 -9z
M11188 8033 c7 -3 16 -2 19 1 4 3 -2 6 -13 5 -11 0 -14 -3 -6 -6z M11388 8033
c7 -3 16 -2 19 1 4 3 -2 6 -13 5 -11 0 -14 -3 -6 -6z M11448 8033 c7 -3 16 -2
19 1 4 3 -2 6 -13 5 -11 0 -14 -3 -6 -6z M11705 8030 c3 -5 12 -10 20 -10 8 0
17 5 20 10 4 6 -5 10 -20 10 -15 0 -24 -4 -20 -10z M11888 8033 c7 -3 16 -2
19 1 4 3 -2 6 -13 5 -11 0 -14 -3 -6 -6z M12330 8031 c0 -17 12 -41 21 -41 5
0 9 11 9 25 0 16 -6 25 -15 25 -8 0 -15 -4 -15 -9z M12340 7935 c0 -8 5 -15
10 -15 6 0 10 7 10 15 0 8 -4 15 -10 15 -5 0 -10 -7 -10 -15z M4507 6764
c-102 -14 -236 -43 -322 -71 -27 -9 -160 -70 -295 -137 l-245 -121 -210 -5
c-175 -4 -215 -8 -242 -23 -34 -18 -53 -44 -53 -73 0 -26 50 -124 87 -171 51
-62 196 -155 283 -181 52 -16 118 -41 167 -63 23 -10 91 -26 150 -34 60 -9
146 -22 193 -30 222 -37 259 -40 278 -22 15 16 15 19 2 27 -26 17 -82 31 -157
41 -40 5 -106 13 -145 18 -140 17 -224 30 -243 36 -28 9 -174 65 -210 81 -16
7 -55 22 -85 34 -129 51 -271 212 -242 275 13 28 37 31 280 40 161 6 163 6
250 44 48 21 111 53 140 70 29 17 58 31 63 31 12 0 65 28 89 46 20 15 256 94
281 94 11 0 30 5 42 11 34 19 183 40 315 46 102 4 139 1 220 -17 176 -39 230
-53 277 -70 11 -5 45 -15 75 -24 82 -24 254 -130 374 -230 56 -47 269 -263
300 -304 12 -15 49 -56 84 -90 34 -34 62 -66 62 -71 0 -5 18 -28 41 -52 22
-24 60 -74 84 -110 25 -37 52 -72 60 -79 8 -7 15 -16 15 -21 0 -5 20 -38 45
-75 25 -36 45 -67 45 -69 0 -2 25 -47 55 -100 30 -52 55 -100 55 -107 0 -6 6
-19 14 -27 7 -9 26 -45 41 -81 15 -36 42 -96 60 -135 52 -109 102 -235 131
-326 14 -46 30 -97 36 -114 5 -16 21 -73 35 -125 13 -52 29 -99 34 -104 5 -6
9 -22 9 -37 0 -14 13 -57 29 -95 85 -201 121 -293 121 -304 0 -6 6 -24 14 -38
37 -67 96 -196 96 -207 0 -33 210 -375 230 -375 8 0 60 -72 60 -83 0 -4 -5 -7
-10 -7 -14 0 -137 125 -180 183 -19 26 -43 58 -53 70 -9 12 -63 91 -119 176
-56 84 -127 179 -158 210 -31 31 -75 81 -98 112 -44 59 -156 164 -227 214 -43
30 -184 143 -303 242 -34 29 -66 53 -70 53 -4 0 -34 26 -67 58 -33 31 -69 64
-81 72 -216 155 -395 258 -539 313 -55 20 -122 52 -150 71 -27 18 -71 45 -96
59 -25 14 -64 41 -87 59 -22 18 -60 44 -83 58 -24 14 -59 39 -78 56 -20 17
-52 40 -72 51 -40 21 -81 51 -143 106 -24 20 -46 37 -50 37 -4 0 -58 51 -121
114 -120 121 -157 142 -189 107 -23 -25 -21 -28 27 -50 45 -21 174 -132 220
-190 16 -19 52 -51 81 -71 28 -19 66 -48 84 -65 18 -16 48 -38 66 -50 19 -11
94 -60 166 -108 73 -49 139 -91 149 -95 9 -3 46 -25 82 -48 37 -23 91 -52 120
-64 30 -12 81 -34 114 -50 33 -15 70 -31 83 -35 12 -3 43 -22 67 -41 25 -19
48 -34 50 -34 6 0 67 -41 75 -51 3 -3 39 -25 80 -49 41 -24 102 -67 135 -94
32 -28 66 -57 75 -64 55 -47 200 -162 203 -162 3 0 24 -18 48 -40 24 -22 49
-40 55 -40 6 0 19 -9 30 -21 10 -12 46 -41 79 -66 82 -61 170 -147 218 -213
23 -30 64 -80 93 -110 64 -67 106 -121 178 -225 108 -158 142 -204 211 -282
91 -102 137 -138 325 -253 58 -36 130 -83 160 -105 78 -58 197 -129 250 -148
50 -19 204 -161 230 -212 8 -17 20 -33 26 -37 7 -4 15 -19 18 -34 4 -14 21
-51 39 -82 85 -150 124 -355 106 -557 -12 -134 -17 -157 -37 -153 -17 3 -70
90 -71 117 -2 22 -79 181 -116 237 -19 29 -35 56 -35 60 0 15 -124 181 -164
217 -36 34 -142 92 -231 125 -37 14 -147 32 -197 32 -28 0 -42 -7 -62 -31 -14
-17 -26 -38 -26 -48 0 -27 -81 -217 -118 -277 -32 -50 -88 -130 -111 -157 -15
-17 -52 -68 -81 -112 -28 -44 -67 -99 -86 -122 -19 -23 -45 -63 -59 -90 -14
-26 -32 -57 -41 -68 -15 -20 -15 -20 -30 -1 -38 52 14 381 76 476 77 118 122
428 90 616 -13 71 -29 142 -40 169 -4 11 -13 38 -19 60 -26 97 -165 305 -225
337 -24 13 -89 67 -180 149 -33 30 -90 79 -126 108 -36 29 -99 85 -141 125
-42 39 -98 87 -123 106 -26 19 -56 43 -66 54 -20 19 -26 24 -126 90 -32 22
-61 42 -64 45 -3 4 -36 26 -75 50 -38 24 -96 61 -128 83 -32 21 -60 38 -64 38
-3 0 -28 16 -54 35 -27 19 -51 35 -54 35 -4 0 -102 69 -172 123 -24 18 -53 45
-65 61 -12 16 -55 55 -97 88 -42 33 -80 67 -84 74 -4 8 -3 40 2 71 15 81 31
281 25 297 -7 18 -29 27 -48 20 -11 -4 -16 -32 -20 -112 -8 -195 -25 -395 -36
-442 -8 -35 -8 -73 -1 -143 6 -53 11 -129 12 -169 0 -40 6 -106 13 -147 13
-68 12 -75 -5 -92 -16 -16 -23 -17 -46 -7 -53 23 -108 66 -179 139 -147 153
-232 426 -194 622 9 45 10 87 3 152 -8 71 -7 96 3 117 15 29 11 48 -17 88 -13
19 -19 57 -24 155 -8 131 -22 185 -49 185 -32 0 -35 -66 -10 -232 10 -69 -7
-70 -125 -4 -56 31 -104 56 -107 56 -3 0 -40 16 -82 36 -140 66 -196 92 -267
124 -251 112 -282 134 -440 310 -32 36 -101 111 -153 168 -115 123 -111 118
-176 245 -39 78 -57 103 -74 105 -35 5 -28 -33 28 -145 37 -73 78 -132 153
-220 236 -277 288 -332 357 -379 53 -36 193 -108 265 -135 28 -11 93 -40 145
-65 315 -150 445 -214 460 -227 24 -20 29 -70 39 -352 8 -222 10 -246 35 -320
54 -161 99 -237 195 -334 134 -136 217 -174 291 -136 39 20 45 50 32 159 -6
50 -17 172 -23 271 -12 181 -7 244 20 253 7 2 66 -50 132 -117 66 -67 124
-121 130 -121 6 0 29 -13 52 -29 48 -33 198 -130 336 -216 51 -32 115 -76 142
-97 27 -21 51 -38 54 -38 14 0 147 -109 301 -247 38 -34 91 -79 118 -100 27
-21 78 -65 112 -98 35 -33 90 -80 124 -105 78 -58 207 -202 232 -260 87 -199
112 -345 98 -563 -5 -70 -11 -131 -15 -136 -3 -6 -10 -36 -16 -68 -6 -32 -29
-95 -50 -141 -56 -115 -72 -184 -96 -399 -5 -50 17 -173 39 -216 23 -44 93 7
129 93 20 49 89 149 175 257 14 17 33 44 41 59 8 16 26 44 41 63 85 109 105
138 150 227 28 55 62 133 76 174 15 41 33 80 42 87 17 13 62 9 139 -13 53 -15
153 -54 170 -66 6 -4 30 -23 55 -41 43 -32 137 -155 182 -240 13 -23 35 -58
50 -78 15 -19 34 -54 42 -76 33 -94 123 -277 146 -298 24 -21 61 -4 83 38 24
46 57 226 57 311 0 72 -22 229 -41 296 -37 127 -157 351 -221 413 -61 59 -149
132 -184 151 -16 9 -36 20 -44 25 -8 5 -39 21 -68 35 -29 15 -72 41 -96 59
-24 17 -70 50 -101 72 -90 63 -172 139 -254 236 -30 35 -60 69 -68 75 -7 6
-13 15 -13 19 0 5 -7 16 -15 25 -27 30 -115 199 -229 443 -20 43 -36 80 -36
83 0 3 -6 20 -14 37 -14 29 -95 228 -126 305 -7 17 -25 80 -40 140 -40 156
-95 329 -128 403 -16 35 -37 87 -47 114 -10 28 -26 69 -37 92 -10 24 -27 62
-37 85 -106 246 -242 479 -379 652 -35 43 -61 83 -59 90 6 19 156 77 235 91
43 8 149 19 237 26 141 11 171 10 250 -5 95 -17 143 -20 169 -10 21 8 22 94 2
132 -22 41 -116 128 -161 148 -22 9 -49 25 -60 34 -11 9 -40 25 -65 35 -25 10
-63 26 -85 36 -95 41 -183 66 -305 88 -25 5 -74 15 -110 24 -36 8 -170 23
-298 33 -198 15 -242 16 -300 5 -133 -26 -124 -26 -183 18 -30 23 -67 48 -84
56 -16 9 -46 24 -65 35 -19 11 -42 20 -50 20 -9 0 -51 14 -95 31 -44 17 -123
39 -175 50 -52 10 -120 25 -150 34 -68 18 -245 18 -383 -1z m1503 -308 c155
-5 307 -21 345 -36 11 -4 58 -17 105 -29 135 -35 193 -53 220 -66 14 -7 43
-21 65 -30 144 -62 275 -172 275 -231 0 -32 -25 -36 -99 -18 -53 14 -93 16
-204 11 -216 -10 -311 -25 -441 -68 -65 -21 -126 -39 -137 -39 -10 0 -29 15
-41 33 -34 50 -320 346 -374 387 -69 53 -87 71 -77 80 12 12 58 16 138 13 39
-1 140 -5 225 -7z M4075 6329 c-53 -29 -95 -63 -95 -76 0 -8 7 -30 15 -49 8
-19 22 -51 31 -71 39 -89 137 -144 217 -122 41 11 93 65 100 103 5 31 -13 104
-37 151 -16 30 -76 75 -100 75 -24 0 -19 -13 15 -40 38 -32 61 -73 70 -130 9
-60 -13 -98 -70 -121 -17 -7 -113 28 -123 44 -16 26 -8 47 17 47 60 0 85 75
41 127 -13 15 -25 37 -27 48 -5 23 -26 29 -54 14z M4327 5823 c-15 -14 -6 -45
13 -50 12 -3 27 -18 36 -34 14 -28 37 -38 48 -20 3 4 -1 16 -8 27 -8 10 -12
24 -9 31 3 7 -1 13 -9 13 -8 0 -23 9 -33 20 -19 21 -28 24 -38 13z M4650 5330
c0 -5 5 -10 10 -10 6 0 10 5 10 10 0 6 -4 10 -10 10 -5 0 -10 -4 -10 -10z
M7985 1859 c-31 -15 -113 -205 -150 -344 -7 -27 -33 -89 -59 -137 -25 -48 -46
-93 -46 -100 0 -15 -54 -124 -71 -145 -20 -23 -40 -14 -57 26 -14 32 -23 40
-50 45 -41 6 -57 -4 -97 -56 -16 -22 -56 -68 -89 -103 -32 -35 -64 -74 -70
-87 -6 -13 -20 -23 -31 -23 -18 0 -20 8 -22 115 -3 141 -17 213 -47 245 -40
43 -107 27 -157 -37 -27 -34 -89 -158 -89 -177 0 -6 -11 -23 -25 -38 -41 -47
-42 -49 -50 -81 -3 -18 -13 -32 -20 -32 -8 0 -38 46 -66 101 -29 56 -75 130
-103 165 -28 35 -62 85 -76 111 -13 27 -46 78 -72 116 -27 37 -48 71 -48 75 0
5 -11 14 -24 20 -21 9 -26 8 -31 -7 -6 -20 8 -67 22 -72 5 -2 37 -49 73 -104
35 -55 92 -143 126 -196 35 -53 66 -109 70 -125 4 -16 15 -45 25 -64 9 -19 25
-52 35 -72 12 -24 29 -41 49 -48 26 -10 32 -8 50 13 46 55 65 82 65 93 0 7 11
34 24 61 14 26 41 84 61 128 36 79 87 145 112 145 7 0 17 -8 22 -19 13 -23 19
-275 8 -317 -19 -75 82 -107 145 -47 16 15 39 44 50 63 12 19 26 40 33 45 18
15 113 135 118 148 2 6 11 8 20 4 13 -5 17 -19 17 -65 0 -52 3 -60 25 -72 22
-12 28 -10 59 13 45 35 65 64 116 172 23 50 46 98 51 107 5 10 9 23 9 29 0 6
8 23 19 37 10 15 29 59 41 97 20 63 30 92 70 205 33 90 44 111 59 107 9 -2 14
-10 12 -18 -2 -8 -7 -57 -11 -109 -4 -52 -14 -113 -23 -135 -8 -22 -18 -64
-22 -94 -7 -61 -37 -150 -84 -254 -38 -84 -41 -138 -8 -156 20 -11 30 -8 82
24 33 19 73 49 90 65 17 17 34 30 39 30 4 0 22 15 39 33 65 65 140 123 195
149 69 33 72 34 72 7 0 -21 -57 -109 -71 -109 -5 0 -41 -46 -81 -102 -40 -57
-80 -109 -89 -115 -27 -20 -71 -102 -67 -126 2 -12 14 -27 26 -33 47 -23 47
-30 3 -80 -23 -27 -54 -68 -69 -91 -15 -24 -48 -65 -74 -90 -54 -52 -59 -70
-23 -79 39 -10 85 25 131 96 23 36 67 95 98 132 63 75 71 107 30 128 -60 33
-51 72 41 165 30 31 63 68 74 83 10 15 35 44 55 65 20 21 36 46 36 56 0 10 9
28 20 41 24 28 27 96 4 128 -19 27 -77 30 -115 4 -14 -9 -48 -32 -75 -50 -27
-18 -85 -66 -129 -107 -120 -111 -138 -125 -163 -132 -43 -11 -45 10 -8 83 32
64 48 114 91 284 10 36 24 129 33 207 14 132 14 143 -2 167 -17 27 -45 32 -81
15z M9231 1648 c2 -13 -5 -35 -15 -50 -11 -17 -21 -60 -27 -123 -5 -54 -13
-113 -19 -133 -8 -29 -6 -42 8 -66 24 -41 39 -43 40 -5 0 17 9 40 19 51 17 19
17 20 0 29 -10 6 -14 15 -10 22 5 7 13 30 18 52 10 39 12 40 65 51 58 11 88 3
150 -38 52 -35 159 -61 226 -55 35 2 65 2 68 0 3 -3 25 -7 49 -9 24 -2 78 -10
118 -19 41 -8 106 -15 145 -15 44 0 77 -5 89 -14 15 -11 45 -13 122 -10 57 2
103 0 103 -5 0 -5 24 -11 53 -14 91 -11 122 -19 134 -34 9 -12 22 -14 53 -9
37 6 41 4 50 -19 6 -17 17 -25 34 -25 13 0 29 -6 35 -14 6 -7 25 -16 42 -20
17 -3 44 -17 61 -31 16 -14 38 -25 48 -25 10 0 22 -5 26 -11 3 -6 22 -17 40
-25 19 -8 34 -21 34 -29 0 -9 11 -20 25 -25 14 -5 28 -18 31 -27 3 -10 10 -26
15 -35 5 -10 9 -33 9 -51 0 -18 5 -38 12 -45 9 -9 9 -15 0 -24 -7 -7 -12 -20
-12 -30 0 -10 -4 -18 -10 -18 -5 0 -15 -18 -21 -40 -11 -35 -16 -40 -43 -40
-17 0 -41 -8 -54 -18 -19 -15 -20 -20 -10 -34 7 -8 32 -18 55 -21 50 -6 87 16
98 60 3 14 19 45 35 67 l29 41 -8 110 -9 109 -44 38 c-23 20 -55 40 -70 43
-16 4 -28 13 -28 21 0 7 -12 16 -27 19 -16 4 -54 20 -85 36 -31 16 -63 29 -71
29 -8 0 -22 11 -30 24 -9 13 -33 30 -54 36 -21 7 -42 16 -48 21 -5 5 -22 9
-38 9 -15 0 -38 5 -50 12 -44 23 -176 42 -312 44 -161 3 -295 18 -357 40 -30
11 -80 15 -170 15 -111 0 -130 2 -151 20 -14 10 -40 22 -59 26 -60 12 -185 84
-218 126 -12 15 -28 27 -36 27 -8 0 -14 10 -14 25 0 19 -5 25 -21 25 -15 0
-20 -6 -18 -22z M6307 1609 c-15 -21 -13 -27 27 -103 24 -45 51 -103 60 -129
9 -27 25 -67 36 -90 11 -22 20 -56 20 -74 0 -18 4 -41 9 -51 5 -9 14 -48 21
-86 6 -37 16 -74 23 -81 21 -20 67 -270 67 -359 0 -49 24 -82 41 -55 5 8 9 31
9 51 0 20 4 39 8 42 4 2 30 -10 57 -28 28 -18 84 -47 125 -64 41 -17 102 -44
135 -61 93 -48 171 -68 374 -96 122 -17 319 -20 388 -5 53 12 143 72 143 95 0
29 -29 27 -92 -5 -56 -29 -76 -33 -186 -41 -89 -6 -151 -4 -225 6 -136 18
-257 42 -271 54 -6 5 -34 15 -61 22 -28 6 -73 24 -100 39 -28 15 -73 34 -101
44 -27 9 -67 28 -88 42 -29 20 -46 25 -72 21 l-34 -6 0 68 c0 38 -7 88 -15
111 -8 23 -15 60 -15 81 0 21 -5 41 -10 44 -6 4 -8 16 -5 26 4 11 1 26 -5 34
-6 7 -16 44 -21 81 -9 67 -15 83 -57 157 -12 21 -22 44 -22 52 0 8 -13 41 -29
72 -16 32 -42 86 -56 120 -15 34 -35 69 -45 78 -17 15 -19 15 -33 -6z M5748
1565 c-3 -3 -41 -9 -84 -14 l-79 -8 81 -2 c44 0 84 -4 88 -8 4 -5 -25 -16 -66
-26 -40 -10 -98 -25 -128 -32 -30 -8 -74 -21 -97 -29 -23 -9 -73 -20 -110 -25
-114 -16 -166 -28 -295 -65 -127 -37 -167 -49 -378 -115 -69 -22 -148 -46
-175 -54 -28 -8 -87 -34 -133 -58 -77 -40 -82 -45 -82 -75 0 -17 7 -37 15 -44
8 -7 15 -26 15 -42 0 -67 22 -122 66 -165 24 -23 54 -44 66 -48 83 -23 278
-120 320 -160 18 -17 53 -44 78 -60 65 -43 87 -66 113 -121 36 -77 49 -94 89
-115 66 -34 153 -26 338 31 52 16 122 34 155 41 140 27 157 36 115 59 -14 7
-26 8 -39 0 -11 -5 -33 -10 -50 -10 -16 0 -45 -9 -64 -20 -18 -11 -53 -24 -78
-29 -24 -5 -73 -16 -109 -24 -36 -8 -94 -17 -130 -21 -55 -5 -70 -3 -98 14
-18 11 -40 36 -48 55 -26 64 -94 151 -133 173 -22 12 -60 40 -86 61 -53 44
-197 121 -293 157 -85 33 -106 48 -125 92 -12 28 -37 145 -37 173 0 5 44 28
100 52 84 37 356 127 382 127 9 0 54 13 100 29 111 39 255 77 356 96 46 8 88
17 92 20 5 3 55 14 112 25 57 10 120 26 140 34 22 10 67 16 110 16 40 0 78 4
84 8 8 4 -4 20 -32 42 -24 19 -44 43 -44 52 0 17 -11 24 -22 13z M5547 1543
c-12 -11 -8 -23 8 -23 8 0 15 7 15 15 0 16 -12 20 -23 8z M5375 1500 c-4 -6 7
-10 24 -10 17 0 31 5 31 10 0 6 -11 10 -24 10 -14 0 -28 -4 -31 -10z M5270
1475 c-7 -8 -8 -15 -2 -15 5 0 15 7 22 15 7 8 8 15 2 15 -5 0 -15 -7 -22 -15z
M5857 1415 c-4 -8 -14 -15 -23 -15 -13 0 -15 -6 -9 -27 3 -16 11 -29 16 -31 5
-2 9 -10 9 -19 0 -8 7 -13 18 -11 14 3 17 14 17 57 0 53 -16 79 -28 46z M6280
1320 c0 -13 11 -13 30 0 12 8 11 10 -7 10 -13 0 -23 -4 -23 -10z M6226 1311
c-18 -7 -18 -8 -3 -14 21 -8 49 2 41 14 -6 10 -12 10 -38 0z M9676 1311 c-16
-25 36 -72 129 -118 43 -22 67 -26 280 -48 191 -21 249 -41 313 -111 36 -39
70 -63 119 -85 100 -45 242 -129 259 -153 7 -11 14 -28 14 -37 0 -18 -17 -25
-170 -74 -82 -27 -104 -31 -275 -55 -395 -56 -395 -56 -395 -37 0 19 15 24
105 37 39 5 93 15 120 23 48 13 49 14 21 21 -37 9 -25 20 27 23 97 5 173 14
192 23 11 4 31 11 45 14 14 3 34 12 45 21 19 15 17 16 -30 11 -27 -3 -98 -6
-156 -8 -73 -2 -113 -8 -130 -19 -37 -24 -136 -49 -214 -55 -16 -1 -73 -9
-125 -18 -52 -9 -133 -16 -180 -16 -153 2 -150 3 -150 -22 0 -13 4 -29 9 -37
13 -20 106 -31 266 -30 106 0 147 -3 170 -15 25 -12 47 -13 135 -5 58 5 130
14 161 19 30 6 71 10 90 10 55 0 197 28 284 55 44 13 110 32 147 41 64 16 68
19 74 50 3 18 1 48 -5 67 -12 36 -81 100 -136 127 -16 8 -50 28 -75 45 -25 16
-67 40 -93 52 -27 13 -65 38 -85 57 -69 65 -84 75 -138 96 -72 27 -187 50
-249 50 -61 0 -211 24 -245 39 -14 6 -45 24 -70 40 -47 30 -75 38 -84 22z
M6327 1304 c-4 -4 -4 -10 -1 -15 6 -10 34 0 34 12 0 10 -24 12 -33 3z M6112
1278 c3 -7 13 -15 24 -17 16 -3 17 -1 5 13 -16 19 -34 21 -29 4z M6004 1256
c-15 -12 -17 -17 -6 -28 15 -15 45 0 50 26 4 20 -18 21 -44 2z M6236 1260
c-15 -5 -36 -15 -45 -23 -9 -8 -31 -18 -48 -22 -18 -3 -35 -11 -38 -16 -4 -5
-36 -23 -73 -40 -116 -54 -133 -63 -169 -94 l-35 -30 27 -50 c66 -118 122
-155 236 -155 34 0 79 -5 99 -11 46 -14 130 -4 130 15 0 27 -34 40 -143 52
-206 23 -195 20 -228 72 -36 56 -34 72 8 93 18 9 38 21 45 27 7 5 53 26 102
47 50 20 102 46 117 58 14 12 41 30 58 39 61 33 31 60 -43 38z M5950 1240 c0
-5 7 -10 16 -10 8 0 12 5 9 10 -3 6 -10 10 -16 10 -5 0 -9 -4 -9 -10z M8734
1227 c-10 -28 3 -34 98 -41 51 -3 127 -9 168 -11 41 -3 88 -8 103 -10 17 -3
26 -1 22 5 -14 23 -86 43 -180 50 -55 5 -124 12 -152 15 -43 6 -54 5 -59 -8z
M8601 1156 c-19 -23 -7 -33 72 -56 39 -12 81 -26 92 -31 11 -4 51 -16 90 -25
38 -9 77 -20 85 -25 8 -4 36 -15 62 -24 66 -23 84 -49 91 -136 7 -78 -8 -119
-44 -119 -10 0 -38 -9 -61 -19 -24 -11 -56 -23 -71 -26 -23 -5 -26 -9 -17 -20
16 -19 -4 -29 -31 -15 -11 6 -27 9 -34 6 -8 -3 -17 -1 -20 4 -10 16 -51 12
-66 -6 -9 -11 -22 -14 -42 -10 -22 5 -33 1 -42 -12 -20 -27 -103 -18 -117 14
-6 13 -18 26 -27 29 -9 2 -22 14 -28 24 -20 31 29 59 134 77 126 21 133 23
133 39 0 20 -35 28 -88 20 -26 -4 -94 -8 -151 -9 l-105 -1 -19 -73 -20 -72 23
-25 c13 -14 33 -25 45 -25 12 0 43 -20 68 -45 26 -25 55 -45 65 -45 9 0 37 9
61 20 51 23 188 60 223 60 14 0 27 3 31 6 3 3 25 7 49 8 27 1 56 10 75 24 17
12 42 22 55 22 14 0 37 14 56 33 30 31 32 37 32 111 0 82 -6 99 -51 157 -24
30 -45 42 -111 64 -46 15 -110 40 -143 55 -78 36 -117 47 -186 55 -43 5 -58 3
-68 -9z M8480 1145 c0 -8 5 -15 10 -15 6 0 10 -9 10 -19 0 -26 15 -34 46 -27
28 7 32 24 7 33 -10 4 -22 12 -28 18 -17 20 -45 26 -45 10z M5650 1080 c-8 -5
-29 -10 -45 -10 -30 0 -55 -15 -55 -32 0 -9 71 -9 115 1 21 4 31 13 33 29 4
24 -20 30 -48 12z M8587 1074 c-4 -4 -40 -8 -82 -9 -41 -2 -81 -8 -89 -14 -8
-7 -25 -9 -41 -5 -21 5 -26 3 -23 -7 5 -16 122 -21 216 -9 55 8 68 6 98 -12
51 -30 45 1 -7 35 -41 27 -60 33 -72 21z M9588 1049 c9 -11 24 -19 33 -19 9 0
19 -7 22 -15 4 -8 32 -27 64 -43 56 -28 61 -29 148 -20 50 4 111 13 138 19 26
6 78 10 115 8 94 -4 192 9 192 27 0 8 -10 14 -22 15 -13 0 -65 3 -115 5 -66 3
-93 1 -93 -7 0 -8 -12 -10 -35 -6 -20 3 -49 0 -66 -7 -20 -8 -44 -10 -67 -5
-21 4 -61 12 -90 18 -30 6 -58 13 -63 16 -5 3 -17 1 -28 -5 -16 -8 -25 -5 -46
14 -19 18 -38 25 -65 24 -36 0 -37 -1 -22 -19z M5510 1010 c0 -13 11 -13 30 0
12 8 11 10 -7 10 -13 0 -23 -4 -23 -10z M10326 1012 c-3 -3 -3 -9 0 -13 7 -12
54 -12 54 0 0 10 -47 21 -54 13z M9468 998 c24 -24 11 -103 -19 -111 -13 -4
-19 -14 -19 -35 0 -17 -14 -52 -32 -80 -18 -28 -37 -58 -43 -67 -6 -10 -25
-17 -53 -18 -29 -1 -41 -5 -38 -13 3 -9 -15 -15 -60 -19 -53 -6 -64 -11 -62
-24 3 -13 17 -16 73 -16 60 0 80 5 142 35 40 19 73 40 73 46 0 6 9 19 20 29
11 10 22 34 25 54 4 20 12 52 20 71 8 19 16 58 18 86 3 42 0 53 -14 63 -26 15
-47 15 -31 -1z M8738 983 c6 -2 18 -2 25 0 6 3 1 5 -13 5 -14 0 -19 -2 -12 -5z
M6353 903 c-13 -5 -18 -33 -7 -33 3 0 17 9 31 20 22 17 23 20 7 19 -11 0 -25
-3 -31 -6z M8818 853 c-10 -2 -18 -9 -18 -14 0 -10 34 -12 68 -2 18 4 20 8 10
14 -14 9 -31 10 -60 2z M4287 834 c-4 -4 0 -19 7 -33 8 -14 22 -45 32 -69 15
-33 29 -47 63 -62 24 -11 52 -20 62 -20 10 0 21 -4 24 -10 3 -5 14 -10 24 -10
10 0 29 -8 42 -18 13 -11 51 -27 83 -37 33 -11 67 -26 76 -34 9 -9 36 -30 61
-47 24 -18 64 -50 89 -73 39 -36 79 -55 68 -33 -25 51 -35 63 -54 68 -13 3
-26 14 -29 24 -3 10 -17 21 -31 24 -13 4 -42 23 -64 42 -22 20 -57 40 -79 45
-22 5 -61 22 -88 39 -26 16 -54 30 -64 30 -9 0 -22 6 -28 14 -6 7 -22 11 -36
8 -14 -2 -25 0 -25 5 0 5 -20 31 -46 57 -25 26 -49 58 -54 72 -9 24 -21 30
-33 18z M5535 831 c-30 -6 -30 -6 14 -20 25 -7 54 -19 65 -26 12 -7 41 -19 66
-25 25 -6 50 -17 55 -24 6 -7 21 -17 35 -22 14 -5 48 -23 77 -39 45 -26 58
-40 81 -87 2 -5 -3 -8 -11 -8 -8 0 -20 -7 -27 -15 -6 -8 -38 -17 -71 -21 -33
-4 -62 -11 -65 -15 -3 -5 -19 -9 -35 -9 -28 0 -89 -35 -89 -52 0 -11 61 3 87
20 18 11 42 13 112 7 74 -6 94 -4 113 9 12 9 35 16 50 16 15 0 30 5 33 10 4 6
22 17 40 24 23 10 37 24 41 41 8 34 -7 45 -63 45 -23 0 -44 4 -47 9 -7 11 -88
51 -103 51 -6 0 -16 7 -23 15 -7 8 -42 29 -79 46 -36 17 -73 39 -81 49 -16 19
-122 32 -175 21z M10535 780 c-3 -5 -1 -10 4 -10 6 0 11 5 11 10 0 6 -2 10 -4
10 -3 0 -8 -4 -11 -10z M7205 670 c-3 -5 0 -10 8 -10 8 0 22 -9 32 -20 24 -26
35 -25 35 4 0 16 -7 26 -22 30 -33 8 -46 7 -53 -4z M7495 600 c-3 -5 -23 -10
-43 -10 -52 0 -72 -14 -42 -30 39 -21 120 3 120 36 0 16 -26 19 -35 4z M5566
471 c-7 -11 14 -20 32 -14 6 3 12 9 12 14 0 12 -37 12 -44 0z M5430 450 c0 -5
12 -10 28 -10 21 0 24 2 12 10 -20 13 -40 13 -40 0z M5265 424 l-50 -24 45 5
c51 5 135 27 146 38 19 19 -95 4 -141 -19z"/>
</g>
</svg>
