<?xml version="1.0" encoding="UTF-8" standalone="no"?>
<!-- Created with Inkscape (http://www.inkscape.org/) -->

<svg
   xmlns:dc="http://purl.org/dc/elements/1.1/"
   xmlns:cc="http://creativecommons.org/ns#"
   xmlns:rdf="http://www.w3.org/1999/02/22-rdf-syntax-ns#"
   xmlns:svg="http://www.w3.org/2000/svg"
   xmlns="http://www.w3.org/2000/svg"
   xmlns:sodipodi="http://sodipodi.sourceforge.net/DTD/sodipodi-0.dtd"
   xmlns:inkscape="http://www.inkscape.org/namespaces/inkscape"
   version="1.1"
   id="svg10"
   width="432"
   height="409.33334"
   viewBox="0 0 432 409.33334"
   sodipodi:docname="M1203edge.svg"
   inkscape:version="0.92.4 (5da689c313, 2019-01-14)">
  <metadata
     id="metadata16">
    <rdf:RDF>
      <cc:Work
         rdf:about="">
        <dc:format>image/svg+xml</dc:format>
        <dc:type
           rdf:resource="http://purl.org/dc/dcmitype/StillImage" />
        <dc:title></dc:title>
      </cc:Work>
    </rdf:RDF>
  </metadata>
  <defs
     id="defs14" />
  <sodipodi:namedview
     pagecolor="#ffffff"
     bordercolor="#666666"
     borderopacity="1"
     objecttolerance="10"
     gridtolerance="10"
     guidetolerance="10"
     inkscape:pageopacity="0"
     inkscape:pageshadow="2"
     inkscape:window-width="1366"
     inkscape:window-height="706"
     id="namedview12"
     showgrid="false"
     inkscape:zoom="1.1433224"
     inkscape:cx="216"
     inkscape:cy="204.66667"
     inkscape:window-x="-8"
     inkscape:window-y="-8"
     inkscape:window-maximized="1"
     inkscape:current-layer="svg10" />
  <path
     style="fill:#000000;stroke-width:1.33333337"
     d="m 107.00831,389.66759 c 0.55457,-0.3091 0.73096,-1.01077 0.39198,-1.55924 -0.33898,-0.54848 0.25729,-0.99724 1.32503,-0.99724 1.06774,0 1.94135,0.5 1.94135,1.11112 0,0.61111 -0.25093,1.11111 -0.55762,1.11111 -0.30669,0 -1.35669,0.20167 -2.33333,0.44813 -0.97665,0.24648 -1.32198,0.19524 -0.76741,-0.11386 z m -25.520309,-3.33425 c 0.126334,-2.45028 0.270932,-2.54892 0.789154,-0.53831 0.510833,1.98196 1.650009,2.36487 5.845332,1.96478 2.865965,-0.27332 5.210846,-0.0311 5.210846,0.53829 0,0.56939 -2.7,1.03524 -6,1.03524 -5.379161,0 -5.983996,-0.31041 -5.845332,-3 z m 49.131529,2.12685 c 0.85404,-0.40692 2.09918,-2.17693 2.76696,-3.93334 1.64814,-4.33492 3.9888,-4.04078 3.76527,0.47316 -0.16892,3.41113 -0.22356,3.44457 -0.78389,0.4798 l -0.60231,-3.18686 -1.54945,3.08158 c -0.85219,1.69485 -2.35943,3.24894 -3.34941,3.45353 -1.09503,0.22629 -1.19183,0.0823 -0.24717,-0.36787 z M 164,387.96066 c -1.3976,-0.93068 -0.19279,-1.06945 4,-0.46069 7.46847,1.08433 8.53329,1.83974 2.55556,1.81296 C 168.05,389.30226 165.1,388.69318 164,387.96066 Z m 14.77193,-0.51621 c -0.0579,-1.40555 0.25723,-2.19306 0.7003,-1.75 0.44305,0.44305 0.49041,1.59305 0.1052,2.55556 -0.42563,1.06364 -0.74158,0.7477 -0.80555,-0.80556 z m 5.33918,1.40282 c 0.30556,-0.26733 2.05556,-1.20042 3.88889,-2.07354 3.14303,-1.49687 3.18557,-1.46911 0.74516,0.48605 -2.124,1.70168 -6.46381,3.18837 -4.63405,1.58749 z m 8.55556,-0.84726 c -0.45323,-0.73334 0.44677,-1.33334 2,-1.33334 1.55322,0 2.45322,0.6 2,1.33334 -0.45323,0.73333 -1.35323,1.33333 -2,1.33333 -0.64678,0 -1.54678,-0.6 -2,-1.33333 z m -127.228074,-1.8889 c -0.05789,-1.40554 0.257237,-2.19305 0.700293,-1.75 0.443055,0.44306 0.490424,1.59306 0.105267,2.55556 -0.425635,1.06364 -0.741577,0.74771 -0.805556,-0.80556 z m 2.666667,0 c -0.05789,-1.40554 0.257237,-2.19305 0.700293,-1.75 0.443055,0.44306 0.490424,1.59306 0.105267,2.55556 -0.425635,1.06364 -0.741578,0.74771 -0.805556,-0.80556 z m 43.660147,-0.5442 c -0.79298,-2.7273 -1.27358,-2.91872 -4,-1.5931 -2.9183,1.4189 -2.95143,1.38838 -0.56898,-0.5242 1.39137,-1.11696 3.04137,-1.71466 3.66667,-1.3282 0.62529,0.38645 1.1369,-0.4837 1.1369,-1.93367 0,-1.44996 0.37096,-3.603 0.82436,-4.78453 0.74064,-1.9301 1.00712,-1.90732 2.62426,0.22428 2.13873,2.81913 2.41768,5.70585 0.55138,5.70585 -0.73333,0 -1.4276,-1.35 -1.54281,-3 -0.11521,-1.65 -0.5652,0 -1,3.66667 -0.61718,5.20485 -0.98814,5.98697 -1.69178,3.5669 z m 26.90126,0.4331 c 0,-1.1 0.58117,-2 1.29149,-2 0.71031,0 0.94612,0.9 0.52401,2 -0.42212,1.1 -1.00328,2 -1.29149,2 -0.2882,0 -0.52401,-0.9 -0.52401,-2 z m 9.488,-0.17008 c -0.0851,-1.5602 0.89533,-3.6602 2.17866,-4.66667 2.02932,-1.59151 2.13488,-1.56935 0.81015,0.17008 -0.83776,1.1 -1.81816,3.2 -2.17867,4.66667 -0.62258,2.53284 -0.66324,2.5243 -0.81014,-0.17008 z m 2.53241,-0.16326 c 0.0164,-1.86708 0.25581,-1.96158 1.19839,-0.47301 0.824,1.30135 2.52056,1.60239 5.64624,1.00187 3.15634,-0.6064 3.88106,-0.47352 2.46829,0.45258 -3.45851,2.26715 -9.33592,1.64776 -9.31292,-0.98144 z m 18.75152,-0.88889 c -0.0579,-1.40555 0.25724,-2.19305 0.70029,-1.75 0.44306,0.44305 0.49042,1.59305 0.1052,2.55556 -0.42562,1.06364 -0.74157,0.74771 -0.80554,-0.80556 z m 2.66667,0 c -0.0579,-1.40555 0.25722,-2.19305 0.70029,-1.75 0.44305,0.44305 0.49041,1.59305 0.1052,2.55556 -0.42563,1.06364 -0.74157,0.74771 -0.80555,-0.80556 z m -18.77194,-4.11111 c 0,-3.25925 0.60318,-4.66666 2,-4.66666 1.39683,0 2,1.40741 2,4.66666 0,3.25926 -0.60317,4.66667 -2,4.66667 -1.39682,0 -2,-1.40741 -2,-4.66667 z m 2.20792,-2.3587 c -0.36524,-0.90271 -0.64182,0.1587 -0.61465,2.3587 0.0272,2.2 0.326,2.93859 0.66405,1.6413 0.33806,-1.2973 0.31583,-3.0973 -0.0493,-4 z m 37.52542,5.42537 c 1.24444,-1.24444 1.95556,-1.24444 3.2,0 1.24444,1.24444 0.88889,1.6 -1.6,1.6 -2.4889,0 -2.84444,-0.35556 -1.6,-1.6 z m -32.85615,-2.4 c 0,-1.83333 0.30264,-2.58333 0.67252,-1.66667 0.36988,0.91667 0.36988,2.41667 0,3.33334 -0.36988,0.91666 -0.67252,0.16666 -0.67252,-1.66667 z m 15.63151,0.33333 c -0.233,-3.44144 0.26002,-6.20665 1.30133,-7.29858 0.50627,-0.5309 0.69309,1.4191 0.41519,4.33333 -0.52214,5.47504 -1.43934,7.05947 -1.71652,2.96525 z m -78.403434,-0.88889 c -0.05789,-1.40555 0.257237,-2.19305 0.700293,-1.75 0.443055,0.44305 0.490424,1.59305 0.105267,2.55556 -0.425635,1.06364 -0.741577,0.74771 -0.805556,-0.80556 z M 144,381.33334 c 0,-0.73333 0.6,-1.33333 1.33333,-1.33333 0.73334,0 1.33334,0.6 1.33334,1.33333 0,0.73333 -0.6,1.33333 -1.33334,1.33333 -0.73333,0 -1.33333,-0.6 -1.33333,-1.33333 z m 25.4386,-1.88889 c -0.0579,-1.40555 0.25724,-2.19306 0.70029,-1.75 0.44306,0.44305 0.49042,1.59305 0.1052,2.55556 -0.42562,1.06364 -0.74157,0.7477 -0.80554,-0.80556 z m 2.66667,0 c -0.0579,-1.40555 0.25722,-2.19306 0.70029,-1.75 0.44305,0.44305 0.49041,1.59305 0.1052,2.55556 -0.42563,1.06364 -0.74157,0.7477 -0.80555,-0.80556 z M 109.007,376.66667 c -0.35047,-1.83333 -0.12041,-3.33333 0.51123,-3.33333 0.63164,0 1.14844,1.5 1.14844,3.33333 0,1.83334 -0.23006,3.33334 -0.51123,3.33334 -0.28118,0 -0.79798,-1.5 -1.14844,-3.33334 z m 13.32633,2.29238 c -2.01666,-0.25823 -3.66666,-1.01082 -3.66666,-1.67243 0,-0.6616 0.98676,-0.82427 2.19281,-0.36147 1.31361,0.50408 2.86607,-0.0793 3.872,-1.45496 1.06765,-1.4601 1.99725,-1.78178 2.55254,-0.8833 0.48035,0.77721 0.23795,1.41312 -0.53866,1.41312 -0.77662,0 -1.41203,0.63541 -1.41203,1.41202 0,0.77662 0.6,1.0412 1.33334,0.58798 C 127.4,377.54678 128,377.47597 128,377.84263 c 0,1.20896 -1.94749,1.59266 -5.66667,1.11642 z M 144,377.19069 c 0,-0.81179 0.9,-1.13063 2,-0.70851 1.1,0.42211 2,0.18629 2,-0.52401 0,-0.71032 -1.05,-1.32952 -2.33333,-1.37602 -1.69323,-0.0613 -1.45723,-0.43496 0.86024,-1.36197 1.75646,-0.7026 3.50646,-0.96457 3.88889,-0.58215 0.38243,0.38242 -0.15469,0.71355 -1.19357,0.73586 -1.3553,0.0291 -1.22974,0.42446 0.44444,1.39958 3.56398,2.07583 2.78597,3.8932 -1.66667,3.8932 -2.2,0 -4,-0.66418 -4,-1.47598 z m -50,-1.19068 c -0.453225,-0.73334 -0.188635,-1.33334 0.587977,-1.33334 0.776612,0 1.412023,0.6 1.412023,1.33334 0,0.73333 -0.264589,1.33333 -0.587977,1.33333 -0.323388,0 -0.958798,-0.6 -1.412023,-1.33333 z m 3.438596,-0.55556 c -0.05789,-1.40555 0.257237,-2.19306 0.700293,-1.75 0.443055,0.44305 0.490424,1.59305 0.105267,2.55556 -0.425635,1.06364 -0.741577,0.7477 -0.805556,-0.80556 z m 60.463014,0.65325 c -0.67922,-0.64471 -2.43494,-1.45748 -3.90161,-1.80616 -1.46667,-0.34869 0.15412,-0.57771 3.60173,-0.50893 3.44763,0.0688 6.14763,0.1656 6,0.21517 -0.14761,0.0496 -1.21268,0.80608 -2.36678,1.68112 -1.21607,0.92201 -2.61767,1.09811 -3.33334,0.4188 z m 7.53699,0.31433 c -0.15211,-2.2945 2.20747,-3.39672 3.34195,-1.56109 0.57505,0.93045 0.38896,1.2052 -0.46066,0.68011 -0.78401,-0.48455 -1.72934,-0.1272 -2.10074,0.79398 -0.48334,1.19886 -0.70522,1.22359 -0.78055,0.0869 z m 23.89473,-0.33818 c 0,-1.23382 -1.37956,-1.46542 -5,-0.83943 -3.60814,0.62387 -4.44326,0.48528 -3,-0.49787 3.87212,-2.63765 11.6884,-0.64717 8.80019,2.24106 -0.44011,0.44009 -0.80019,0.0333 -0.80019,-0.90376 z m -55.15852,-1.12432 c -0.35708,-0.57776 0.95751,-1.17183 2.92131,-1.32015 2.74829,-0.20757 3.10997,0.0296 1.57055,1.03005 -2.4453,1.58912 -3.64127,1.66636 -4.49186,0.2901 z M 172,374.66667 c 0,-0.73333 0.26459,-1.33333 0.58797,-1.33333 0.32339,0 0.9588,0.6 1.41203,1.33333 0.45323,0.73334 0.18864,1.33334 -0.58797,1.33334 -0.77662,0 -1.41203,-0.6 -1.41203,-1.33334 z m -86.305556,-0.80556 c 0.443056,-0.44305 1.593056,-0.49041 2.555556,-0.1052 1.063644,0.42563 0.747701,0.74158 -0.805556,0.80555 -1.405555,0.0579 -2.193055,-0.25724 -1.75,-0.70029 z m -20.361111,-9.92202 c -1.465041,-0.9914 -0.966049,-1.11226 1.865538,-0.45179 2.72209,0.63492 3.589022,0.45421 2.930749,-0.61089 -0.620731,-1.00438 -0.166107,-1.21755 1.353189,-0.63455 1.675175,0.64283 1.99566,0.405 1.196572,-0.88795 -0.740416,-1.19801 -0.577578,-1.44837 0.506347,-0.77846 0.878764,0.5431 2.471469,0.26234 3.539345,-0.62391 1.067876,-0.88627 1.941594,-1.22911 1.941594,-0.76187 0,1.09315 -8.246494,6.13856 -10,6.11827 -0.733334,-0.008 -2.233334,-0.62447 -3.333334,-1.36885 z m 41.928597,0.27361 c 2.51271,-1.06309 2.50568,-1.12144 -0.22089,-1.83445 -1.54889,-0.40506 -3.46676,-0.20586 -4.26194,0.44265 -1.00284,0.81788 -1.03729,0.68893 -0.11244,-0.42089 1.90573,-2.28688 1.64744,-3.73334 -0.66666,-3.73334 -1.11111,0 -2.000003,-1.18518 -2.000003,-2.66666 0,-3.71226 3.955803,-3.39692 4.181573,0.33333 l 0.18158,3 0.56708,-2.91803 c 0.3119,-1.6049 1.58019,-3.1853 2.81843,-3.512 1.26728,-0.33434 0.62567,-0.66157 -1.4679,-0.74864 -3.11567,-0.1296 -3.44023,-0.45792 -2,-2.0233 0.94558,-1.02775 1.91924,-1.32775 2.16368,-0.66667 0.24445,0.66108 1.15584,1.20197 2.02532,1.20197 1.04731,0 1.50349,2.36258 1.3516,7 -0.18681,5.70335 -0.68546,7.05966 -2.69199,7.32202 -2.21911,0.29016 -2.20599,0.2134 0.13256,-0.77599 z m 0.64436,-6.54603 c -0.0831,-3.24912 -0.22421,-3.363 -1.23962,-1 -1.56496,3.64184 -1.56496,4.66667 0,4.66667 0.73333,0 1.29116,-1.65 1.23962,-3.66667 z m 8.45482,6.86111 c 0.44306,-0.44305 1.59306,-0.49041 2.55556,-0.1052 1.06364,0.42563 0.7477,0.74157 -0.80556,0.80555 -1.40555,0.0579 -2.19305,-0.25724 -1.75,-0.7003 z m 9.72461,-0.91861 c 0.50071,-1.31496 1.24626,-2.05496 1.65678,-1.64444 0.41051,0.41052 8.4e-4,1.48638 -0.91038,2.39084 -1.31682,1.30701 -1.46998,1.15386 -0.7464,-0.7464 z m 29.24761,0.39084 c -0.45322,-0.73334 0.11134,-1.33334 1.25464,-1.33334 1.14328,0 2.0787,0.6 2.0787,1.33334 0,0.73333 -0.56459,1.33333 -1.25464,1.33333 -0.69006,0 -1.62547,-0.6 -2.0787,-1.33333 z m 8.44604,0.16456 c 1.33475,-0.84607 1.00156,-1.36316 -1.33333,-2.06931 -1.93236,-0.58441 -2.46371,-1.20796 -1.40121,-1.64437 2.07576,-0.85262 5.88421,2.0459 4.8618,3.7002 -0.40187,0.65024 -1.44527,1.17306 -2.31866,1.16184 -1.08246,-0.0139 -1.02154,-0.37948 0.1914,-1.14836 z m 7.86002,-0.4979 c 0.71458,-0.91666 1.23805,-4.06666 1.16326,-7 -0.13186,-5.17224 -0.28701,-5.34582 -5.13598,-5.74716 -4.77874,-0.3955 -5,-0.23324 -5,3.66667 0,3.00508 -0.61496,4.07511 -2.33334,4.06008 -1.49884,-0.0133 -1.78534,-0.37076 -0.80109,-1 0.84275,-0.53877 1.74275,-2.47959 2,-4.31292 0.37639,-2.68215 1.33132,-3.41623 4.88819,-3.75764 2.43124,-0.23337 5.28124,0.29009 6.33333,1.16325 3.10163,2.57412 2.22885,14.59439 -1.05967,14.59439 -0.8872,0 -0.90605,-0.57456 -0.0547,-1.66667 z m 34.10016,-1.55665 c 3.07985,-3.45771 4.98473,-3.33868 4.8334,0.30201 -0.0753,1.81291 -0.29792,1.73219 -1.13604,-0.41202 -1.00916,-2.58179 -1.0727,-2.57119 -1.99614,0.33333 -0.5246,1.65 -1.76797,3 -2.76306,3 -1.23064,0 -0.89106,-1.03085 1.06184,-3.22332 z m 13.59378,1.88999 c -0.45322,-0.73334 0.11134,-1.33334 1.25464,-1.33334 1.14328,0 2.0787,0.6 2.0787,1.33334 0,0.73333 -0.56459,1.33333 -1.25464,1.33333 -0.69006,0 -1.62547,-0.6 -2.0787,-1.33333 z m 9,0.37833 c 2.01667,-0.30551 5.31667,-0.30551 7.33334,0 2.01666,0.30549 0.36666,0.55545 -3.66667,0.55545 -4.03333,0 -5.68333,-0.24996 -3.66667,-0.55545 z m 21.87268,-0.0449 c -0.33992,-0.55 0.76738,-1 2.46066,-1 1.69328,0 2.80057,0.45 2.46065,1 -0.33992,0.55 -1.44721,1 -2.46065,1 -1.01344,0 -2.12074,-0.45 -2.46066,-1 z M 276,364.00001 c -1.7092,-1.10458 -1.66073,-1.29547 0.33333,-1.31292 1.28334,-0.0107 2.33334,0.57958 2.33334,1.31292 0,1.62614 -0.15039,1.62614 -2.66667,0 z m 7,0.37833 c 2.01667,-0.30551 3.66667,-1.3802 3.66667,-2.38821 0,-1.008 0.51332,-2.15 1.14072,-2.53775 0.6274,-0.38776 0.85745,0.77684 0.51124,2.58797 -0.52091,2.72495 -1.35019,3.25852 -4.8074,3.09322 -4.03007,-0.19271 -4.04816,-0.21943 -0.51123,-0.75523 z m 16.66667,-0.41988 c 1.65,-0.66323 3,-1.92519 3,-2.80437 0,-0.87919 0.3855,-1.21303 0.85666,-0.74186 1.29984,1.29984 -2.22029,4.93264 -4.68658,4.83659 -1.46854,-0.0572 -1.20024,-0.47435 0.82992,-1.29036 z M 331,363.98286 c 1.41027,-0.87559 2.33333,-3.08663 2.33333,-5.58909 0,-4.00622 -0.0835,-4.06491 -2.57393,-1.81102 -2.46987,2.2352 -2.54444,2.2166 -1.84449,-0.46001 0.42406,-1.62163 1.81282,-2.7894 3.31726,-2.7894 2.21923,0 2.52943,0.80549 2.17783,5.65516 -0.32373,4.46537 -0.97104,5.73805 -3.07667,6.04911 -2.43793,0.36016 -2.46652,0.26968 -0.33333,-1.05475 z m 5.33624,-3.31619 c -0.0148,-2.93333 0.24615,-4.29033 0.57987,-3.01554 0.33372,1.27478 0.34582,3.67478 0.0269,5.33333 -0.31892,1.65855 -0.59197,0.61555 -0.60677,-2.31779 z m 6.99709,3.33334 -4,-1.01783 3.58798,-0.15776 c 1.97338,-0.0868 3.9588,0.44225 4.41202,1.17559 0.45323,0.73333 0.63864,1.26234 0.41203,1.17558 -0.22661,-0.0868 -2.21203,-0.61578 -4.41203,-1.17558 z m 6.7788,-0.47808 c 0.8829,-2.3008 8.55454,-3.17974 8.55454,-0.98008 0,0.66468 -1.2032,0.89386 -2.67378,0.5093 -1.47057,-0.38457 -3.5843,0.0564 -4.69718,0.98008 -1.68904,1.40179 -1.88464,1.31763 -1.18358,-0.5093 z m 9.90828,0.14474 c -0.0156,-1.78453 0.99878,-2.29062 4.31292,-2.15176 3.66899,0.15375 3.8223,0.27656 1,0.8011 -1.83333,0.34073 -3.77414,1.30901 -4.31292,2.15176 -0.62924,0.98425 -0.98688,0.69774 -1,-0.8011 z M 84.154668,360.41203 c -0.163488,-4.49726 1.670536,-6.85222 3.292545,-4.22776 0.602564,0.97496 0.386851,1.2039 -0.574536,0.60972 -0.846638,-0.52325 -1.539344,-0.31596 -1.539344,0.46066 0,0.77661 2.141731,1.41202 4.759402,1.41202 4.149201,0 4.704774,-0.37762 4.333333,-2.94534 -0.261636,-1.80864 -1.7125,-3.30107 -3.759401,-3.8671 -1.833334,-0.50696 -2.433334,-1.05261 -1.333334,-1.21254 1.1,-0.15995 2.6,-0.135 3.333334,0.0555 C 93.4,350.88757 95.8,350.99514 98,350.93618 c 2.2,-0.0589 3.25,0.20631 2.33333,0.58947 -0.916663,0.38314 -1.666663,2.47293 -1.666663,4.64397 0,2.38441 -0.659908,3.86164 -1.666667,3.73091 -6.128423,-0.7958 -11.520948,0.29014 -12.080899,2.43286 -0.33537,1.28334 -0.679365,0.41875 -0.764433,-1.9213 z m 12.719915,-7.4374 c -0.365231,-0.9027 -0.641824,0.15871 -0.614651,2.35871 0.02717,2.2 0.325997,2.93859 0.664056,1.64129 0.338057,-1.29729 0.315825,-3.09729 -0.0494,-4 z m 32.564017,9.13648 c -0.0579,-1.40554 0.25723,-2.19305 0.70029,-1.75 0.44305,0.44306 0.49042,1.59306 0.10527,2.55556 -0.42564,1.06364 -0.74158,0.74771 -0.80556,-0.80556 z m 2.66666,0 c -0.0579,-1.40554 0.25724,-2.19305 0.7003,-1.75 0.44305,0.44306 0.49042,1.59306 0.10526,2.55556 -0.42563,1.06364 -0.74157,0.74771 -0.80555,-0.80556 z m 12.86969,-0.67089 c -0.57996,-2.2178 -0.40644,-2.73837 0.58298,-1.74895 0.7748,0.7748 1.14639,2.19576 0.82575,3.15768 -0.33287,0.9986 -0.93725,0.3942 -1.40873,-1.40873 z m 4.63421,0.89312 c -0.0927,-0.91667 -0.56268,-3.31667 -1.04432,-5.33333 -0.48752,-2.04126 -0.31425,-3.66667 0.39084,-3.66667 0.6966,0 1.26655,0.76073 1.26655,1.69051 0,0.92977 0.41142,3.32977 0.91429,5.33333 0.50285,2.00356 0.40285,3.64283 -0.22223,3.64283 -0.62508,0 -1.2124,-0.75 -1.30513,-1.66667 z m 26.75744,-1 c 0.11053,-1.46667 0.59973,-2.66667 1.08721,-2.66667 1.53291,0 3.89778,3.53731 2.97907,4.45602 -1.83452,1.8345 -4.25889,0.76768 -4.06628,-1.78935 z m 11.06011,1.48441 c -0.40188,-0.65024 0.16272,-1.9237 1.25464,-2.82993 1.3782,-1.1438 1.98532,-1.19 1.98532,-0.15107 0,0.82312 -0.63542,1.49659 -1.41203,1.49659 -0.77661,0 -1.0412,0.6 -0.58797,1.33333 0.45322,0.73334 0.52404,1.33334 0.15737,1.33334 -0.36667,0 -0.99547,-0.53202 -1.39733,-1.18226 z m 26.18245,-0.48441 c -0.0928,-0.91667 -0.56268,-3.31667 -1.04432,-5.33333 -0.48752,-2.04126 -0.31425,-3.66667 0.39084,-3.66667 0.6966,0 1.26655,0.76073 1.26655,1.69051 0,0.92977 0.41142,3.32977 0.91429,5.33333 0.50285,2.00356 0.40285,3.64283 -0.22223,3.64283 -0.62508,0 -1.2124,-0.75 -1.30513,-1.66667 z m 30.05751,0.78363 c 0.91666,-0.36988 2.41666,-0.36988 3.33333,0 0.91667,0.36988 0.16667,0.67252 -1.66667,0.67252 -1.83333,0 -2.58333,-0.30264 -1.66666,-0.67252 z m 13.77193,-1.00586 c -0.0579,-1.40554 0.25723,-2.19305 0.70029,-1.75 0.44306,0.44306 0.49042,1.59306 0.1052,2.55556 -0.42562,1.06364 -0.74157,0.74771 -0.80554,-0.80556 z m 2.66667,0 c -0.0579,-1.40554 0.25722,-2.19305 0.70029,-1.75 0.44305,0.44306 0.49041,1.59306 0.1052,2.55556 -0.42563,1.06364 -0.74157,0.74771 -0.80555,-0.80556 z m 45.33333,0 c -0.0579,-1.40554 0.25723,-2.19305 0.70029,-1.75 0.44306,0.44306 0.49042,1.59306 0.1052,2.55556 -0.42562,1.06364 -0.74157,0.74771 -0.80554,-0.80556 z m 3.39955,-2.25369 c -0.47931,-2.39657 -0.31999,-4.90891 0.35408,-5.58297 0.74518,-0.74519 1.192,-0.51654 1.13994,0.58333 -0.3132,6.6186 0.3475,7.80889 4.3345,7.80889 3.70529,0 4.01162,-0.36838 4.15774,-5 0.15702,-4.97628 0.16259,-4.98102 1.17559,-1 0.5598,2.2 1.08881,2.91459 1.17559,1.58798 0.0868,-1.32662 0.73154,-2.0574 1.43285,-1.62396 0.70131,0.43342 0.93711,1.66884 0.52401,2.74536 -0.41808,1.08946 10e-4,1.95729 0.94712,1.95729 4.61906,0 -0.87064,1.74072 -7.168,2.27289 l -7.20193,0.60862 z m -186.17148,1.47592 c 0,-0.73333 0.26459,-1.33333 0.58797,-1.33333 0.32339,0 0.9588,0.6 1.41203,1.33333 0.45322,0.73333 0.18863,1.33333 -0.58798,1.33333 -0.77661,0 -1.41202,-0.6 -1.41202,-1.33333 z m 80,-0.1064 c 1.51173,-1.05741 0.77934,-1.28055 -3,-0.91399 -2.75,0.26674 -5,0.005 -5,-0.58064 0,-0.58608 2.4,-1.0656 5.33333,-1.0656 3.85185,0 5.33333,0.55556 5.33333,2 0,1.1 -1.05,1.99082 -2.33333,1.97959 -2.01121,-0.0176 -2.05723,-0.21355 -0.33333,-1.41936 z M 280,361.6191 c 0,-0.5762 1.2,-1.04763 2.66667,-1.04763 1.46666,0 2.66666,0.47143 2.66666,1.04763 0,0.57619 -1.2,1.04761 -2.66666,1.04761 C 281.2,362.66671 280,362.19529 280,361.6191 Z m 13.33333,-0.28576 c 0,-0.73333 0.26459,-1.33333 0.58798,-1.33333 0.32338,0 0.9588,0.6 1.41202,1.33333 0.45323,0.73333 0.18864,1.33333 -0.58797,1.33333 -0.77661,0 -1.41203,-0.6 -1.41203,-1.33333 z m 36.85116,-0.66667 c 0.42212,-1.1 1.00328,-2 1.2915,-2 0.2882,0 0.52401,0.9 0.52401,2 0,1.1 -0.58117,2 -1.29149,2 -0.71031,0 -0.94612,-0.9 -0.52402,-2 z m -88.40672,-1.33333 c 0,-1.1 0.5,-2 1.11112,-2 0.61111,0 1.11111,0.9 1.11111,2 0,1.1 -0.5,2 -1.11111,2 -0.61112,0 -1.11112,-0.9 -1.11112,-2 z m 3.55556,0 c 0,-1.1 0.58118,-2 1.2915,-2 0.7103,0 0.94612,0.9 0.52401,2 -0.42212,1.1 -1.00328,2 -1.29149,2 -0.2882,0 -0.52402,-0.9 -0.52402,-2 z M 312,360.00001 c 0,-0.73334 1.2,-1.33334 2.66667,-1.33334 1.46666,0 2.66666,0.6 2.66666,1.33334 0,0.73333 -1.2,1.33333 -2.66666,1.33333 -1.46667,0 -2.66667,-0.6 -2.66667,-1.33333 z m 13.79344,-0.72418 c -0.43425,-1.13162 -0.49163,-2.35542 -0.12747,-2.71954 0.36412,-0.36414 0.98208,0.56174 1.37323,2.0575 0.83087,3.17724 -0.0923,3.66786 -1.24573,0.66204 z M 152,355.33334 c 0,-2.56667 0.47952,-4.66667 1.0656,-4.66667 0.58608,0 0.82044,2.1 0.52079,4.66667 -0.29964,2.56667 -0.77916,4.66667 -1.0656,4.66667 -0.28643,0 -0.52079,-2.1 -0.52079,-4.66667 z m 64,0 c 0,-2.56667 0.47952,-4.66667 1.0656,-4.66667 0.58608,0 0.82044,2.1 0.52079,4.66667 -0.29964,2.56667 -0.77916,4.66667 -1.0656,4.66667 -0.28643,0 -0.52079,-2.1 -0.52079,-4.66667 z m 56,3.44239 c 0,-0.67336 -0.31324,-2.04058 -0.69609,-3.03827 -0.38284,-0.99768 0.0867,-2.88435 1.04321,-4.19259 1.51497,-2.07185 1.67267,-1.68002 1.22271,3.03826 -0.28412,2.97928 -0.75356,5.41688 -1.04322,5.41688 -0.28964,0 -0.52661,-0.55094 -0.52661,-1.22428 z m 26.4,-0.37572 c 1.93483,-1.93483 2.13357,-4.22048 0.26667,-3.06667 -0.73334,0.45323 -1.33334,0.18864 -1.33334,-0.58797 0,-0.77662 0.9,-1.41203 2,-1.41203 1.24444,0 2,1.25925 2,3.33333 0,2.24836 -0.73777,3.33334 -2.26666,3.33334 -1.76296,0 -1.91111,-0.35556 -0.66667,-1.6 z m 52.24625,-1.4 c -0.0165,-2.42592 -0.26776,-2.61728 -1.31292,-1 -0.90376,1.39848 -1.29864,1.48614 -1.31292,0.29149 -0.0107,-0.93969 1.02959,-2.10251 2.31292,-2.58404 1.28334,-0.48155 3.14663,-1.81271 4.14066,-2.95816 0.99402,-1.14544 0.84402,-0.45373 -0.33334,1.53713 -2.50369,4.23364 -2.79524,6.94218 -0.6013,5.58626 0.95373,-0.58944 1.17741,-0.36576 0.58797,0.58797 -1.56803,2.53712 -3.45927,1.74356 -3.48107,-1.46065 z M 80,356.74537 c 0,-1.14328 0.6,-2.0787 1.333333,-2.0787 1.72521,0 1.72521,2.2671 0,3.33334 C 80.6,358.45323 80,357.88867 80,356.74537 Z m 144,-2.0787 c 0,-2.2 0.49608,-4 1.10241,-4 0.60632,0 0.83823,1.8 0.51534,4 -0.3229,2.2 -0.81898,4 -1.10242,4 -0.28342,0 -0.51533,-1.8 -0.51533,-4 z m 50.66667,3.05215 c 0,-0.76576 1.05,-2.21576 2.33333,-3.22223 2.15835,-1.69268 2.18664,-1.62993 0.37729,0.83675 -1.07582,1.46667 -2.12582,2.91667 -2.33333,3.22223 -0.20751,0.30554 -0.37729,-0.071 -0.37729,-0.83675 z M 89.694444,356.52778 c 0.443056,-0.44305 1.593056,-0.49041 2.555556,-0.1052 1.063644,0.42563 0.747701,0.74157 -0.805556,0.80555 -1.405555,0.0579 -2.193055,-0.25724 -1.75,-0.7003 z m 39.638886,-0.52777 c 0,-0.73334 0.9,-1.33334 2,-1.33334 1.1,0 2,0.6 2,1.33334 0,0.73333 -0.9,1.33333 -2,1.33333 -1.1,0 -2,-0.6 -2,-1.33333 z M 144,355.41203 c 0,-1.14328 0.6,-2.07869 1.33333,-2.07869 1.72522,0 1.72522,2.26709 0,3.33333 C 144.6,357.1199 144,356.55534 144,355.41203 Z m 37.69444,1.11575 c 0.44307,-0.44305 1.59305,-0.49041 2.55556,-0.1052 1.06364,0.42563 0.74771,0.74157 -0.80556,0.80555 -1.40555,0.0579 -2.19305,-0.25724 -1.75,-0.7003 z m 6.66667,0 c 0.44306,-0.44305 1.59305,-0.49041 2.55556,-0.1052 1.06364,0.42563 0.7477,0.74157 -0.80556,0.80555 -1.40555,0.0579 -2.19306,-0.25724 -1.75,-0.7003 z m 6.30556,-0.52777 c 0,-0.73334 2.4,-1.33334 5.33333,-1.33334 2.93333,0 5.33333,0.6 5.33333,1.33334 0,0.73333 -2.4,1.33333 -5.33333,1.33333 -2.93333,0 -5.33333,-0.6 -5.33333,-1.33333 z m 12,-0.55556 c 0,-1.16111 0.95,-2.11111 2.1111,-2.11111 1.16112,0 1.87362,0.71251 1.58334,1.58333 -0.8241,2.4723 -3.69444,2.88235 -3.69444,0.52778 z M 288,355.13049 c 0,-0.89728 1.1,-1.54856 2.44444,-1.44728 3.18949,0.24025 3.18949,3.0787 0,3.0787 C 289.1,356.76191 288,356.02777 288,355.13049 Z m 14.66667,0.31396 c 0,-1.16111 0.95,-2.11111 2.1111,-2.11111 1.16112,0 1.87362,0.71251 1.58334,1.58333 -0.8241,2.4723 -3.69444,2.88235 -3.69444,0.52778 z M 312,356.00001 c 0,-0.73334 1.2,-1.33334 2.66667,-1.33334 1.46666,0 2.66666,0.6 2.66666,1.33334 0,0.73333 -1.2,1.33333 -2.66666,1.33333 -1.46667,0 -2.66667,-0.6 -2.66667,-1.33333 z M 75.475079,352.77809 c 0.629989,-1.64174 -0.09381,-2.11142 -3.253738,-2.11142 -2.23518,0 -4.434782,0.6 -4.888008,1.33334 -0.453225,0.73333 -1.538634,1.31425 -2.412022,1.29093 -0.873388,-0.0233 -0.387978,-0.95003 1.078689,-2.05935 3.320241,-2.51126 12,-2.03584 12,0.65731 0,1.03888 -0.750408,2.13903 -1.667573,2.44475 -1.058626,0.35286 -1.371704,-0.21518 -0.857348,-1.55556 z m 14.219365,1.08302 c 0.443056,-0.44305 1.593056,-0.49041 2.555556,-0.1052 1.063644,0.42563 0.747701,0.74158 -0.805556,0.80555 -1.405555,0.0579 -2.193055,-0.25724 -1.75,-0.70029 z M 112,352.74537 c 0,-1.05672 0.54405,-2.25755 1.20899,-2.66851 0.66494,-0.41096 0.89496,0.45363 0.51116,1.92131 C 112.906,355.11149 112,355.50503 112,352.74537 Z m 139.02777,1.11574 c 0.44307,-0.44305 1.59306,-0.49041 2.55556,-0.1052 1.06364,0.42563 0.74771,0.74158 -0.80556,0.80555 -1.40554,0.0579 -2.19305,-0.25724 -1.75,-0.70029 z M 84,352.09777 c 0,-0.67956 -1.05,-1.50996 -2.333333,-1.84532 -1.968619,-0.51446 -1.994136,-0.63395 -0.16326,-0.76444 1.193541,-0.0851 2.917008,0.74533 3.829926,1.84533 1.146806,1.38181 1.197268,2 0.16326,2 -0.823126,0 -1.496593,-0.556 -1.496593,-1.23557 z m 110.14265,-0.87348 c -0.44513,-1.15998 -0.80932,-2.35998 -0.80932,-2.66667 0,-1.22068 13.23152,-0.46771 14.01344,0.79747 0.46062,0.74529 1.39603,1.00989 2.0787,0.58797 0.68265,-0.42191 1.2412,-0.13173 1.2412,0.64492 0,1.82847 -3.05791,1.82079 -4.89096,-0.012 -0.78336,-0.78336 -3.75336,-1.18423 -6.6,-0.8908 L 194,350.21866 l 5.66667,0.22415 c 7.10172,0.28089 7.53145,2.8908 0.47598,2.8908 -3.50324,0 -5.45378,-0.68564 -6,-2.10906 z M 312,352.00001 c 0,-0.73334 1.2,-1.33334 2.66667,-1.33334 1.46666,0 2.66666,0.6 2.66666,1.33334 0,0.73333 -1.2,1.33333 -2.66666,1.33333 -1.46667,0 -2.66667,-0.6 -2.66667,-1.33333 z m 11.29809,0.15245 c 1.9899,-0.80396 0.85919,-1.29825 -4.63789,-2.02745 -4.77685,-0.63368 -7.43157,-0.47755 -7.74253,0.45534 -0.26028,0.78082 -1.95863,1.41966 -3.77414,1.41966 -1.8964,0 -2.94457,-0.57658 -2.46342,-1.35508 0.46061,-0.7453 1.37162,-1.02498 2.02445,-0.6215 0.65283,0.40347 2.31119,0.0315 3.68523,-0.82661 1.83074,-1.14332 4.60617,-1.19912 10.38757,-0.20884 4.33912,0.74323 13.28931,1.17397 19.88931,0.9572 l 12,-0.39412 L 342,350.70054 c -5.86667,0.63223 -13.06667,1.45675 -16,1.83228 -3.33867,0.42743 -4.34919,0.28516 -2.70191,-0.38036 z m 41.5908,0.29199 C 364.4,351.95557 364,350.93557 364,350.17778 c 0,-0.83547 0.62103,-0.75675 1.57777,0.2 0.86779,0.86779 1.26779,1.88779 0.8889,2.26667 -0.3789,0.37889 -1.0889,0.28889 -1.57778,-0.2 z M 144,351.41203 c 0,-0.32338 0.6,-0.9588 1.33333,-1.41202 0.73334,-0.45323 1.33334,-0.18864 1.33334,0.58797 0,0.77661 -0.6,1.41203 -1.33334,1.41203 C 144.6,352.00001 144,351.73542 144,351.41203 Z m 4,-0.71996 c 0,-1.95937 6.64771,-3.24436 8.28969,-1.60237 1.01482,1.01481 0.64446,1.22293 -1.28048,0.71955 -1.48954,-0.38952 -3.11138,-0.056 -3.60409,0.74126 C 150.28897,352.35647 148,352.45163 148,350.69207 Z m 64,0 c 0,-1.95937 6.64771,-3.24436 8.28969,-1.60237 1.01482,1.01481 0.64446,1.22293 -1.28048,0.71955 -1.48954,-0.38952 -3.11138,-0.056 -3.60409,0.74126 C 214.28897,352.35647 212,352.45163 212,350.69207 Z m 20,-0.0254 c -1.7092,-1.10457 -1.66073,-1.29546 0.33333,-1.31292 1.28334,-0.0107 2.33334,0.57959 2.33334,1.31292 0,1.62615 -0.15039,1.62615 -2.66667,0 z m 9.33333,0.82211 c 0,-0.28119 1.5,-0.79797 3.33334,-1.14844 C 246.5,349.98987 248,350.21994 248,350.85157 c 0,0.63164 -1.5,1.14844 -3.33333,1.14844 -1.83334,0 -3.33334,-0.23006 -3.33334,-0.51123 z m 36,-0.0133 c 0,-0.28822 0.9,-0.86938 2,-1.2915 1.1,-0.4221 2,-0.18629 2,0.52402 0,0.71032 -0.9,1.29149 -2,1.29149 -1.1,0 -2,-0.23581 -2,-0.52401 z m 5.333,-0.47599 c -4e-4,-1.17945 18.43976,-1.00501 19.63048,0.18571 0.44787,0.44786 -3.7857,0.81429 -9.40792,0.81429 -5.62222,0 -10.22237,-0.45 -10.22256,-1 z m 75.51026,-0.0476 c -0.35611,-0.5762 0.46442,-1.04763 1.82341,-1.04763 1.35899,0 2.17952,0.47143 1.82341,1.04763 -0.35609,0.57672 -1.17664,1.04815 -1.82341,1.04815 -0.64677,0 -1.46732,-0.47143 -1.82341,-1.04762 z m -179.86863,-1.16031 c 0.90271,-0.36522 2.70271,-0.38745 4,-0.0495 1.29729,0.33805 0.55871,0.63688 -1.64129,0.66405 -2.2,0.0272 -3.26142,-0.24941 -2.35871,-0.61465 z m -80.641293,-1.37732 c 1.283333,-0.33536 3.383333,-0.33536 4.666663,0 1.28334,0.33538 0.23334,0.60978 -2.33333,0.60978 -2.566667,0 -3.616667,-0.2744 -2.333333,-0.60978 z m -30.690546,-8.0336 c 2.003534,-0.30422 5.603534,-0.31034 8,-0.0136 2.396467,0.29675 0.757212,0.54567 -3.642788,0.55315 -4.4,0.008 -6.360745,-0.23531 -4.357212,-0.53955 z m 15.690546,0.1339 c 7.975474,-1.00315 17.334923,-1.10098 17.334163,-0.18119 -4.6e-4,0.55 -4.65083,0.91011 -10.334163,0.80023 -5.683334,-0.10987 -8.833334,-0.38844 -7,-0.61904 z m 18.666663,-1.18119 c 0,-1.1 0.63541,-2 1.41203,-2 0.77661,0 1.06644,0.55916 0.64406,1.24259 -0.42238,0.68342 0.89221,1.49353 2.92131,1.80022 3.4616,0.52323 3.42185,0.56996 -0.64406,0.75742 -3.05176,0.14069 -4.33334,-0.39172 -4.33334,-1.80023 z M 125,338.94445 c 1.28333,-1.31388 2.55646,-1.8445 2.82918,-1.17912 0.27271,0.66536 -0.32729,1.73117 -1.33333,2.36846 -3.11724,1.97464 -3.94411,1.3172 -1.49585,-1.18934 z m 13.66667,1.21293 c 0,-0.73333 0.6,-1.70415 1.33333,-2.15737 0.73333,-0.45323 1.33333,-0.22404 1.33333,0.50929 0,0.73333 -0.6,1.70415 -1.33333,2.15737 -0.73333,0.45323 -1.33333,0.22404 -1.33333,-0.50929 z m 8.30945,0.22325 c 2.00353,-0.30422 5.60353,-0.31034 8,-0.0136 2.39647,0.29675 0.75721,0.54567 -3.64279,0.55315 -4.4,0.008 -6.36074,-0.23531 -4.35721,-0.53955 z m 29.91277,0.0639 c -0.48889,-0.48888 -0.82908,-2.43888 -0.75598,-4.33333 l 0.13293,-3.44444 0.92127,3.33333 c 0.72561,2.62545 2.04237,3.50552 6.20042,4.14412 l 5.27916,0.8108 -5.44444,0.1892 c -2.99445,0.104 -5.84445,-0.21079 -6.33333,-0.69968 z m 12.42403,-6.11111 c -0.0155,-5.306 -0.36271,-6.516 -1.43484,-5 -1.15047,1.62675 -1.31772,1.6423 -0.89625,0.0833 0.285,-1.05418 1.23068,-2.15416 2.1015,-2.44444 1.09619,-0.3654 1.58334,1.76266 1.58334,6.91666 0,4.09444 -0.3,7.44444 -0.66667,7.44444 -0.36667,0 -0.67585,-3.15 -0.68708,-7 z m 25.79527,5.44608 c 1.09458,-0.61256 3.39302,-0.55829 5.10765,0.12054 2.70585,1.07134 2.44307,1.2184 -1.99016,1.11374 -3.47756,-0.0821 -4.47249,-0.47604 -3.11749,-1.23433 z M 248,339.22226 c -3.28203,-1.82113 -3.28716,-1.84991 -0.33333,-1.86927 1.65,-0.0107 3,0.64454 3,1.45634 0,0.81178 0.9,1.13062 2,0.7085 1.1,-0.4221 2,-0.18629 2,0.52402 0,1.74344 -2.63043,1.42006 -6.66667,-0.81959 z m 14.91816,1.17751 c 5.57781,-0.48108 6.31704,-0.92682 6.85967,-4.13614 0.55644,-3.29112 0.59174,-3.25685 0.41516,0.40304 -0.18651,3.86579 -0.41668,4.00458 -6.85966,4.13614 l -6.66666,0.13613 z m 29.56695,-1.05878 c -0.4205,-1.09578 -1.24571,-1.69496 -1.83382,-1.33149 -0.58809,0.36347 -0.75524,-0.53997 -0.37144,-2.00765 0.94187,-3.60171 3.01567,-3.38763 3.21123,0.33149 0.1276,2.42541 0.35271,2.23389 1.17559,-1 l 1.01782,-4 0.15776,3.66667 c 0.0868,2.01666 0.90775,3.67585 1.82442,3.68708 1.1111,0.0136 1,0.45125 -0.33334,1.31292 -2.79441,1.80589 -3.96332,1.647 -4.84822,-0.65902 z m 27.66956,-5.67432 c 0.16417,-8.13749 0.75294,-7.34006 1.47669,2 0.24151,3.11667 -0.0268,5.66667 -0.59612,5.66667 -0.56939,0 -0.96564,-3.45 -0.88057,-7.66667 z m 9.53977,6.86111 c 0.44307,-0.44305 1.59305,-0.49041 2.55556,-0.1052 1.06364,0.42563 0.74771,0.74157 -0.80556,0.80555 -1.40555,0.0579 -2.19305,-0.25723 -1.75,-0.7003 z m 8.97223,-0.26004 c 0,-0.58608 2.25,-0.85149 5,-0.58981 8.57482,0.81597 9.27324,1.34004 2,1.50074 -3.85,0.0851 -7,-0.32485 -7,-0.91093 z m 24,-0.1104 c 0,-0.73333 0.6,-1.70415 1.33333,-2.15737 0.73333,-0.45323 1.33333,-0.22404 1.33333,0.50929 0,0.73333 -0.6,1.70415 -1.33333,2.15737 -0.73333,0.45323 -1.33333,0.22404 -1.33333,-0.50929 z m -250.05483,-1.57937 c -0.48338,-0.78212 -0.59291,-1.708 -0.24341,-2.05751 0.34951,-0.34951 0.99076,0.29041 1.42501,1.42204 0.90157,2.34948 0.13313,2.76275 -1.1816,0.63547 z m 3.99971,-4.7e-4 c -0.52772,-0.85388 0.10704,-1.25361 1.58798,-1 2.05157,0.35133 2.42023,-0.36356 2.18866,-4.24416 l -0.27848,-4.66667 1.3166,4.33334 c 1.65349,5.44214 2.77249,5.66065 1.70702,0.33333 -0.50963,-2.54815 -0.25555,-4 0.7,-4 0.83388,0 1.5,2.13575 1.5,4.80932 0,3.72716 -0.45002,4.63663 -2,4.04184 -1.1,-0.42211 -2,-0.18629 -2,0.52401 0,1.74604 -3.62384,1.64548 -4.72178,-0.13106 z m 48.92156,-2.20232 c -0.14342,-3.08091 -0.72591,-4.08959 -2.06491,-3.57576 -3.66475,1.40629 -3.30397,-1.79117 0.62703,-5.55731 l 4.0004,-3.83262 3.19473,3.96192 c 3.14117,3.89552 3.22867,3.91722 5.2192,1.29526 2.00109,-2.63588 2.01612,-2.63345 1.30085,0.21007 -0.81842,3.25359 -5.28988,5.00351 -6.80908,2.66476 -0.58174,-0.89557 -1.37676,0.69331 -1.89728,3.79184 l -0.89596,5.33333 0.26452,-5.66666 c 0.14695,-3.14776 -0.34382,-5.67575 -1.10404,-5.68708 -0.75272,-0.0112 -0.46857,-0.60204 0.63143,-1.31292 1.73603,-1.12191 1.71087,-1.2952 -0.19068,-1.31292 -2.66328,-0.0248 -4.10625,3.14932 -2.26756,4.98801 0.73336,0.73336 1.07637,3.05648 0.76225,5.16248 -0.56681,3.80019 -0.57264,3.79669 -0.7709,-0.4624 z m 7.80022,-4.87859 c 0,-0.27686 -1.05,-1.32686 -2.33333,-2.33333 -2.11475,-1.65849 -2.16191,-1.61133 -0.50341,0.50341 1.74182,2.221 2.83674,2.92731 2.83674,1.82992 z m 18.92695,2.3157 c 0.32855,-5.00248 0.98103,-6.39892 3.40639,-7.29036 1.65,-0.60647 3,-0.59198 3,0.0323 0,0.62418 -1.2,1.44867 -2.66667,1.83222 -2.03339,0.53174 -2.66667,1.81868 -2.66667,5.41916 v 4.72181 l 7,0.48971 7,0.4897 -7.73972,0.24664 -7.73972,0.24664 0.40639,-6.18772 z m 33.17832,4.29882 c -0.0579,-1.40554 0.25723,-2.19305 0.70029,-1.75 0.44306,0.44307 0.49042,1.59306 0.1052,2.55556 -0.42562,1.06364 -0.74157,0.74771 -0.80554,-0.80556 z m 2.66667,0 c -0.0579,-1.40554 0.25722,-2.19305 0.70029,-1.75 0.44305,0.44307 0.49041,1.59306 0.1052,2.55556 -0.42563,1.06364 -0.74157,0.74771 -0.80555,-0.80556 z m 72.64434,-1.59932 c 0.50714,-4.61984 1.58372,-5.44216 1.58372,-1.20969 0,1.87727 -0.44065,3.68555 -0.97924,4.01841 -0.53857,0.33286 -0.8106,-0.93106 -0.60448,-2.80872 z m -235.987343,1.15488 c 0.66369,-0.55 1.654502,-1.6 2.201805,-2.33333 0.567876,-0.76091 1.00386,-0.33157 1.015511,1 0.01133,1.29705 -0.966514,2.33333 -2.201806,2.33333 -1.222221,0 -1.679201,-0.45 -1.01551,-1 z m 4.932177,0.19444 c 0.443056,-0.44305 1.593056,-0.49041 2.555556,-0.1052 1.063644,0.42563 0.747701,0.74158 -0.805556,0.80555 -1.405555,0.0579 -2.193055,-0.25723 -1.75,-0.70029 z m 4.972223,-0.44908 c 0,-0.69005 0.6,-1.62546 1.333333,-2.07869 0.733333,-0.45323 1.333333,-0.18864 1.333333,0.58797 0,1.97736 3.633556,1.76946 4.450292,-0.25464 0.401756,-0.99565 0.714895,-0.72725 0.777779,0.66667 0.07791,1.72709 -0.934003,2.33333 -3.894737,2.33333 -2.2,0 -4,-0.56458 -4,-1.25464 z m 18.40416,-3.49296 c -0.304842,-2.61118 -0.07048,-5.0466 0.520792,-5.41202 0.591276,-0.36543 1.075048,1.42098 1.075048,3.96982 0,2.54884 0.75,4.93688 1.666666,5.30676 1.053827,0.42523 0.862328,0.71122 -0.520792,0.77778 -1.541826,0.0741 -2.351048,-1.296 -2.741714,-4.64234 z m 54.595843,3.78307 c 2.38333,-0.29576 6.28333,-0.29576 8.66666,0 2.38334,0.29577 0.43334,0.53777 -4.33333,0.53777 -4.76667,0 -6.71667,-0.242 -4.33333,-0.53777 z m 31,-0.3688 c 0,-0.73333 0.6,-1.33333 1.33333,-1.33333 0.73333,0 1.33333,0.6 1.33333,1.33333 0,0.73333 -0.6,1.33333 -1.33333,1.33333 -0.73333,0 -1.33333,-0.6 -1.33333,-1.33333 z m 29.53358,-3.4 c -0.2573,-6.93837 1.59075,-8.64865 9.06642,-8.39053 l 6.06666,0.20948 -6.66666,0.79052 -6.66667,0.79053 -0.79975,6 -0.79973,6 z m 3.79975,3.4 c -1.7092,-1.10457 -1.66073,-1.29547 0.33333,-1.31292 1.28334,-0.0107 2.33334,0.57959 2.33334,1.31292 0,1.62615 -0.15039,1.62615 -2.66667,0 z m 8,-2.66667 c 0,-2.2 0.49608,-4 1.10241,-4 0.60632,0 0.83823,1.8 0.51534,4 -0.3229,2.2 -0.81898,4 -1.10242,4 -0.28342,0 -0.51533,-1.8 -0.51533,-4 z m -25.33333,0.66667 c 0,-1.1 0.9,-2 2,-2 1.1,0 2,0.9 2,2 0,1.1 -0.9,2 -2,2 -1.1,0 -2,-0.9 -2,-2 z m 5.33333,0 c 0,-1.21295 1.18057,-1.96312 3,-1.90628 2.84383,0.0888 2.86119,0.14888 0.33333,1.1536 l -2.66666,1.05991 2.66666,0.69172 c 2.43144,0.63069 2.40203,0.70536 -0.33333,0.84638 -1.84652,0.0952 -3,-0.61432 -3,-1.84533 z M 96,334.00001 c 0,-1.1 0.581169,-2 1.291487,-2 0.710318,0 0.946125,0.9 0.524014,2 -0.422109,1.1 -1.003278,2 -1.291486,2 -0.288208,0 -0.524015,-0.9 -0.524015,-2 z m 20.44444,-0.0587 c 0,-1.06773 0.5,-1.94135 1.11112,-1.94135 1.44,0 1.44,2.30602 0,3.19599 -0.61112,0.37769 -1.11112,-0.18689 -1.11112,-1.25464 z m 136.66037,-3.27467 c -0.27973,-2.93333 -0.0428,-5.33333 0.52662,-5.33333 0.56938,0 1.03524,2.4 1.03524,5.33333 0,2.93334 -0.23698,5.33334 -0.52662,5.33334 -0.28965,0 -0.7555,-2.4 -1.03524,-5.33334 z m 19.00046,3.44444 c -0.0579,-1.40554 0.25722,-2.19305 0.70029,-1.75 0.44305,0.44307 0.49041,1.59306 0.1052,2.55556 -0.42563,1.06364 -0.74157,0.74771 -0.80555,-0.80556 z m 13.488,-1.44444 c -0.0272,-2.2 0.24941,-3.26141 0.61465,-2.3587 0.36523,0.9027 0.38745,2.7027 0.0495,4 -0.33806,1.29729 -0.63688,0.5587 -0.66406,-1.6413 z m 2.63968,-2.5051 -0.23295,-6.50511 6.9234,0.91841 c 8.14445,1.08042 9.0766,1.53488 9.0766,4.42534 0,1.98992 -0.14263,1.99357 -1.66667,0.0425 -0.91666,-1.17345 -4.17989,-2.53465 -7.25161,-3.02489 l -5.58496,-0.89135 -0.51544,5.77007 -0.51544,5.77005 -0.23293,-6.50511 z m 52.66112,3.95024 c -0.5628,-1.46664 -0.0424,-2.1118 1.70333,-2.1118 1.38255,0 2.76613,0.75 3.07467,1.66666 0.44542,1.32347 0.97168,1.32783 2.55554,0.0212 1.58874,-1.31066 1.99462,-1.29826 1.99462,0.0609 0,0.93853 -1.4,1.82228 -3.11112,1.96389 -1.71506,0.14195 -3.12027,-0.48369 -3.13152,-1.39424 -0.0151,-1.21663 -0.3174,-1.18324 -1.14779,0.1268 -0.90769,1.43191 -1.28527,1.36696 -1.93773,-0.33333 z m -192.5424,-0.40191 c 2.02674,-0.30648 5.02674,-0.29828 6.66666,0.0181 1.63992,0.31648 -0.0184,0.56723 -3.685,0.55723 -3.66666,-0.0107 -5.00841,-0.26896 -2.98166,-0.57543 z m 30.315,-0.60985 c 0,-0.60503 2.1,-1.10004 4.66666,-1.10004 6.0892,0 6.08552,1.96938 -0.004,2.10004 -2.5645,0.0551 -4.66274,-0.39499 -4.66274,-1 z M 64.259932,330.00001 c -0.02717,-2.2 0.24942,-3.26142 0.614651,-2.35871 0.36523,0.90271 0.387462,2.70271 0.0494,4 -0.338059,1.29729 -0.636884,0.55871 -0.664056,-1.64129 z m 16.492459,-0.27583 c -0.72358,-1.90027 -0.570428,-2.05341 0.746393,-0.7464 0.911224,0.90445 1.320895,1.98032 0.910379,2.39084 -0.410516,0.41052 -1.156064,-0.32948 -1.656772,-1.64444 z M 149,331.05903 c 1.65,-0.31781 4.35,-0.31781 6,0 1.65,0.3178 0.3,0.57783 -3,0.57783 -3.3,0 -4.65,-0.26003 -3,-0.57783 z m 45.66667,-0.39236 c 0,-0.73333 0.9,-1.33333 2,-1.33333 1.1,0 2,0.6 2,1.33333 0,0.73334 -0.9,1.33334 -2,1.33334 -1.1,0 -2,-0.6 -2,-1.33334 z m 5.33333,0 c 0,-0.73333 1.35,-1.41504 3,-1.5149 l 3,-0.18158 -3,-0.57782 c -1.65,-0.31782 -3,-1.11676 -3,-1.77547 0,-1.41916 5.13787,0.25941 5.25377,1.71644 0.24532,3.08349 -0.16616,3.66667 -2.5871,3.66667 -1.46667,0 -2.66667,-0.6 -2.66667,-1.33334 z m 73.33333,0 c -1.61728,-1.04516 -1.42592,-1.2964 1,-1.31292 1.65,-0.0107 3,0.57959 3,1.31292 0,1.67056 -1.41498,1.67056 -4,0 z M 69.333333,329.33334 c 0,-0.73333 0.6,-1.33333 1.333334,-1.33333 0.733333,0 1.333333,0.6 1.333333,1.33333 0,0.73333 -0.6,1.33333 -1.333333,1.33333 -0.733334,0 -1.333334,-0.6 -1.333334,-1.33333 z m 27.027778,0.52777 c 0.443056,-0.44305 1.593056,-0.49041 2.555556,-0.1052 1.063644,0.42563 0.747701,0.74158 -0.805556,0.80555 -1.405555,0.0579 -2.193055,-0.25723 -1.75,-0.70029 z m 15.143159,-0.25118 c -0.35921,-0.58122 1.10538,-1.19075 3.25464,-1.35452 2.14927,-0.16376 3.90776,0.31177 3.90776,1.05676 0,1.58886 -6.20502,1.84682 -7.1624,0.29776 z M 125,328.81061 c -1.28333,-0.97419 -2.33333,-2.13627 -2.33333,-2.58242 0,-1.50226 3.78672,0.62618 4.52172,2.54158 0.8782,2.28853 0.77511,2.29046 -2.18839,0.0408 z m 131.98076,1.05904 c -0.43836,-0.43836 -0.47417,-1.63836 -0.0796,-2.66667 1.03849,-2.70621 12.43217,-2.58675 12.43217,0.13036 0,1.1 -0.63541,2 -1.41202,2 -0.77662,0 -1.0412,-0.6 -0.58798,-1.33333 0.46466,-0.75183 -0.61646,-1.33334 -2.47893,-1.33334 -4.43652,0 -7.67307,1.34204 -6.76805,2.80638 0.83305,1.34792 0.1064,1.60858 -1.10559,0.3966 z m 41.68591,-0.53631 c -1.7092,-1.10457 -1.66074,-1.29547 0.33333,-1.31292 1.28333,-0.0107 2.33333,0.57959 2.33333,1.31292 0,1.62615 -0.15038,1.62615 -2.66666,0 z M 337,328.22223 c 1.28333,-1.34445 2.56884,-2.25894 2.85667,-2.03222 0.78764,0.62041 -2.67518,4.47666 -4.01992,4.47666 -0.64355,0 -0.12014,-1.1 1.16325,-2.44444 z m 5.98445,1.52834 c 1.27479,-0.33372 3.67479,-0.34583 5.33334,-0.0269 1.65854,0.31892 0.61554,0.59198 -2.31779,0.60678 -2.93333,0.0148 -4.29033,-0.24615 -3.01555,-0.57987 z M 76.444444,327.33334 c 0,-1.1 0.5,-2 1.111112,-2 0.611111,0 1.111111,0.9 1.111111,2 0,1.1 -0.5,2 -1.111111,2 -0.611112,0 -1.111112,-0.9 -1.111112,-2 z m 71.888886,1.045 c 2.01667,-0.30551 5.31667,-0.30551 7.33334,0 2.01666,0.30549 0.36666,0.55545 -3.66667,0.55545 -4.03333,0 -5.68333,-0.24996 -3.66667,-0.55545 z m 127,-0.37833 c -2.2,-0.5598 -3.4,-1.13472 -2.66666,-1.2776 0.73333,-0.14287 2.53333,-0.47588 4,-0.74003 1.46666,-0.26415 4.31666,-0.80324 6.33333,-1.19799 2.88303,-0.56433 3.64417,-0.22616 3.5614,1.58228 -0.0579,1.265 -0.37883,1.6372 -0.71317,0.82712 -0.33436,-0.81008 -2.14216,-1.17958 -4.01735,-0.82112 -2.49484,0.47692 -2.92945,0.95595 -1.62015,1.78579 2.07248,1.31355 0.73698,1.27016 -4.8774,-0.15845 z m 15.33334,0 c 0,-0.73334 0.6,-1.33334 1.33333,-1.33334 0.73333,0 1.33333,0.6 1.33333,1.33334 0,0.73333 -0.6,1.33333 -1.33333,1.33333 -0.73333,0 -1.33333,-0.6 -1.33333,-1.33333 z M 96.666667,326.66667 c 0.453225,-0.73333 1.388634,-1.33333 2.078689,-1.33333 0.690055,0 1.254644,0.6 1.254644,1.33333 0,0.73334 -0.935411,1.33334 -2.078689,1.33334 -1.143279,0 -1.70787,-0.6 -1.254644,-1.33334 z M 116,326.64321 c -3.07492,-1.0064 -2.9974,-1.07748 1,-0.91683 2.38333,0.0957 4.33333,0.64655 4.33333,1.22389 0,1.2229 -0.79935,1.17687 -5.33333,-0.30706 z m 12.76958,-0.14306 c 0.39662,-0.64176 3.83572,-1.11945 7.64245,-1.06156 7.89986,0.12014 7.12612,0.72944 -2.05447,1.61784 -3.47002,0.3358 -5.98461,0.0855 -5.58798,-0.55628 z m 193.89709,0.16652 c 0,-0.73333 1.65,-1.29116 3.66666,-1.23961 3.24912,0.0831 3.363,0.2242 1,1.23961 -3.64184,1.56495 -4.66666,1.56495 -4.66666,0 z m 9.33333,0 c -1.20172,-0.77661 -1.36617,-1.30065 -0.41203,-1.31292 0.87339,-0.0107 1.9588,0.57959 2.41203,1.31292 1.02307,1.65538 0.56149,1.65538 -2,0 z m 20.76957,-0.1665 c 0.39663,-0.64176 3.83574,-1.11946 7.64246,-1.06156 7.89986,0.12013 7.12612,0.72944 -2.05447,1.61784 -3.47001,0.3358 -5.9846,0.0855 -5.58799,-0.55628 z M 67.641291,325.79209 c 0.90271,-0.36523 2.70271,-0.38746 4,-0.0495 1.29729,0.33805 0.558709,0.63688 -1.641291,0.66405 -2.2,0.0272 -3.261419,-0.24941 -2.358709,-0.61465 z m 15.33483,-0.0781 c 2.003534,-0.30422 5.603534,-0.31034 8,-0.0136 2.396467,0.29675 0.757212,0.54567 -3.642788,0.55315 -4.4,0.008 -6.360745,-0.23531 -4.357212,-0.53955 z m 65.375549,-0.004 c 2.02674,-0.30648 5.02674,-0.29828 6.66666,0.0181 1.63992,0.31648 -0.0184,0.56722 -3.685,0.55722 -3.66666,-0.0107 -5.00841,-0.26896 -2.98166,-0.57542 z M 181,325.78369 c 0.91667,-0.36988 2.41667,-0.36988 3.33333,0 0.91667,0.36988 0.16667,0.67252 -1.66666,0.67252 -1.83334,0 -2.58334,-0.30264 -1.66667,-0.67252 z m 161.98445,-0.0331 c 1.27479,-0.33372 3.67479,-0.34583 5.33334,-0.0269 1.65854,0.31892 0.61554,0.59197 -2.31779,0.60677 -2.93333,0.0148 -4.29033,-0.24615 -3.01555,-0.57987 z M 97.333333,314.60575 c -1.465041,-0.9914 -0.966049,-1.11225 1.865538,-0.45178 2.722089,0.63492 3.589019,0.45421 2.930749,-0.6109 -0.62073,-1.00437 -0.16611,-1.21754 1.35319,-0.63454 1.67517,0.64282 1.99566,0.405 1.19657,-0.88795 -0.74041,-1.19801 -0.57758,-1.44837 0.50635,-0.77847 0.87876,0.54311 2.47147,0.26235 3.53934,-0.6239 1.06788,-0.88627 1.9416,-1.22911 1.9416,-0.76187 0,1.09315 -8.2465,6.13856 -10,6.11827 -0.733337,-0.008 -2.233337,-0.62447 -3.333337,-1.36886 z m 18.057827,-0.0327 c 0.74771,-1.20983 0.39338,-1.4424 -1.24168,-0.81496 -1.25839,0.48288 -1.97085,0.36485 -1.58325,-0.26231 0.38761,-0.62716 3.77474,-1.14028 7.52696,-1.14028 4.26766,0 6.15157,0.42504 5.03118,1.13513 -1.34218,0.85067 -1.12274,1.16664 0.87563,1.26082 1.46667,0.0692 1.94993,0.41722 1.07392,0.77356 -0.87601,0.35633 -2.82601,-0.012 -4.33333,-0.81884 -2.00509,-1.0731 -3.49944,-1.0606 -5.56816,0.0465 -2.23162,1.19433 -2.60705,1.15647 -1.78127,-0.17967 z m 38.81485,0.42692 c -0.33992,-0.55 0.76738,-1 2.46066,-1 1.69328,0 2.80057,0.45 2.46065,1 -0.33992,0.55 -1.44721,1 -2.46065,1 -1.01344,0 -2.12074,-0.45 -2.46066,-1 z m 17.12732,-0.33334 c -0.45322,-0.73333 0.44678,-1.33333 2,-1.33333 1.55323,0 2.45323,0.6 2,1.33333 -0.45322,0.73334 -1.35322,1.33334 -2,1.33334 -0.64677,0 -1.54677,-0.6 -2,-1.33334 z m 7,0.4503 c 0.91667,-0.36988 2.41667,-0.36988 3.33334,0 0.91666,0.36988 0.16666,0.67252 -1.66667,0.67252 -1.83333,0 -2.58333,-0.30264 -1.66667,-0.67252 z m 8,0 c 0.91667,-0.36988 2.41667,-0.36988 3.33334,0 0.91666,0.36988 0.16666,0.67252 -1.66667,0.67252 -1.83333,0 -2.58333,-0.30264 -1.66667,-0.67252 z M 232,313.88893 c -3.28203,-1.82114 -3.28716,-1.84991 -0.33333,-1.86927 1.65,-0.0107 3,0.64453 3,1.45633 0,0.81179 0.9,1.13063 2,0.70851 1.1,-0.42211 2,-0.18629 2,0.52401 0,1.74344 -2.63043,1.42007 -6.66667,-0.81958 z m 12.02041,0.44441 c -0.012,-1.29705 0.96652,-2.33333 2.20182,-2.33333 1.22221,0 1.6792,0.45 1.0155,1 -0.66369,0.55 -1.6545,1.6 -2.2018,2.33333 -0.56788,0.76091 -1.00386,0.33157 -1.01552,-1 z m 9.24779,-4.03475 c 0.64899,-5.49328 0.67679,-5.52107 1.12904,-1.12904 0.25503,2.47658 -0.0444,5.01095 -0.66537,5.63192 -0.62098,0.62098 -0.82963,-1.40532 -0.46367,-4.50288 z m 8.24509,4.15455 c 1.19898,-0.98256 2.53323,-2.68647 2.96502,-3.78647 0.43177,-1.1 0.6508,-0.50613 0.4867,1.31971 -0.1923,2.13983 -1.24613,3.48561 -2.96501,3.78647 -2.41263,0.42228 -2.45899,0.29656 -0.48671,-1.31971 z m 34.69335,0.36945 c -1.31673,-0.83449 -0.83196,-1.37786 1.824,-2.04446 1.98955,-0.49935 3.94656,-0.57871 4.34892,-0.17635 0.40235,0.40236 -0.41845,0.79137 -1.824,0.86447 -1.99035,0.10346 -1.81832,0.36901 0.77777,1.20042 l 3.33334,1.06752 -3.33334,0.11254 c -1.83333,0.0619 -4.14034,-0.39898 -5.12669,-1.0241 z m 9.97785,-0.82258 c -0.4221,-1.1 -0.18629,-2 0.52402,-2 0.71032,0 1.29149,0.9 1.29149,2 0,1.1 -0.23581,2 -0.52401,2 -0.28822,0 -0.86938,-0.9 -1.2915,-2 z m 7.12351,-0.0305 c -1.40904,-1.6978 -1.32656,-1.8929 0.50341,-1.19068 1.20372,0.46191 2.18859,1.37564 2.18859,2.03052 0,1.71462 -0.77183,1.47382 -2.692,-0.83984 z M 341,315.05902 c 1.65,-0.31781 3,-1.43609 3,-2.48509 0,-1.22927 1.30345,-1.85228 3.66667,-1.7526 2.80174,0.11813 3.03762,0.3105 1,0.81529 -1.46667,0.36335 -3.14648,1.49375 -3.73292,2.512 -0.58644,1.01825 -2.38644,1.76967 -4,1.6698 L 338,315.63685 Z m 17.66667,-0.44635 c -2.98235,-1.02928 -2.84196,-1.1234 1.33333,-0.89388 3.70423,0.20363 4.62848,-0.22214 4.48148,-2.06446 -0.10187,-1.27655 0.38988,-2.32099 1.09273,-2.32099 2.10402,0 0.59266,5.95369 -1.57421,6.20125 -1.1,0.12574 -3.5,-0.28918 -5.33333,-0.92192 z M 84.154668,311.0787 c -0.163488,-4.49727 1.670536,-6.85223 3.292545,-4.22776 0.602564,0.97496 0.386851,1.20389 -0.574536,0.60972 -0.846638,-0.52326 -1.539344,-0.35045 -1.539344,0.384 0,0.73444 2.55,1.56503 5.666667,1.84573 l 5.666667,0.5104 -5.568902,0.23294 c -4.056976,0.1697 -5.734448,0.86642 -6.178664,2.56628 -0.33537,1.28333 -0.679365,0.41874 -0.764433,-1.92131 z M 138,313.33334 140.66667,312.18743 138,311.98846 c -1.46796,-0.1096 -1.91748,-0.50128 -1,-0.87149 3.214,-1.29688 1.61964,-2.96091 -3.33333,-3.479 l -5,-0.52302 5.57393,-0.22415 c 4.80701,-0.19329 5.65344,0.18865 6.15176,2.77587 0.49543,2.5722 0.60372,2.47712 0.7594,-0.66666 0.18843,-3.80519 -0.18,-3.99873 -7.47284,-3.92523 -2.3766,0.024 -4.66201,-0.50807 -5.07869,-1.18228 -0.4247,-0.68716 2.37483,-1.22583 6.37081,-1.22583 7.02359,0 7.13307,0.0611 7.44515,4.1568 0.35673,4.68167 -1.67671,7.88924 -4.91278,7.74948 -1.66962,-0.0721 -1.5551,-0.35797 0.49659,-1.23961 z m 9.66667,0.45029 c 0.91666,-0.36988 2.41666,-0.36988 3.33333,0 0.91667,0.36988 0.16667,0.67252 -1.66667,0.67252 -1.83333,0 -2.58333,-0.30264 -1.66666,-0.67252 z m 13.77193,-1.00585 c -0.0579,-1.40555 0.25723,-2.19305 0.70029,-1.75 0.44306,0.44307 0.49042,1.59305 0.1052,2.55556 -0.42562,1.06364 -0.74157,0.74771 -0.80554,-0.80556 z m 4.17056,0.22223 c -0.0927,-0.91667 -0.56268,-3.31667 -1.04432,-5.33334 C 164.07732,305.62542 164.25059,304 164.95568,304 c 0.6966,0 1.26655,0.76074 1.26655,1.69051 0,0.92977 0.41142,3.32978 0.91429,5.33334 0.50285,2.00356 0.40285,3.64282 -0.22223,3.64282 -0.62508,0 -1.2124,-0.75 -1.30513,-1.66666 z m 26.05751,-0.1894 c -1.28334,-0.97419 -2.33334,-2.22858 -2.33334,-2.78752 0,-0.55895 0.84595,-0.3142 1.87987,0.54389 1.49128,1.23764 2.31815,0.93444 4,-1.46675 1.16608,-1.6648 2.12013,-4.3934 2.12013,-6.06357 0,-1.81036 0.80767,-3.03666 2,-3.03666 1.1,0 2,1.15396 2,2.56436 0,1.41042 1.4995,4.34642 3.33219,6.52446 2.59077,3.07896 2.91532,4.12007 1.45861,4.67905 -1.03046,0.39543 -2.92324,-0.44089 -4.20616,-1.8585 -2.30405,-2.54595 -2.35541,-2.54486 -4.20088,0.0899 -2.17641,3.10728 -2.89836,3.2041 -6.05042,0.81132 z m 10.89276,-2.00643 c 2.396,2.90337 2.36906,2.64203 -0.29438,-2.85596 -2.73929,-5.65456 -2.9923,-5.84207 -3.85472,-2.85674 -0.50765,1.75728 -2.00336,4.48059 -3.3238,6.05179 -1.95405,2.32516 -1.72753,2.26207 1.21739,-0.33909 l 3.61817,-3.19581 z m 6.87917,1.9736 c -0.0579,-1.40555 0.25723,-2.19305 0.70029,-1.75 0.44306,0.44307 0.49042,1.59305 0.1052,2.55556 -0.42562,1.06364 -0.74157,0.74771 -0.80554,-0.80556 z m 2.66667,0 c -0.0579,-1.40555 0.25722,-2.19305 0.70029,-1.75 0.44305,0.44307 0.49041,1.59305 0.1052,2.55556 -0.42563,1.06364 -0.74157,0.74771 -0.80555,-0.80556 z m 29.43858,-0.77777 c 0,-1.83334 0.30264,-2.58334 0.67252,-1.66667 0.36988,0.91667 0.36988,2.41667 0,3.33333 -0.36988,0.91667 -0.67252,0.16667 -0.67252,-1.66666 z m 35.78948,0.0927 c 0,-1.60916 -1.12446,-2.79051 -3,-3.15176 -2.5722,-0.49543 -2.47712,-0.60372 0.66667,-0.7594 3.07064,-0.15205 3.66667,0.36027 3.66667,3.15176 0,1.83333 -0.3,3.33333 -0.66667,3.33333 -0.36667,0 -0.66667,-1.15826 -0.66667,-2.57393 z m 2.84824,-0.42607 c -0.15821,-3.195 0.2901,-3.6433 3.4851,-3.48509 3.01849,0.14948 3.15082,0.28183 0.74865,0.74865 -1.68407,0.32728 -3.15781,1.80103 -3.48509,3.4851 -0.46683,2.40217 -0.59918,2.26984 -0.74866,-0.74866 z m 29.25703,1.11111 c -0.0579,-1.40555 0.25723,-2.19305 0.70029,-1.75 0.44306,0.44307 0.49042,1.59305 0.1052,2.55556 -0.42562,1.06364 -0.74157,0.74771 -0.80554,-0.80556 z M 320,314.14266 c 0,-0.28821 0.93116,-0.88133 2.06925,-1.31807 1.18656,-0.45532 1.72176,-0.2318 1.25464,0.52402 C 322.54088,314.61555 320,315.22254 320,314.14266 Z m 33.17488,-3.18455 c -0.43925,-2.64962 -0.24359,-3.89348 0.49612,-3.15377 0.67179,0.67179 0.99819,2.64064 0.72533,4.37521 -0.41984,2.66892 -0.60764,2.48112 -1.22145,-1.22144 z m -96.76009,0.63435 c -0.39367,-0.63697 0.0403,-1.85587 0.96429,-2.70863 1.30599,-1.20526 1.51624,-1.08045 0.94428,0.56062 -0.43464,1.24708 0.001,2.11112 1.06508,2.11112 2.31665,0 -0.0429,-4.83869 -2.43535,-4.99417 -1.13669,-0.0739 -1.0975,-0.31422 0.13147,-0.80594 1.82988,-0.73218 5.46655,3.09393 5.53976,5.82835 0.0479,1.7865 -5.10627,1.79369 -6.20948,0.008 z m 11.21225,0.68265 c -0.25209,-0.51797 -0.35087,-2.34094 -0.21951,-4.05104 0.18668,-2.43005 -0.30506,-2.96704 -2.251,-2.45816 -1.36942,0.35811 -2.48986,0.10733 -2.48986,-0.5574 0,-0.66468 -1.35,-1.25588 -3,-1.31377 -2.00459,-0.0704 -2.33639,-0.35787 -1,-0.86659 1.1,-0.41873 2.44081,-1.42136 2.97958,-2.22807 0.5876,-0.87984 1.02526,-0.39969 1.09371,1.19992 l 0.11413,2.66667 L 264,302 c 1.02287,-2.38033 1.15597,-2.40766 1.23961,-0.25464 0.0516,1.32662 0.69372,2.0412 1.42706,1.58798 C 267.4,302.88011 268,303.18011 268,304 c 0,0.8199 0.75,1.06728 1.66667,0.54975 1.32501,-0.74807 1.32874,-0.5766 0.0183,0.83644 -1.31516,1.41804 -1.23612,2.23303 0.39091,4.03087 1.81497,2.00552 1.81767,2.33853 0.0245,3.02664 -1.10817,0.42525 -2.22112,0.34939 -2.47322,-0.16859 z M 338,312.00001 c -2.363,-1.01542 -2.24912,-1.15658 1,-1.23962 2.01667,-0.0516 3.66667,0.50628 3.66667,1.23962 0,1.56494 -1.02483,1.56494 -4.66667,0 z m -223.33333,-1.33334 c -1.60903,-1.03984 -1.39816,-1.29649 1.07869,-1.31292 1.71675,-0.012 2.71415,0.56942 2.25464,1.31292 -0.99091,1.60334 -0.85235,1.60334 -3.33333,0 z m 6.54575,-0.10293 c -1.36756,-0.86573 -0.88094,-1.19511 1.78758,-1.20997 3.98164,-0.0221 4.69859,0.63162 1.87909,1.71357 -0.98317,0.37728 -2.63317,0.15065 -3.66667,-0.5036 z m 24.71719,0.21683 c 0.41452,-0.6707 -6e-5,-1.52334 -0.9213,-1.89474 -1.01048,-0.40738 -0.74931,-0.71704 0.65836,-0.78054 1.28333,-0.0579 2.33333,0.79473 2.33333,1.89473 0,1.1 -0.63541,2 -1.41203,2 -0.77661,0 -1.07286,-0.54876 -0.65836,-1.21945 z m 3.40372,-0.78056 c 0,-1.1 0.58118,-2 1.2915,-2 0.7103,0 0.94612,0.9 0.52401,2 -0.42212,1.1 -1.00328,2 -1.29149,2 -0.2882,0 -0.52402,-0.9 -0.52402,-2 z m 168.10527,0.11106 c -0.0579,-1.40554 0.25723,-2.19305 0.70029,-1.75 0.44306,0.44307 0.49042,1.59306 0.1052,2.55556 -0.42562,1.06364 -0.74157,0.74771 -0.80554,-0.80556 z M 168,306 c 0,-2.56666 0.47952,-4.66666 1.0656,-4.66666 0.58608,0 0.82044,2.1 0.52079,4.66666 -0.29964,2.56667 -0.77916,4.66667 -1.0656,4.66667 -0.28643,0 -0.52079,-2.1 -0.52079,-4.66667 z m 69.10481,-0.66666 C 236.82508,302.4 237.06201,300 237.63143,300 c 0.56938,0 1.03524,2.4 1.03524,5.33334 0,2.93333 -0.23698,5.33333 -0.52662,5.33333 -0.28965,0 -0.7555,-2.4 -1.03524,-5.33333 z m 68.22852,4 c -1.7092,-1.10457 -1.66073,-1.29547 0.33334,-1.31292 1.28333,-0.0107 2.33333,0.57959 2.33333,1.31292 0,1.62615 -0.15039,1.62615 -2.66667,0 z M 66.976121,308.38063 c 2.003534,-0.30422 5.603534,-0.31034 8,-0.0136 2.396467,0.29675 0.757212,0.54567 -3.642788,0.55315 -4.4,0.008 -6.360745,-0.23531 -4.357212,-0.53955 z m 114.718319,0.14715 c 0.44307,-0.44305 1.59305,-0.49041 2.55556,-0.1052 1.06364,0.42563 0.74771,0.74157 -0.80556,0.80555 -1.40555,0.0579 -2.19305,-0.25723 -1.75,-0.7003 z M 336,308.82211 c 0,-0.28118 1.5,-0.79797 3.33333,-1.14844 1.83334,-0.35046 3.33334,-0.1204 3.33334,0.51123 0,0.63164 -1.5,1.14844 -3.33334,1.14844 C 337.5,309.33334 336,309.10329 336,308.82211 Z m 8,-0.63721 c 0,-0.63164 1.5,-0.86169 3.33333,-0.51123 4.27922,0.81803 4.27922,1.65967 0,1.65967 C 345.5,309.33334 344,308.81654 344,308.1849 Z M 80.666667,306.66667 c -0.453226,-0.73333 -0.188635,-1.33333 0.587977,-1.33333 0.776612,0 1.412023,0.6 1.412023,1.33333 0,0.73334 -0.26459,1.33334 -0.587978,1.33334 -0.323388,0 -0.958797,-0.6 -1.412022,-1.33334 z m 9.027777,0.52778 c 0.443056,-0.44306 1.593056,-0.49042 2.555556,-0.1052 1.063644,0.42562 0.747701,0.74157 -0.805556,0.80554 -1.405555,0.0579 -2.193055,-0.25722 -1.75,-0.70029 z m 4.664067,-1.56217 c -0.520892,-1.99189 -1.801518,-2.97232 -3.900351,-2.98602 -2.408847,-0.0157 -2.683035,-0.29994 -1.196669,-1.24031 1.178261,-0.74544 2.863574,-0.71925 4.333333,0.0673 1.591711,0.85186 3.327919,0.79338 5.133451,-0.17292 C 102.43885,299.31452 110,300.15652 110,302.55556 c 0,1.03888 -0.75041,2.13903 -1.66757,2.44475 -1.05863,0.35287 -1.37171,-0.21517 -0.85735,-1.55556 0.62454,-1.62752 -0.0628,-2.10169 -2.99909,-2.06901 -4.15608,0.0463 -7.674369,2.17381 -8.692666,5.25654 -0.460065,1.39278 -0.875301,1.10134 -1.424813,-1 z m 18.616109,1.49314 c 0.90271,-0.36523 2.70271,-0.38746 4,-0.0495 1.29729,0.33806 0.55871,0.63688 -1.64129,0.66406 -2.2,0.0272 -3.26142,-0.24942 -2.35871,-0.61466 z m 8,0 c 0.90271,-0.36523 2.70271,-0.38746 4,-0.0495 1.29729,0.33806 0.55871,0.63688 -1.64129,0.66406 -2.2,0.0272 -3.26142,-0.24942 -2.35871,-0.61466 z M 160,306.8381 c 0,-0.72562 -1.35,-1.57931 -3,-1.89712 -2.16947,-0.41786 -1.80035,-0.6281 1.33333,-0.7594 4.18772,-0.17547 5.7418,1.45722 3,3.15176 C 160.6,307.78657 160,307.5637 160,306.8381 Z m 80.66667,-0.17143 c 0.45322,-0.73333 1.42404,-1.33333 2.15737,-1.33333 0.73333,0 0.96252,0.6 0.50929,1.33333 -0.45322,0.73334 -1.42404,1.33334 -2.15737,1.33334 -0.73333,0 -0.96252,-0.6 -0.50929,-1.33334 z M 66.976121,305.71396 c 2.003534,-0.30422 5.603534,-0.31034 8,-0.0136 2.396467,0.29675 0.757212,0.54567 -3.642788,0.55315 -4.4,0.008 -6.360745,-0.23531 -4.357212,-0.53955 z M 274.5034,303.86594 c 1.65344,-1.5404 3.37277,-2.4342 3.82075,-1.98623 0.44798,0.44799 -0.34168,1.68923 -1.75482,2.75833 -3.92548,2.96982 -5.46486,2.3945 -2.06593,-0.7721 z m 8.982,0.71622 c -0.43995,-1.14648 -1.40413,-1.71106 -2.14265,-1.25465 -0.73851,0.45643 -1.34275,0.19447 -1.34275,-0.58215 0,-2.38176 3.26163,-1.56722 5.02391,1.25464 0.91594,1.46667 1.12446,2.66667 0.46337,2.66667 -0.66108,0 -1.56193,-0.93803 -2.00188,-2.08451 z M 288,304 c 0,-1.46666 0.54383,-2.66666 1.20851,-2.66666 0.66468,0 0.8947,1.2 0.51116,2.66666 -0.38355,1.46667 -0.92738,2.66667 -1.20851,2.66667 -0.28113,0 -0.51116,-1.2 -0.51116,-2.66667 z m -198.305556,0.52778 c 0.443056,-0.44306 1.593056,-0.49042 2.555556,-0.1052 1.063644,0.42562 0.747701,0.74157 -0.805556,0.80554 -1.405555,0.0579 -2.193055,-0.25722 -1.75,-0.70029 z m 29.035996,-1.7665 -3.26957,-2.51274 3.4944,0.20906 c 2.4362,0.14576 3.44132,0.91566 3.31915,2.5424 -0.0964,1.28334 -0.19755,2.31999 -0.22483,2.30368 -0.0273,-0.0163 -1.52089,-1.16038 -3.31915,-2.5424 z M 176,303.41203 c 0,-1.05672 0.54404,-2.25755 1.20899,-2.66851 0.66494,-0.41096 0.89496,0.45363 0.51116,1.92131 C 176.906,305.77815 176,306.1717 176,303.41203 Z m 161.33333,1.41015 c 0,-0.28114 1.2,-0.82496 2.66667,-1.20851 1.46667,-0.38355 2.66667,-0.15352 2.66667,0.51116 0,0.66468 -1.2,1.20851 -2.66667,1.20851 -1.46667,0 -2.66667,-0.23003 -2.66667,-0.51116 z m 7.6413,-0.36343 c 0.9027,-0.36523 2.7027,-0.38745 4,-0.0495 1.29729,0.33806 0.5587,0.63688 -1.6413,0.66406 -2.2,0.0272 -3.26141,-0.24942 -2.3587,-0.61466 z m 7.23589,-1.79208 c 0,-1.83333 0.30264,-2.58333 0.67252,-1.66667 0.36988,0.91667 0.36988,2.41667 0,3.33334 -0.36988,0.91666 -0.67252,0.16666 -0.67252,-1.66667 z M 84,302.76443 c 0,-0.67956 -1.05,-1.50996 -2.333333,-1.84532 -1.968619,-0.51445 -1.994136,-0.63395 -0.16326,-0.76444 1.193541,-0.0851 2.917008,0.74533 3.829926,1.84533 1.146806,1.38182 1.197268,2 0.16326,2 C 84.673467,304 84,303.444 84,302.76443 Z m 61.33333,-0.60899 c 0,-0.28118 1.5,-0.79797 3.33334,-1.14844 C 150.5,300.65654 152,300.8866 152,301.51823 c 0,0.63164 -1.5,1.14844 -3.33333,1.14844 -1.83334,0 -3.33334,-0.23005 -3.33334,-0.51123 z m 12,-0.53638 c 0,-0.5762 1.2,-1.04763 2.66667,-1.04763 1.46667,0 2.66667,0.47143 2.66667,1.04763 0,0.57618 -1.2,1.04761 -2.66667,1.04761 -1.46667,0 -2.66667,-0.47143 -2.66667,-1.04761 z M 164,301.35874 c 0,-1.95938 6.64771,-3.24436 8.28969,-1.60238 1.01482,1.01482 0.64446,1.22294 -1.28048,0.71955 -1.48954,-0.38952 -3.11138,-0.056 -3.60409,0.74127 C 166.28897,303.02314 164,303.1183 164,301.35874 Z m 80,-0.0672 C 244,300.58118 244.9,300 246,300 c 2.56089,0 2.56089,0.8328 0,1.81551 -1.1,0.42211 -2,0.18629 -2,-0.52401 z m 48,0.33265 c 0,-0.57339 1.65,-1.16747 3.66667,-1.32016 2.80753,-0.21257 3.19805,0.0269 1.66666,1.02211 C 294.91643,302.8968 292,303.05979 292,301.62419 Z m 20,-0.33265 C 312,300.58118 312.9,300 314,300 c 2.56089,0 2.56089,0.8328 0,1.81551 -1.1,0.42211 -2,0.18629 -2,-0.52401 z m 50,0.0419 -4,-1.01782 4.33333,-0.15776 c 2.38334,-0.0868 4.33334,0.44218 4.33334,1.17552 0,0.73333 -0.15,1.26234 -0.33334,1.17558 C 366.15,302.42212 364.2,301.89314 362,301.33334 Z m -231.02388,-0.95277 c 2.00353,-0.30423 5.60353,-0.31035 8,-0.0136 2.39647,0.29675 0.75721,0.54567 -3.64279,0.55315 -4.4,0.008 -6.36074,-0.23531 -4.35721,-0.53955 z m 206.675,0.0365 c 1.27479,-0.33372 3.67479,-0.34582 5.33333,-0.0269 1.65855,0.31892 0.61555,0.59197 -2.31778,0.60677 -2.93334,0.0148 -4.29034,-0.24614 -3.01555,-0.57986 z M 276.33333,299.045 c 2.01667,-0.3055 5.31667,-0.3055 7.33334,0 2.01666,0.3055 0.36666,0.55546 -3.66667,0.55546 -4.03333,0 -5.68333,-0.24996 -3.66667,-0.55546 z M 160.55545,279.5243 c -0.38369,-0.99987 -2.15706,-1.64844 -3.96473,-1.45002 -1.79879,0.19746 -2.93216,-0.18848 -2.5186,-0.85764 C 154.48568,276.5475 154.22404,276 153.49071,276 c -0.73334,0 -1.70415,0.6 -2.15738,1.33334 -0.45322,0.73333 -1.42404,1.33333 -2.15737,1.33333 -0.73333,0 -0.96252,-0.6 -0.50929,-1.33333 C 149.11989,276.6 148.91949,276 148.22135,276 c -0.69816,0 -1.61474,0.9 -2.03686,2 -0.44778,1.16694 -2.3122,1.94464 -4.47598,1.8671 L 138,279.73416 l 3.33333,-0.9272 c 5.12856,-1.42657 4.21975,-4.78433 -1.33333,-4.92621 -4.64969,-0.1188 -4.65091,-0.11733 -0.33333,0.41381 2.38333,0.29319 4.33333,1.16362 4.33333,1.9343 0,0.87012 -1.71016,1.0804 -4.51197,0.55477 -3.2386,-0.60756 -4.71391,-0.32019 -5.22752,1.01828 -0.39356,1.0256 -2.26318,1.86473 -4.15471,1.86473 -2.64248,3e-5 -3.43913,-0.67173 -3.43913,-2.89997 0,-1.595 -0.65106,-3.55105 -1.4468,-4.3468 -1.04018,-1.04017 -0.85837,-2.58468 0.64686,-5.49549 1.60007,-3.09418 1.7054,-4.20568 0.4468,-4.7146 -0.90578,-0.36626 -0.44686,-0.75546 1.0198,-0.8649 L 130,261.14591 l -2.66667,-1.17873 c -1.7735,-0.78392 0.90598,-1.08747 8,-0.90628 10.59288,0.27056 10.66667,0.29698 10.66667,3.82062 0,1.9515 0.45,4.0015 1,4.55555 0.55,0.55407 1,2.44279 1,4.19717 0,1.78702 0.58636,2.82742 1.33333,2.36576 1.92264,-1.18825 1.64427,-7.32952 -0.33333,-7.35374 -1.22048,-0.0149 -1.18009,-0.3287 0.15087,-1.17194 1.53449,-0.97218 1.53449,-1.26408 0,-1.87432 -1.29046,-0.5132 -1.3342,-0.75333 -0.15087,-0.82806 0.91667,-0.0579 1.66667,-1.30527 1.66667,-2.77194 0,-1.46666 0.61933,-2.66666 1.37629,-2.66666 1.63332,0 3.84267,5.37882 3.0578,7.44444 -0.30187,0.79445 0.25837,1.44445 1.24499,1.44445 1.22113,0 1.61258,-1.23495 1.22613,-3.86808 -0.55135,-3.75656 -0.41883,-3.85587 4.59687,-3.44444 4.18373,0.34317 5.2455,0.99339 5.59065,3.42363 0.46851,3.29882 1.24361,3.60346 4.2406,1.66666 1.31236,-0.8481 1.43145,-1.29952 0.34639,-1.31292 -1.11082,-0.0137 -0.90412,-0.89576 0.62965,-2.68708 2.71425,-3.17002 4.35729,-3.42141 4.35729,-0.66666 0,2.34692 1.54334,2.59 3.57091,0.56242 0.79067,-0.79066 3.16067,-1.24066 5.26667,-1 3.54929,0.4056 3.85878,0.90036 4.23548,6.77091 0.22352,3.48333 0.95468,6.33333 1.62482,6.33333 0.67014,0 0.91871,1.05 0.55238,2.33334 -0.36634,1.28333 0.0441,0.98333 0.91225,-0.66667 0.91231,-1.73407 2.75829,-2.95559 4.37457,-2.89473 1.53795,0.0579 2.04626,0.40789 1.12959,0.77777 -0.91667,0.36988 -1.66667,2.12252 -1.66667,3.89473 0,2.58478 0.68879,3.22223 3.48172,3.22223 3.25698,0 3.42522,-0.30123 2.60626,-4.66667 -0.81907,-4.36596 -0.651,-4.66666 2.60812,-4.66666 2.95849,0 3.34637,0.43237 2.57322,2.86836 -0.73792,2.32496 -0.48168,2.70385 1.35254,2 1.2446,-0.4776 2.96384,-0.91054 3.82053,-0.96208 0.85668,-0.0515 0.35761,-0.60936 -1.10905,-1.23962 -2.32928,-1.00093 -2.1831,-1.15776 1.1555,-1.23961 3.32922,-0.0816 3.7185,0.2932 3.01822,2.90628 -0.44219,1.65 -0.81218,3.93 -0.82219,5.06667 -0.0133,1.46954 -1.36653,2.06666 -4.68487,2.06666 -4.52681,0 -4.67365,-0.16182 -4.89961,-5.4 l -0.23293,-5.4 -0.49736,5.4 c -0.47639,5.17228 -0.69148,5.4 -5.1004,5.4 -4.02298,0 -4.61368,-0.42845 -4.68755,-3.4 l -0.0845,-3.4 -1.24056,3.09382 c -0.87886,2.19176 -2.11767,2.96928 -4.24882,2.66666 -2.7045,-0.38401 -3.04834,-1.2686 -3.40522,-8.76048 C 186.50589,261.96288 184,259.32862 184,267.9132 184,274.26704 181.99191,280 179.76633,280 c -1.2701,0 -1.27744,-0.35556 -0.0329,-1.6 0.88,-0.88 1.59081,-2.23 1.57959,-3 -0.0107,-0.77 -0.65976,-0.5 -1.44119,0.6 -1.08768,1.53112 -1.22665,1.1142 -0.5928,-1.77838 0.57836,-2.63935 0.37204,-3.49662 -0.68439,-2.84371 -0.83178,0.51407 -1.24645,2.32556 -0.92148,4.02552 0.32498,1.69997 0.14856,3.80651 -0.39204,4.6812 -1.47734,2.39029 -3.94776,0.20213 -3.94776,-3.49665 0,-2.37034 -0.72762,-3.25464 -2.67796,-3.25464 -2.32342,0 -2.4625,0.34501 -1.05048,2.60602 0.89512,1.43332 1.21471,3.01882 0.71019,3.52334 -1.18727,1.18728 -5.16533,-2.08696 -4.27865,-3.52164 0.37056,-0.59958 0.064,-1.467 -0.68135,-1.92762 C 164.55,273.51587 164,274.8314 164,277.25464 c 0,4.13986 -2.17656,5.57402 -3.44455,2.26966 z m 1.66092,-5.19096 c -0.36988,-0.91667 -0.67252,-0.16667 -0.67252,1.66666 0,1.83334 0.30264,2.58334 0.67252,1.66667 0.36988,-0.91667 0.36988,-2.41667 0,-3.33333 z m 15.55876,-5.30127 c 1.18374,-0.75301 1.17995,-0.99613 -0.0157,-1.01165 -0.86567,-0.0107 -1.83395,-1.37042 -2.15176,-3.02042 -0.3178,-1.65 -0.56351,0.9 -0.54601,5.66667 0.0175,4.76667 0.2846,6.57191 0.59356,4.01165 0.30896,-2.56026 1.26294,-5.10106 2.11994,-5.64625 z M 191,277.78363 c -1.03947,-0.41944 -1.75948,-3.76669 -1.91331,-8.89473 l -0.24664,-8.22223 -0.49576,7.1744 c -0.55857,8.08352 0.12174,10.87388 2.61387,10.72033 1.33819,-0.0824 1.34725,-0.25102 0.0419,-0.77777 z m 19.91667,-0.0277 c -0.96251,-0.38516 -2.1125,-0.3378 -2.55556,0.1052 -0.44306,0.44306 0.34445,0.75818 1.75,0.70029 1.55326,-0.064 1.8692,-0.37992 0.80556,-0.80555 z m 3.22222,-2.72808 c -0.44306,-0.44306 -0.75818,0.34445 -0.70029,1.75 0.064,1.55326 0.37992,1.8692 0.80555,0.80556 0.38516,-0.96251 0.3378,-2.1125 -0.1052,-2.55556 z m -81.74035,-7.16262 c -0.62098,-0.62097 -0.82963,1.40532 -0.46368,4.50288 0.649,5.49328 0.67679,5.52107 1.12905,1.12904 0.25502,-2.47657 -0.0444,-5.01094 -0.66537,-5.63192 z m 26.43821,7.21219 c 1.04246,-1.28517 1.15237,-1.84957 0.25538,-1.31159 -0.866,0.5194 -1.92334,0.37999 -2.34965,-0.30981 -0.42632,-0.68979 0.28221,-1.52997 1.57453,-1.86708 1.5061,-0.39285 1.06836,-0.66843 -1.21925,-0.76757 -2.18976,-0.0949 -3.80453,-1.05635 -4.17865,-2.488 -0.33538,-1.28334 -0.67019,-0.23334 -0.74403,2.33333 -0.0868,3.01835 0.26415,4.03817 0.99369,2.88729 0.85756,-1.35285 1.30215,-1.11314 1.85475,1 0.88057,3.3673 1.44369,3.44459 3.81323,0.52343 z M 130.66667,272 c 0,-1.46666 -0.23002,-2.66666 -0.51116,-2.66666 -0.28114,0 -0.82497,1.2 -1.20851,2.66666 -0.38354,1.46667 -0.15352,2.66667 0.51116,2.66667 0.66468,0 1.20851,-1.2 1.20851,-2.66667 z m 53.73628,-11.04402 c 0.87837,-0.30035 0.69705,-0.48291 -0.40295,-0.40571 -1.44232,0.1012 -2.03037,1.81008 -2.10891,6.12839 l -0.10893,5.98801 0.51185,-5.58231 c 0.28151,-3.07026 1.23052,-5.82804 2.10891,-6.12838 z M 141,271.0809 c -1.28333,-0.33536 -3.38333,-0.33536 -4.66667,0 -1.28333,0.33537 -0.23333,0.60977 2.33334,0.60977 2.56666,0 3.61666,-0.2744 2.33333,-0.60977 z m 28.66667,0.0361 c -0.91667,-0.36988 -2.41667,-0.36988 -3.33334,0 -0.91666,0.36988 -0.16666,0.67252 1.66667,0.67252 1.83333,0 2.58333,-0.30264 1.66667,-0.67252 z M 140.25,268.42259 c -0.96249,-0.38516 -2.11249,-0.3378 -2.55556,0.1052 -0.44305,0.44307 0.34445,0.75819 1.75,0.70029 1.55327,-0.064 1.8692,-0.37992 0.80556,-0.80554 z M 164,264.34594 c 0,-2.81695 -2.14949,-1.87491 -3.75323,1.6449 -1.41798,3.11215 -1.34658,3.21926 1.11932,1.67927 C 162.81475,266.76542 164,265.26954 164,264.34594 Z m 8,3.11222 c 0,-1.192 -0.93168,-1.63153 -2.55731,-1.20642 -1.91353,0.5004 -2.66873,-0.1184 -3,-2.45816 -0.28766,-2.03191 -1.37653,-3.1728 -3.10936,-3.25795 -2.0299,-0.0997 -2.10949,10e-4 -0.33333,0.42607 1.28333,0.30641 2.33333,1.7347 2.33333,3.17401 0,2.08641 2.5658,4.15787 6.33334,5.11311 C 171.85,269.29535 172,268.48951 172,267.45816 Z m -37.86111,-4.43038 c -1.35536,-1.35535 -2.47366,0.68518 -1.36162,2.4845 0.84004,1.35923 1.1541,1.36028 1.60573,0.005 0.3088,-0.92639 0.19895,-2.04683 -0.24411,-2.4899 z m 7.19444,1.63889 c 0,-1.1 -0.6,-2 -1.33333,-2 -0.73333,0 -1.33333,0.9 -1.33333,2 0,1.1 0.6,2 1.33333,2 0.73333,0 1.33333,-0.9 1.33333,-2 z m -1,-4.27431 c -1.65,-0.31781 -4.35,-0.31781 -6,0 -1.65,0.3178 -0.3,0.57783 3,0.57783 3.3,0 4.65,-0.26003 3,-0.57783 z m 77,19.17339 c 0,-0.97216 1.517,-3.19272 3.37111,-4.93456 1.85411,-1.74184 4.15759,-5.86427 5.11885,-9.16093 2.03364,-6.97443 4.84096,-8.85512 4.84836,-3.24803 0.003,2.07777 1.20274,5.74228 2.66667,8.14333 3.38549,5.55272 3.35901,7.24466 -0.0493,3.1534 -1.44228,-1.73125 -2.62232,-2.58584 -2.62232,-1.89909 0,0.68675 1.59674,2.70321 3.54833,4.48105 1.95159,1.77783 3.06807,2.40458 2.48107,1.39278 -0.73016,-1.25859 -0.48222,-1.64483 0.785,-1.22286 2.49076,0.82943 3.20076,5.0625 0.84912,5.0625 -3.7765,0 -7.99684,-6.35682 -8.5387,-12.86124 -0.57296,-6.87792 -1.72621,-9.52518 -1.89981,-4.36099 -0.31019,9.2268 -0.87843,11.06177 -4.35037,14.04821 -4.1406,3.5616 -6.20798,4.02996 -6.20798,1.40643 z m 6,-3.56575 c 1.32732,-1.46666 2.11331,-2.66666 1.74664,-2.66666 -0.36666,0 -1.75265,1.2 -3.07997,2.66666 -1.32732,1.46667 -2.11331,2.66667 -1.74664,2.66667 0.36667,0 1.75265,-1.2 3.07997,-2.66667 z m -157.674971,1.78086 c -2.33219,-0.94024 -0.697544,-3.11419 2.341641,-3.11419 3.847025,0 4.548689,-2.53788 1.08566,-3.92676 -1.734713,-0.69573 -2.210031,-1.28348 -1.08566,-1.34248 1.777777,-0.0933 1.777777,-0.24853 0,-1.39743 -1.709196,-1.10457 -1.660729,-1.29546 0.333333,-1.31292 3.216584,-0.0281 2.944651,-3.64669 -0.352694,-4.69322 -1.477315,-0.46888 -2.341906,-1.40931 -1.921311,-2.08986 1.115356,-1.80468 6.729308,-1.51309 8.266112,0.42934 1.759769,2.22424 1.806632,14.56412 0.06329,16.66666 -1.384884,1.67024 -5.591184,2.04646 -8.730377,0.78086 z m 7.660882,-2.43055 c 0.967779,-1.16609 1.222471,-2.95124 0.618248,-4.33333 -0.565132,-1.29267 -0.91739,-2.84491 -0.782798,-3.44942 0.134592,-0.6045 -0.399288,-0.70109 -1.1864,-0.21462 -1.005283,0.62129 -0.970727,1.4392 0.116133,2.74878 2.13238,2.56936 0.695857,5.57358 -3.002891,6.27995 -2.861552,0.54651 -2.879026,0.60148 -0.244792,0.77009 1.560208,0.0999 3.577334,-0.71078 4.482502,-1.80145 z m -0.652574,-14.01697 c -0.453226,-0.73334 -1.838635,-1.29116 -3.07869,-1.23962 -1.837994,0.0764 -1.761854,0.30547 0.412023,1.23962 3.567884,1.53317 3.614219,1.53317 2.666667,0 z M 84,276.37791 c 0,-2.70221 3.908371,-13.65333 5.726187,-16.04457 0.696849,-0.91667 1.826549,-1.66667 2.510445,-1.66667 1.571415,0 7.763368,13.85515 7.763368,17.37135 0,3.43256 -3.574392,3.40344 -4.666667,-0.038 -0.465501,-1.46667 -1.965501,-2.66667 -3.333333,-2.66667 -1.367832,0 -2.867832,1.2 -3.333333,2.66667 C 87.632627,279.25799 84,279.55216 84,276.37792 Z m 11.663737,-7.04457 c 0.356322,-1.32147 0.165576,-1.4869 -0.562229,-0.48758 -0.605829,0.83183 -2.301508,1.84262 -3.768175,2.24619 -2.10267,0.57859 -1.98376,0.68171 0.56223,0.48757 1.775893,-0.1354 3.471572,-1.14618 3.768174,-2.24618 z m -2.228896,-4 c 1.275415,1.77777 1.37418,1.77777 0.88889,0 -0.300275,-1.1 -1.345954,-2 -2.323731,-2 -0.977777,0 -2.023456,0.9 -2.323731,2 -0.48529,1.77777 -0.386525,1.77777 0.88889,0 1.275414,-1.77778 1.594268,-1.77778 2.869682,0 z m 7.898489,3.33333 c 0,-8 0.4,-10 2,-10 1.6,0 2,2 2,10 0,8 -0.4,10 -2,10 -1.6,0 -2,-2 -2,-10 z m 2.24944,-0.34888 c -0.33372,-1.27479 -0.59466,0.0823 -0.57986,3.01555 0.0148,2.93333 0.28785,3.97633 0.60677,2.31778 0.31893,-1.65854 0.30682,-4.05854 -0.0269,-5.33333 z m 3.0839,7.94888 c 0,-1.32 0.65228,-3.05228 1.44951,-3.84951 1.04379,-1.0438 1.04379,-1.70026 0,-2.34536 -2.11751,-1.30869 -1.77284,-6.0718 0.43938,-6.0718 1.03888,0 2.16388,0.75 2.5,1.66667 0.48888,1.33333 0.96444,1.33333 2.37777,0 C 114.405,264.75 115.68,264 116.26667,264 c 1.60154,0 1.28363,5.04187 -0.38285,6.0718 -1.04379,0.6451 -1.04379,1.30156 0,2.34536 1.6784,1.67839 1.95842,6.24951 0.38285,6.24951 -0.58667,0 -1.78667,-0.72 -2.66667,-1.6 -1.24444,-1.24444 -1.95556,-1.24444 -3.2,0 -2.28688,2.28688 -3.73333,1.97692 -3.73333,-0.8 z M 114.56015,269 c 1.69427,-2.72061 1.6675,-2.83409 -0.28754,-1.21854 -1.18569,0.9798 -2.77521,1.39864 -3.53226,0.93074 -0.82113,-0.50748 -1.05611,-0.0159 -0.58243,1.21855 1.08775,2.83461 2.20434,2.59853 4.40223,-0.93075 z m 84.10652,6.22223 c 0,-2.35457 2.87034,-1.94452 3.69444,0.52777 0.29028,0.87083 -0.42222,1.58334 -1.58334,1.58334 -1.1611,0 -2.1111,-0.95 -2.1111,-2.11111 z m 4.60766,-6.87972 -8.059,-0.45551 0.5382,-4.61017 c 0.55787,-4.77852 4.11339,-6.61789 4.40114,-2.27683 0.1473,2.22223 0.1837,2.22223 0.76444,0 0.89848,-3.43816 4.4317,-2.89297 4.3205,0.66667 -0.0899,2.87607 -0.14397,2.88983 -1.31034,0.33333 -1.0952,-2.40046 -1.18567,-2.3339 -0.9063,0.66667 0.27246,2.92615 1.00259,3.3722 5.97703,3.65155 5.40289,0.3034 5.65821,0.14824 5.48509,-3.33334 -0.1409,-2.83354 -0.30521,-3.02378 -0.7335,-0.84921 -0.72907,3.70176 -7.08492,2.84256 -7.08492,-0.95777 0,-3.16595 3.5955,-3.31086 4.41422,-0.1779 0.58074,2.22223 0.61714,2.22223 0.76444,0 0.28988,-4.37321 3.84446,-2.49152 4.40772,2.33334 0.29966,2.56666 0.1144,4.66666 -0.41173,4.66666 -0.52611,0 -1.75563,0.17955 -2.73227,0.399 -0.97665,0.21946 -5.40226,0.19403 -9.83472,-0.0565 z M 198.21637,261 c -0.36988,-0.91666 -0.67252,-0.16666 -0.67252,1.66667 0,1.83333 0.30264,2.58333 0.67252,1.66667 0.36988,-0.91667 0.36988,-2.41667 0,-3.33334 z m 1.11696,-35.48406 C 188.04949,221.61528 181.66995,218.618 175.66667,214.3967 L 172,211.81842 v -16.67111 c 0,-18.37271 0.25657,-19.0384 8.37017,-21.71612 2.72974,-0.90089 4.96316,-2.47229 4.96316,-3.492 0,-1.01972 1.41984,-2.62319 3.15519,-3.56327 l 3.1552,-1.70925 -2.49189,-5.80332 -2.49188,-5.80331 -12.1873,0.46998 -12.18728,0.46998 -3.18181,-9.33333 c -3.02884,-8.88457 -3.081,-9.5992 -1.0848,-14.86282 1.15336,-3.04122 3.72097,-7.2478 5.7058,-9.34795 1.98483,-2.10015 4.78019,-6.03396 6.21191,-8.74181 2.34477,-4.43473 3.20194,-4.96259 8.63676,-5.31872 L 184.60687,106 196.00709,66.000001 c 6.27014,-22 12.1547,-41.350001 13.07682,-43.000001 0.92212,-1.65 2.70546,-3.019082 3.963,-3.042404 1.25753,-0.02332 3.4511,-0.923322 4.8746,-2 2.94138,-2.224752 10.83713,-2.632833 12.07849,-0.624262 0.45323,0.733333 3.42216,1.333333 6.59764,1.333333 3.57439,0 6.80889,0.888791 8.49153,2.333333 2.11143,1.812654 45.90755,76.046454 54.4744,92.33334 1.6972,3.22662 1.7536,3.15193 1.76155,-2.33334 l 0.008,-5.66666 h 5.33334 c 4.95266,0 5.33333,0.26652 5.33333,3.73418 0,4.05128 2.71932,10.90529 4.33333,10.92208 0.55,0.006 1,2.64621 1,5.86775 0,3.97654 0.6422,6.10379 2,6.62482 1.17408,0.45054 2,2.45022 2,4.84233 0,3.11965 -0.78137,4.37192 -3.33333,5.34217 -2.04075,0.77589 -3.33333,2.3142 -3.33333,3.967 0,1.48481 -0.6,2.69967 -1.33334,2.69967 -0.80845,0 -1.3903,6.42981 -1.47804,16.33333 C 311.66147,187.54344 310.483,198 308.21129,198 c -0.9838,0 -3.2338,-3.55192 -5,-7.89316 C 300.42287,183.25306 300,180.06318 300,165.88255 c 0,-16.91845 -0.64063,-21.13471 -2.99056,-19.68237 -0.7578,0.46834 -8.93455,0.75861 -18.17057,0.64502 -20.12012,-0.24741 -21.58491,-1.0755 -22.55306,-12.75004 -0.46389,-5.59397 -0.04,-8.2717 1.73926,-10.9872 l 2.35262,-3.59058 -14.49794,-29.092021 C 237.90587,74.424745 231.02792,61.333334 230.5954,61.333334 c -0.74604,0 -14.67044,42.225326 -14.61955,44.333336 0.0133,0.55 2.76239,1 6.10912,1 6.02354,0 6.11443,0.0673 9,6.66174 2.65388,6.06495 3.23651,6.59451 6.5035,5.91124 1.97365,-0.41278 4.82446,-0.089 6.33513,0.71946 2.49732,1.33653 9.40973,12.9498 9.40973,15.80893 0,0.65451 -2.09417,3.82446 -4.65372,7.04432 -3.98289,5.0104 -4.6556,6.8694 -4.66666,12.89615 -0.008,4.50201 0.58818,7.21229 1.65372,7.5144 0.91666,0.25989 4.21666,1.16515 7.33333,2.01168 3.83821,1.04249 5.67401,2.27475 5.68943,3.81893 0.0148,1.47935 2.58956,3.39099 7.33333,5.44458 l 7.31057,3.16476 v 18.54929 18.54928 l -5.66666,2.38771 c -11.37944,4.79484 -43.82282,12.23965 -52.81344,12.11916 -2.66928,-0.0357 -9.65323,-1.72434 -15.5199,-3.75236 z m 36,-2.86839 c 6.6,-1.44544 17.26818,-4.2326 23.70706,-6.19369 l 11.70705,-3.56563 -0.37372,-15.44411 L 270,182 h -8 c -7.91057,0 -11.35759,-1.54866 -8.26295,-3.71237 2.03991,-1.42627 -5.29506,-0.17003 -16.07038,2.75233 -4.83432,1.31111 -8.33334,2.9939 -8.33334,4.00776 0,2.08012 -7.7825,5.61871 -10.2635,4.66667 -0.95507,-0.36649 -1.7365,-1.46043 -1.7365,-2.43097 0,-0.97054 -1.35,-2.02463 -3,-2.34244 -2.16946,-0.41786 -1.80034,-0.6281 1.33334,-0.7594 C 218.05,184.08171 220,183.42995 220,182.7332 c 0,-0.69673 3.45,-1.48328 7.66667,-1.74788 5.21485,-0.32724 3.53441,-0.56172 -5.25464,-0.73321 -8.22562,-0.16049 -13.25095,0.28125 -13.82838,1.21555 -0.49889,0.80721 -2.48429,1.15357 -4.41202,0.76969 -1.9994,-0.39816 -4.63098,0.12733 -6.12634,1.22328 -2.42814,1.77964 -2.29941,1.85687 1.74643,1.04769 4.82315,-0.96462 10.87495,1.47484 10.87495,4.38366 0,2.6075 -1.97775,2.25844 -16.38772,-2.89238 -7.17991,-2.56644 -14.52991,-4.66626 -16.33334,-4.66626 -3.27173,0 -3.27894,0.0303 -3.27894,13.79334 0,15.45067 0.0657,15.57963 10.66666,20.91667 10.62687,5.35011 23.14396,9.08968 30.66667,9.16188 4.03333,0.0387 12.73333,-1.11224 19.33333,-2.55768 z m 7.33334,-11.35717 c 0,-1.12364 1.31632,-2.52991 2.92516,-3.12506 l 2.92516,-1.08209 -2.92516,-2.5046 c -3.77159,-3.22933 -3.7377,-5.90973 0.0748,-5.92017 1.65,-0.004 4.60758,-0.84694 6.57241,-1.87203 5.16565,-2.69505 7.36035,1.13795 3.09425,5.40405 -2.55654,2.55655 -2.55654,4.47619 0,4.47619 4.51912,0 1.66175,3.7686 -3.92376,5.17505 -7.7459,1.95044 -8.74286,1.88758 -8.74286,-0.55134 z m 8.52932,-7.06815 c 0.37769,-0.61112 -0.16051,-1.11112 -1.19599,-1.11112 -1.03548,0 -1.57368,0.5 -1.19599,1.11112 0.37768,0.61111 0.91588,1.11111 1.19599,1.11111 0.28011,0 0.81831,-0.5 1.19599,-1.11111 z m 56.59193,-29.55556 C 308.11649,162.08792 307.87419,160 306.08552,160 304.35855,160 304,161.93354 304,171.24654 c 0,9.45961 1.43227,18.0868 3.00273,18.0868 0.22114,0 0.57447,-6.6 0.78519,-14.66667 z m -111.19975,7.29093 c 1.4235,-1.07668 2.0235,-1.93852 1.33334,-1.9152 -0.69016,0.0233 -2.41952,0.92334 -3.84302,2 -1.42349,1.07668 -2.02349,1.93852 -1.33333,1.9152 0.69016,-0.0233 2.41952,-0.92333 3.84301,-2 z m -1.9215,-3.36962 c 0,-0.77662 -0.6,-1.0412 -1.33334,-0.58798 -1.7085,1.05592 -1.7085,2 0,2 0.73334,0 1.33334,-0.63541 1.33334,-1.41202 z m 68.44238,0.0583 c 2.35532,-0.0167 2.52039,-0.25989 0.89095,-1.31292 -3.02723,-1.95634 -6.28364,-1.58798 -7.2058,0.81512 -0.60343,1.5725 -0.25499,1.92994 1.29973,1.33334 1.1683,-0.44832 3.4251,-0.82431 5.01512,-0.83554 z m -76.76833,-0.74997 C 185.14465,176.70022 176,176.15351 176,177.27807 c 0,0.47699 2.53211,1.01665 5.62689,1.19925 3.09479,0.18262 5.21602,-0.0788 4.71383,-0.58105 z m 30.18329,-4.00532 c 1.4118,-3.67907 0.93972,-4.2082 -5.11444,-5.73267 -8.82417,-2.22194 -18.07624,-1.96173 -18.07624,0.50839 0,1.1 -0.63541,2 -1.41202,2 -0.77662,0 -1.0574,0.5738 -0.62396,1.27511 0.43342,0.7013 1.60814,0.9604 2.61048,0.57576 1.00234,-0.38463 2.24402,-0.0172 2.75929,0.81653 0.64411,1.04219 3.66121,1.22411 9.65527,0.5822 6.34929,-0.67995 8.46504,-0.52369 7.786,0.57504 -0.51284,0.82979 -0.36122,1.50869 0.33693,1.50869 0.69816,0 1.63357,-0.94906 2.07869,-2.10905 z m 30.15182,-1.40796 c 10.38048,-2.3442 10.40857,-4.25133 0.0713,-4.84141 l -5.39999,-0.30824 -0.007,-8.33334 c -0.005,-6.51545 -0.4432,-8.33333 -2.00691,-8.33333 -1.1,0 -2,-0.9 -2,-2 0,-1.1 0.79959,-2 1.77685,-2 0.97726,0 3.78234,-2.49557 6.23351,-5.54572 l 4.45665,-5.54572 -3.2474,-6.12095 c -2.36561,-4.45889 -3.96772,-6.03873 -5.90017,-5.81816 -5.01431,0.57232 -9.98556,-1.12113 -10.00652,-3.40872 -0.0179,-1.94098 -0.20543,-1.97022 -1.45912,-0.2274 -1.20043,1.66878 -1.30901,1.59959 -0.65568,-0.41779 0.43065,-1.32979 -0.12813,-4.17979 -1.2418,-6.33333 -1.52509,-2.94869 -2.96773,-3.91554 -5.84268,-3.91554 -4.12689,0 -4.97277,3.05396 -1.78057,6.42857 0.91666,0.96904 1.66666,2.93832 1.66666,4.37615 0,1.43784 0.89602,4.75873 1.99115,7.37975 2.47317,5.91914 1.44448,7.95939 -2.65787,5.27144 -2.69197,-1.76386 -3.18208,-1.77312 -3.83468,-0.0725 -0.42885,1.11757 -2.4735,1.94988 -4.79009,1.94988 -4.53539,0 -5.08432,1.94493 -2.57807,9.13437 1.2029,3.45063 2.2128,4.22708 5.66667,4.35671 l 4.20289,0.15776 -4,0.94801 c -6.06808,1.43816 -8.07177,-1.09877 -8.55556,-10.83242 -0.17072,-3.43498 -4.40532,-3.51822 -8.07458,-0.15871 -2.33384,2.13681 -4.76795,2.96084 -8.33334,2.82115 -2.77009,-0.10855 -5.03652,-0.7671 -5.03652,-1.46344 0,-0.69635 1.85558,-0.99375 4.12351,-0.6609 2.67703,0.39291 4.36408,-0.0217 4.80932,-1.182 0.3772,-0.98296 1.44815,-1.7872 2.37989,-1.7872 0.93176,0 2.35618,-0.79776 3.16538,-1.77278 0.83968,-1.01175 3.10393,-1.53318 5.27437,-1.21462 2.76864,0.40635 3.80309,0.003 3.80309,-1.48277 0,-1.51377 -0.94404,-1.85213 -3.65482,-1.30997 -2.82603,0.5652 -4.0047,0.0773 -5.19759,-2.1517 -0.84852,-1.58546 -1.24423,-3.5994 -0.87936,-4.47541 0.37161,-0.89218 1.06877,-0.25689 1.58503,1.44435 0.76956,2.53605 1.71924,2.97598 5.7564,2.66667 4.13364,-0.31671 4.89657,0.0646 5.26085,2.62957 0.52807,3.71822 2.35995,3.90362 3.2936,0.33333 C 215.86009,127.58032 220,127.02242 220,130 c 0,1.1 0.61541,2 1.36757,2 0.78391,0 0.49938,-1.67892 -0.66666,-3.93378 -1.11883,-2.16359 -2.03424,-5.09012 -2.03424,-6.50341 0,-1.41329 -0.9,-3.31656 -2,-4.22947 -1.1,-0.91292 -2,-3.08639 -2,-4.82993 0,-1.74354 -0.6,-3.17007 -1.33334,-3.17007 -2.45296,0 -1.3825,-4.60295 6.66667,-28.666672 4.4,-13.154183 8,-24.385439 8,-24.958348 0,-0.572908 -1.05,-1.05084 -2.33333,-1.06207 -1.5798,-0.01383 -1.81783,-0.34813 -0.73706,-1.03519 1.04116,-0.661871 1.17123,-1.698066 0.37403,-2.979583 -1.00496,-1.615487 -1.7004,-1.668494 -3.91153,-0.298143 -1.4791,0.916667 -3.85483,1.666667 -5.2794,1.666667 -1.9765,0 -3.07383,1.658429 -4.63167,7 -8.60393,29.501451 -15.44641,50.832049 -16.71201,52.097639 -1.11411,1.11411 -2.17798,1.08026 -4.11755,-0.13102 -1.43841,-0.89831 -5.09341,-1.63328 -8.12223,-1.63328 -5.10681,0 -5.43709,0.21797 -4.54573,3 0.52865,1.65 1.26428,4.95 1.63471,7.33333 L 180.29175,124 h -6.14044 -6.14044 l 2.53313,6.66667 c 1.39323,3.66667 1.95537,6.66667 1.24921,6.66667 -0.70616,0 -0.85581,0.6927 -0.33256,1.53934 0.56232,0.90984 0.36844,1.17907 -0.47409,0.65836 -0.78401,-0.48454 -1.78031,-0.1272 -2.21399,0.79399 -0.43369,0.92124 -0.50784,0.16179 -0.16478,-1.68767 0.34306,-1.84946 -0.16078,-6.01964 -1.11963,-9.26708 l -1.74337,-5.90442 -2.3159,3.53452 c -3.26044,4.97605 -3.47349,9.73484 -0.78618,17.56013 2.00694,5.84411 2.76226,6.71915 5.50825,6.38131 6.07455,-0.74734 8.57872,-0.78482 20.51571,-0.30711 6.6,0.26413 9.70082,0.71852 6.89073,1.00976 -3.21955,0.33368 -4.89197,1.11379 -4.52176,2.1092 0.32312,0.86881 1.36692,3.75805 2.31956,6.42053 l 1.73208,4.84086 10.38223,0.60101 C 216.27395,166.24154 220,167.92043 220,172.16326 c 0,2.18729 1.07373,2.50341 8.50311,2.50341 4.67672,0 12.85444,-0.98265 18.17272,-2.18368 z m -78.56878,-25.81632 c 1.94375,-4.08137 2.55962,-4.83779 2.55962,-3.14373 0,0.7154 -0.9331,2.4654 -2.07356,3.88889 -1.95516,2.44041 -1.98292,2.39787 -0.48606,-0.74516 z m 55.53424,0.45875 c 0.90271,-0.36523 2.70271,-0.38746 4,-0.0493 1.2973,0.33806 0.55871,0.63688 -1.64129,0.66406 -2.2,0.0272 -3.26141,-0.24942 -2.35871,-0.61466 z m 7.38648,0.0691 c 0.44307,-0.44305 1.59306,-0.49041 2.55556,-0.1052 1.06364,0.42563 0.74771,0.74158 -0.80556,0.80555 -1.40554,0.0579 -2.19305,-0.25723 -1.75,-0.70029 z M 233.33333,144 c 0,-0.73333 0.26459,-1.33333 0.58798,-1.33333 0.32338,0 0.9588,0.6 1.41202,1.33333 0.45323,0.73334 0.18864,1.33334 -0.58797,1.33334 -0.77661,0 -1.41203,-0.6 -1.41203,-1.33334 z M 215,141.74756 c 1.28333,-0.33536 3.38333,-0.33536 4.66667,0 1.28333,0.33538 0.23333,0.60978 -2.33334,0.60978 -2.56666,0 -3.61666,-0.2744 -2.33333,-0.60978 z m -36.69204,-1.28881 c 0.90271,-0.36523 2.70271,-0.38745 4,-0.0493 1.29729,0.33805 0.55871,0.63688 -1.64129,0.66405 -2.2,0.0272 -3.26142,-0.24941 -2.35871,-0.61465 z m -15.64129,-3.79208 c 0,-1.1 0.9,-2 2,-2 1.1,0 2,0.9 2,2 0,1.1 -0.9,2 -2,2 -1.1,0 -2,-0.9 -2,-2 z m 15.02777,-0.13889 c 0.44307,-0.44306 1.59305,-0.49042 2.55556,-0.1052 1.06364,0.42562 0.74771,0.74157 -0.80556,0.80554 -1.40555,0.0579 -2.19305,-0.25722 -1.75,-0.70029 z m 66.32597,-1.63888 c -0.0245,-3.73116 3.16242,-3.24299 3.62275,0.55493 0.18565,1.53179 -0.012,1.8278 -0.49473,0.73864 -0.67927,-1.53449 -0.9839,-1.53449 -1.95608,0 -0.83815,1.32292 -1.15707,0.97088 -1.17194,-1.29357 z m -52.2533,-10.89498 c 1.81246,-1.51058 2.9974,-3.84617 2.85241,-5.6223 -0.5064,-6.20329 -0.2762,-6.37162 8.71381,-6.37162 7.38308,0 8.65967,0.34558 8.61942,2.33334 -0.0853,4.21382 -3.15234,7.66498 -6.85314,7.71149 -1.96186,0.0246 -3.37485,-0.27535 -3.13994,-0.66667 0.54386,-0.906 -2.22915,-3.27464 -4.34511,-3.71149 -0.88801,-0.18333 -1.61456,0.82381 -1.61456,2.23809 0,2.87615 -3.35324,6.78554 -5.76191,6.71755 -0.86428,-0.0244 -0.17622,-1.20717 1.52902,-2.62839 z m 14.89956,-5.32725 c -2.62683,-1.69758 -5.71583,-1.69758 -4.66667,0 0.45323,0.73333 2.13864,1.32414 3.74536,1.31291 2.37497,-0.0166 2.54728,-0.26213 0.92131,-1.31291 z m 102.0682,33.79701 -0.93658,-3.73156 -2.53616,3.30062 c -3.15813,4.11004 -3.19797,4.96713 -0.26213,5.63925 3.47777,0.79619 4.78453,-1.02611 3.73487,-5.20831 z m 0.59846,-7.35869 c 0,-0.85892 0.95408,-2.61592 2.12018,-3.90445 1.46806,-1.62219 1.79692,-3.29487 1.06917,-5.43832 -0.57805,-1.70255 -0.88515,-3.68651 -0.68243,-4.4088 0.20272,-0.72229 -0.0152,-3.87229 -0.4842,-7 l -0.85278,-5.68675 h -6.58496 c -3.62174,0 -6.58498,-0.6 -6.58498,-1.33333 0,-0.73334 -2.85,-1.31426 -6.33333,-1.29093 -5.55241,0.0372 -6.04563,0.2608 -4,1.81365 2.95935,2.24647 3.3374,12.81061 0.45845,12.81061 -1.23002,0 -2.17965,-2.2159 -2.76096,-6.44252 -0.92732,-6.74244 -14.59668,-35.193247 -15.54374,-32.352063 -0.29087,0.872589 -9.38394,-14.375508 -20.20683,-33.884661 -10.82289,-19.509152 -19.33896,-36.01975 -18.9246,-36.690216 0.88591,-1.433414 -4.7334,-3.071054 -8.2502,-2.404366 -1.65097,0.31298 -2.57376,1.858622 -2.8566,4.784742 C 218.54341,27.52721 218.86819,28 221.88479,28 c 5.16365,0 7.98521,5.271655 7.04962,13.17117 -0.77009,6.502244 0.55047,11.97249 4.70635,19.495498 1.21533,2.2 8.46044,15.988788 16.10024,30.641752 10.92461,20.95316 14.54933,26.79727 16.97592,27.37011 4.05004,0.95609 5.04336,3.98814 1.30653,3.98814 -6.76105,0 -10.37784,5.46757 -8.51816,12.87709 0.72634,2.89395 1.16374,3.19956 2.38536,1.66667 2.15658,-2.70605 6.50528,-4.88058 8.44268,-4.22169 2.01494,0.68526 2.21674,7.2612 0.28219,9.19574 -0.95709,0.9571 1.10328,1.40792 6.67425,1.46039 4.43232,0.0417 8.39075,-0.46127 8.79651,-1.11781 0.40577,-0.65655 1.75236,-1.18454 2.99241,-1.17331 1.94303,0.0176 1.97823,0.19905 0.25464,1.31292 -1.55849,1.00717 -1.19058,1.297 1.66667,1.31292 2.01667,0.0107 3.66667,-0.57959 3.66667,-1.31292 0,-2.61515 6.33356,-1.41783 7.053,1.33333 0.7629,2.91735 7.61366,3.91162 7.61366,1.10499 z m -15.63889,-5.91055 c 0.44307,-0.44305 1.59305,-0.49041 2.55556,-0.1052 1.06364,0.42563 0.74771,0.74158 -0.80556,0.80555 -1.40555,0.0579 -2.19305,-0.25723 -1.75,-0.70029 z m -7.47221,-1.41666 c -1.57148,-1.57147 -0.95587,-2.78258 1.77777,-3.49744 1.46667,-0.38355 2.66667,-0.15352 2.66667,0.51116 0,0.66468 -0.75,1.21769 -1.66667,1.22892 -1.11111,0.0136 -1,0.45125 0.33333,1.31292 1.75255,1.13258 1.7388,1.29502 -0.11106,1.31292 -1.16112,0.0107 -2.51112,-0.37959 -3,-0.86848 z M 292.10527,135 c 0.0629,-1.39392 0.37601,-1.66232 0.77777,-0.66666 0.36988,0.91666 1.67252,1.66776 2.89473,1.66909 1.87763,0.003 2.15218,-1.23852 1.77047,-8 L 297.09648,120 h 4.21367 c 3.8306,0 4.02318,0.19048 2.11842,2.09524 -1.15238,1.15238 -2.13741,3.10238 -2.18896,4.33333 -0.0756,1.805 -0.31545,1.72206 -1.23961,-0.42857 -0.96028,-2.23469 -1.16109,-1.9647 -1.23961,1.66667 -0.0707,3.26649 0.48073,4.33836 2.23961,4.35375 1.99407,0.0174 2.04253,0.20835 0.33333,1.31292 -1.77777,1.14889 -1.77777,1.30518 0,1.40662 2.95991,0.16891 -2.65428,2.38474 -6.33333,2.49966 -2.04129,0.0637 -2.96636,-0.65194 -2.89473,-2.23962 z M 261.1736,108.33334 c -2.1318,-5.4774 -3.54035,-8.388112 -7.23193,-14.94452 -1.84088,-3.269483 -3.05356,-6.709368 -2.69484,-7.644188 1.21416,-3.164052 4.37636,-0.297396 8.08436,7.328796 2.03058,4.176283 4.86778,9.264532 6.30488,11.307232 1.4371,2.0427 2.27572,4.5927 1.8636,5.66667 -1.22462,3.19129 -4.79324,2.2244 -6.32607,-1.71399 z m -0.36804,-7.97223 c -0.44307,-0.443052 -0.75819,0.34445 -0.70029,1.75 0.064,1.55326 0.37992,1.8692 0.80554,0.80556 0.38516,-0.9625 0.3378,-2.1125 -0.1052,-2.55556 z m -4.13889,-8.361109 c -1.13767,-2.2 -2.36848,-4 -2.73515,-4 -0.36667,0 0.26415,1.8 1.40181,4 1.13767,2.200001 2.36848,4.000001 2.73515,4.000001 0.36667,0 -0.26415,-1.8 -1.40181,-4.000001 z M 268,139.33334 c 0.91292,-1.1 1.35985,-2 0.99319,-2 -0.36667,0 -1.4136,0.9 -2.32652,2 -0.91292,1.1 -1.35986,2 -0.99319,2 0.36667,0 1.4136,-0.9 2.32652,-2 z m 46.24944,-13.68222 c -0.33372,-1.27478 -0.59467,0.0822 -0.57987,3.01555 0.0148,2.93333 0.28786,3.97634 0.60678,2.31779 0.31892,-1.65855 0.30681,-4.05855 -0.0269,-5.33334 z m -26.77721,-1.29001 c -0.44307,-0.44305 -0.75819,0.34445 -0.7003,1.75 0.064,1.55326 0.37992,1.8692 0.80555,0.80556 0.38516,-0.9625 0.3378,-2.1125 -0.1052,-2.55556 z m -110.877,-6.02777 c -1.99951,-6.53577 -2.85655,-6.98476 -5.08967,-2.6664 -2.24779,4.34675 -1.61053,5.33547 3.58429,5.56113 1.90962,0.0829 2.22867,-0.53056 1.50538,-2.89473 z m 90.32144,2.08918 c -0.96251,-0.38516 -2.1125,-0.3378 -2.55556,0.10526 -0.44306,0.44306 0.34445,0.75819 1.75,0.7003 1.55326,-0.064 1.8692,-0.37992 0.80556,-0.80556 z m 42.41666,-8.50538 c 0,-3.02825 -0.60513,-3.91714 -2.66666,-3.91714 -3.84378,0 -3.84378,7.34385 0,7.6334 2.10712,0.15872 2.66666,-0.62106 2.66666,-3.71626 z M 279.13172,84.333335 C 269.91239,68.383334 258.70919,48.957939 254.23573,41.165789 247.35232,29.175846 245.38649,26.739451 241.44595,25.314532 c -3.57127,-1.291385 -4.77962,-1.313549 -5.18575,-0.09512 -0.35097,1.052896 -1.18336,0.777928 -2.46843,-0.81541 -1.78266,-2.210319 -1.82176,-2.1623 -0.48508,0.595996 0.79959,1.65 2.03268,3 2.74022,3 0.70753,0 1.21537,0.45 1.12853,1 -0.4414,2.795515 0.32267,4.388873 1.69724,3.539344 0.93939,-0.580576 1.17799,-0.366676 0.61217,0.548821 -1.08133,1.749646 2.63704,9.578502 4.54939,9.578502 0.71451,0 1.18021,0.45 1.03492,1 -0.59593,2.255926 1.88767,6.978053 3.23284,6.146682 0.82168,-0.507818 1.06196,-0.274929 0.55788,0.540696 -1.1516,1.863334 9.01484,20.628003 10.46391,19.31371 0.60706,-0.550599 0.6729,-0.25232 0.14632,0.662843 -1.197,2.08026 3.21788,9.813604 4.98054,8.724216 0.7121,-0.440093 0.89206,-0.148671 0.39994,0.647604 -1.07102,1.732927 3.15049,11.120959 4.59837,10.226125 0.55523,-0.343154 3.89839,4.782543 7.42923,11.390439 l 6.41972,12.01436 h 6.29812 6.2981 z m -86.28561,21.312915 c 0.83204,-0.53877 3.71956,-8.479582 6.41673,-17.646249 11.23681,-38.189639 11.33971,-38.469508 14.30561,-38.914419 1.53594,-0.230403 3.76138,-1.918915 4.94542,-3.752248 l 2.1528,-3.333333 -3.61976,2.333333 c -1.99087,1.283333 -4.20043,2.333333 -4.91015,2.333333 -2.42592,0 -2.89225,-5.037428 -0.98012,-10.587424 2.06497,-5.993619 1.08724,-15.276639 -1.05623,-10.02832 -0.58756,1.438659 -6.00252,20.165744 -12.03325,41.615745 -8.95447,31.84916 -10.57705,38.996252 -8.84939,38.979582 1.16356,-0.0112 2.79631,-0.46123 3.62834,-1 z m 32.48722,-65.56756 c 0,-3.623388 -0.45,-6.861237 -1,-7.195223 -0.55,-0.333985 -1.04846,2.630604 -1.10772,6.587978 -0.0592,3.957372 0.39076,7.195222 1,7.195222 0.60926,0 1.10772,-2.964589 1.10772,-6.587977 z m -9.8611,-1.050912 c -0.44307,-0.443055 -0.75819,0.344445 -0.7003,1.75 0.064,1.553257 0.37992,1.8692 0.80555,0.805556 0.38516,-0.9625 0.3378,-2.1125 -0.1052,-2.555556 z m 4,-5.333333 c -0.44307,-0.443055 -0.75819,0.344445 -0.7003,1.75 0.064,1.553257 0.37992,1.8692 0.80555,0.805556 0.38516,-0.9625 0.3378,-2.1125 -0.1052,-2.555556 z m 20.16906,-11.951766 c -1.29729,-0.338057 -3.09729,-0.315825 -4,0.0494 -0.9027,0.365231 0.15871,0.641824 2.35871,0.614651 2.2,-0.02717 2.93859,-0.325998 1.64129,-0.664056 z"
     id="path20"
     inkscape:connector-curvature="0" />
</svg>
